SplineFontDB: 3.0
FontName: sa-digital-number
FullName: sa-digital-number
FamilyName: sa-digital-number
Weight: Regular
Copyright: Copyright (c) 2015, Stephan Ahlf (https:) with no Reserved Font Name.  \nThis Font Software is licensed under the SIL Open Font License, Version 1.1.
UComments: "2015-6-5: Created with FontForge (http://fontforge.org)"
Version: 001.100
ItalicAngle: 0
UnderlinePosition: -100
UnderlineWidth: 50
Ascent: 800
Descent: 200
InvalidEm: 0
LayerCount: 2
Layer: 0 0 "Back" 1
Layer: 1 0 "Zeichen" 0
XUID: [1021 128 -81606342 30374]
OS2Version: 0
OS2_WeightWidthSlopeOnly: 0
OS2_UseTypoMetrics: 1
CreationTime: 1433487616
ModificationTime: 1433511184
OS2TypoAscent: 0
OS2TypoAOffset: 1
OS2TypoDescent: 0
OS2TypoDOffset: 1
OS2TypoLinegap: 0
OS2WinAscent: 0
OS2WinAOffset: 1
OS2WinDescent: 0
OS2WinDOffset: 1
HheadAscent: 0
HheadAOffset: 1
HheadDescent: 0
HheadDOffset: 1
OS2Vendor: 'PfEd'
MarkAttachClasses: 1
DEI: 91125
Encoding: ISO8859-1
UnicodeInterp: none
NameList: AGL For New Fonts
DisplaySize: -72
AntiAlias: 1
FitToEm: 0
WinInfo: 57 19 8
BeginPrivate: 0
EndPrivate
Grid
215.5 1300 m 0
 215.5 -700 l 1024
  Named: "a"
-1000 105.943756104 m 0
 2000 105.943756104 l 1024
-1000 -106.056243896 m 0
 2000 -106.056243896 l 1024
  Named: "ba"
-506.9375 1300 m 0
 -506.9375 -700 l 1024
-1000 695.943756104 m 0
 2000 695.943756104 l 1024
  Named: "h"
-379.928710938 1300 m 0
 -379.928710938 -700 l 1024
556.071289062 1300 m 0
 556.071289062 -700 l 1024
  Named: "r"
112.071289062 1300 m 0
 112.071289062 -700 l 1024
  Named: "l"
-1000 1065.9437561 m 0
 2000 1065.9437561 l 1024
EndSplineSet
BeginChars: 256 189

StartChar: E
Encoding: 69 69 0
Width: 1000
VWidth: 0
Flags: H
LayerCount: 2
Back
Fore
SplineSet
80.5625 312.5 m 5
 80.5625 312.5625 l 5
 80.5625 531.4375 l 6
 80.5625 537.0625 80.625 541.8125 80.625 547.375 c 4
 80.625 549.125 80.625 550.625 80.625 552.375 c 6
 80.625 760.125 l 5
 188.375 662.125 l 5
 188.375 440.1875 l 5
 188.3125 440.1875 l 5
 188.3125 415.75 l 5
 80.5625 312.5 l 5
111.3125 803.0625 m 5
 111.375 803.0625 l 5
 330.25 803.0625 l 6
 335.875 803.0625 340.625 803 346.1875 803 c 4
 347.9375 803 349.4375 803 351.1875 803 c 6
 559 803 l 5
 461 695.25 l 5
 239.0625 695.25 l 5
 239 695.3125 l 5
 214.5625 695.3125 l 5
 111.3125 803.0625 l 5
163.4375 269.6875 m 5
 128.5625 296.625 l 5
 198.3125 350.5 l 5
 471.9375 350.5 l 5
 541.6875 296.625 l 5
 471.9375 242.75 l 5
 198.3125 242.75 l 5
 163.4375 269.6875 l 5
82.4375 278.1875 m 5
 190.1875 174.9375 l 5
 190.1875 150.5 l 5
 190.25 150.5 l 5
 190.25 -71.4375 l 5
 82.5 -169.4375 l 5
 82.5 38.3125 l 6
 82.5 40.0625 82.5 41.5625 82.5 43.3125 c 4
 82.5 48.875 82.4375 53.625 82.4375 59.25 c 6
 82.4375 278.125 l 5
 82.4375 278.1875 l 5
113.1875 -212.375 m 5
 216.4375 -104.625 l 5
 462.8125 -104.625 l 5
 560.8125 -212.375 l 5
 353 -212.375 l 6
 351.25 -212.375 349.75 -212.375 348 -212.375 c 4
 342.4375 -212.375 337.6875 -212.5 332.0625 -212.5 c 6
 113.1875 -212.5 l 5
 113.1875 -212.375 l 5
EndSplineSet
EndChar

StartChar: F
Encoding: 70 70 1
Width: 1000
VWidth: 0
Flags: W
HStem: 242.75 107.75<198.312 471.938> 695.25 107.812<214.562 239 239.062 461>
VStem: 82.4375 107.812<-71.4375 174.938 415.75 662.125>
LayerCount: 2
Back
Fore
SplineSet
80.5625 312.5 m 1
 80.5625 312.5625 l 1
 80.5625 531.4375 l 2
 80.5625 537.0625 80.625 541.8125 80.625 547.375 c 0
 80.625 549.125 80.625 550.625 80.625 552.375 c 2
 80.625 760.125 l 1
 188.375 662.125 l 1
 188.375 440.1875 l 1
 188.3125 440.1875 l 1
 188.3125 415.75 l 1
 80.5625 312.5 l 1
111.3125 803.0625 m 1
 111.375 803.0625 l 1
 330.25 803.0625 l 2
 335.875 803.0625 340.625 803 346.1875 803 c 0
 347.9375 803 349.4375 803 351.1875 803 c 2
 559 803 l 1
 461 695.25 l 1
 239.0625 695.25 l 1
 239 695.3125 l 1
 214.5625 695.3125 l 1
 111.3125 803.0625 l 1
163.4375 269.6875 m 1
 128.5625 296.625 l 1
 198.3125 350.5 l 1
 471.9375 350.5 l 1
 541.6875 296.625 l 1
 471.9375 242.75 l 1
 198.3125 242.75 l 1
 163.4375 269.6875 l 1
82.4375 278.1875 m 1
 190.1875 174.9375 l 1
 190.1875 150.5 l 1
 190.25 150.5 l 1
 190.25 -71.4375 l 1
 82.5 -169.4375 l 1
 82.5 38.3125 l 2
 82.5 40.0625 82.5 41.5625 82.5 43.3125 c 0
 82.5 48.875 82.4375 53.625 82.4375 59.25 c 2
 82.4375 278.125 l 1
 82.4375 278.1875 l 1
EndSplineSet
EndChar

StartChar: e
Encoding: 101 101 2
Width: 1000
VWidth: 0
Flags: HW
LayerCount: 2
Back
Fore
SplineSet
80.5625 312.5 m 1
 80.5625 312.5625 l 1
 80.5625 531.4375 l 2
 80.5625 537.0625 80.625 541.8125 80.625 547.375 c 0
 80.625 549.125 80.625 550.625 80.625 552.375 c 2
 80.625 760.125 l 1
 188.375 662.125 l 1
 188.375 440.1875 l 1
 188.3125 440.1875 l 1
 188.3125 415.75 l 1
 80.5625 312.5 l 1
111.3125 803.0625 m 1
 111.375 803.0625 l 1
 330.25 803.0625 l 2
 335.875 803.0625 340.625 803 346.1875 803 c 0
 347.9375 803 349.4375 803 351.1875 803 c 2
 559 803 l 1
 461 695.25 l 1
 239.0625 695.25 l 1
 239 695.3125 l 1
 214.5625 695.3125 l 1
 111.3125 803.0625 l 1
163.4375 269.6875 m 1
 128.5625 296.625 l 1
 198.3125 350.5 l 1
 471.9375 350.5 l 1
 541.6875 296.625 l 1
 471.9375 242.75 l 1
 198.3125 242.75 l 1
 163.4375 269.6875 l 1
82.4375 278.1875 m 1
 190.1875 174.9375 l 1
 190.1875 150.5 l 1
 190.25 150.5 l 1
 190.25 -71.4375 l 1
 82.5 -169.4375 l 1
 82.5 38.3125 l 2
 82.5 40.0625 82.5 41.5625 82.5 43.3125 c 0
 82.5 48.875 82.4375 53.625 82.4375 59.25 c 2
 82.4375 278.125 l 1
 82.4375 278.1875 l 1
113.1875 -212.375 m 1
 216.4375 -104.625 l 1
 462.8125 -104.625 l 1
 560.8125 -212.375 l 1
 353 -212.375 l 2
 351.25 -212.375 349.75 -212.375 348 -212.375 c 0
 342.4375 -212.375 337.6875 -212.5 332.0625 -212.5 c 2
 113.1875 -212.5 l 1
 113.1875 -212.375 l 1
EndSplineSet
EndChar

StartChar: f
Encoding: 102 102 3
Width: 1000
VWidth: 0
Flags: W
HStem: 242.75 107.75<198.312 471.938> 695.25 107.812<214.562 239 239.062 461>
VStem: 82.4375 107.812<-71.4375 174.938 415.75 662.125>
LayerCount: 2
Back
Fore
SplineSet
80.5625 312.5 m 1
 80.5625 312.5625 l 1
 80.5625 531.4375 l 2
 80.5625 537.0625 80.625 541.8125 80.625 547.375 c 0
 80.625 549.125 80.625 550.625 80.625 552.375 c 2
 80.625 760.125 l 1
 188.375 662.125 l 1
 188.375 440.1875 l 1
 188.3125 440.1875 l 1
 188.3125 415.75 l 1
 80.5625 312.5 l 1
111.3125 803.0625 m 1
 111.375 803.0625 l 1
 330.25 803.0625 l 2
 335.875 803.0625 340.625 803 346.1875 803 c 0
 347.9375 803 349.4375 803 351.1875 803 c 2
 559 803 l 1
 461 695.25 l 1
 239.0625 695.25 l 1
 239 695.3125 l 1
 214.5625 695.3125 l 1
 111.3125 803.0625 l 1
163.4375 269.6875 m 1
 128.5625 296.625 l 1
 198.3125 350.5 l 1
 471.9375 350.5 l 1
 541.6875 296.625 l 1
 471.9375 242.75 l 1
 198.3125 242.75 l 1
 163.4375 269.6875 l 1
82.4375 278.1875 m 1
 190.1875 174.9375 l 1
 190.1875 150.5 l 1
 190.25 150.5 l 1
 190.25 -71.4375 l 1
 82.5 -169.4375 l 1
 82.5 38.3125 l 2
 82.5 40.0625 82.5 41.5625 82.5 43.3125 c 0
 82.5 48.875 82.4375 53.625 82.4375 59.25 c 2
 82.4375 278.125 l 1
 82.4375 278.1875 l 1
EndSplineSet
EndChar

StartChar: G
Encoding: 71 71 4
Width: 1000
VWidth: 0
Flags: HW
LayerCount: 2
Back
Fore
SplineSet
80.5625 312.5 m 1
 80.5625 312.5625 l 1
 80.5625 531.4375 l 2
 80.5625 537.0625 80.625 541.8125 80.625 547.375 c 0
 80.625 549.125 80.625 550.625 80.625 552.375 c 2
 80.625 760.125 l 1
 188.375 662.125 l 1
 188.375 440.1875 l 1
 188.3125 440.1875 l 1
 188.3125 415.75 l 1
 80.5625 312.5 l 1
111.3125 803.0625 m 1
 111.375 803.0625 l 1
 330.25 803.0625 l 2
 335.875 803.0625 340.625 803 346.1875 803 c 0
 347.9375 803 349.4375 803 351.1875 803 c 2
 559 803 l 1
 461 695.25 l 1
 239.0625 695.25 l 1
 239 695.3125 l 1
 214.5625 695.3125 l 1
 111.3125 803.0625 l 1
163.4375 269.6875 m 1
 128.5625 296.625 l 1
 198.3125 350.5 l 1
 471.9375 350.5 l 1
 541.6875 296.625 l 1
 471.9375 242.75 l 1
 198.3125 242.75 l 1
 163.4375 269.6875 l 1
591.5625 -169.4375 m 1
 483.8125 -66.1875 l 1
 483.8125 -41.75 l 1
 483.75 -41.75 l 1
 483.75 180.1875 l 1
 591.5 278.1875 l 1
 591.5 70.375 l 2
 591.5 68.625 591.5 67.125 591.5 65.375 c 0
 591.5 59.8125 591.5625 55.0625 591.5625 49.4375 c 2
 591.5625 -169.4375 l 1
82.4375 278.1875 m 1
 190.1875 174.9375 l 1
 190.1875 150.5 l 1
 190.25 150.5 l 1
 190.25 -71.4375 l 1
 82.5 -169.4375 l 1
 82.5 38.3125 l 2
 82.5 40.0625 82.5 41.5625 82.5 43.3125 c 0
 82.5 48.875 82.4375 53.625 82.4375 59.25 c 2
 82.4375 278.125 l 1
 82.4375 278.1875 l 1
113.1875 -212.375 m 1
 216.4375 -104.625 l 1
 462.8125 -104.625 l 1
 560.8125 -212.375 l 1
 353 -212.375 l 2
 351.25 -212.375 349.75 -212.375 348 -212.375 c 0
 342.4375 -212.375 337.6875 -212.5 332.0625 -212.5 c 2
 113.1875 -212.5 l 1
 113.1875 -212.375 l 1
EndSplineSet
EndChar

StartChar: H
Encoding: 72 72 5
Width: 1000
VWidth: 0
Flags: HW
LayerCount: 2
Back
Fore
SplineSet
589.6875 760.125 m 1
 589.6875 760.0625 l 1
 589.6875 541.1875 l 2
 589.6875 535.5625 589.625 530.8125 589.625 525.25 c 0
 589.625 523.5 589.625 522 589.625 520.25 c 2
 589.625 312.4375 l 1
 481.875 410.4375 l 1
 481.875 632.375 l 1
 481.9375 632.4375 l 1
 481.9375 656.875 l 1
 589.6875 760.125 l 1
80.5625 312.5 m 1
 80.5625 312.5625 l 1
 80.5625 531.4375 l 2
 80.5625 537.0625 80.625 541.8125 80.625 547.375 c 0
 80.625 549.125 80.625 550.625 80.625 552.375 c 2
 80.625 760.125 l 1
 188.375 662.125 l 1
 188.375 440.1875 l 1
 188.3125 440.1875 l 1
 188.3125 415.75 l 1
 80.5625 312.5 l 1
163.4375 269.6875 m 1
 128.5625 296.625 l 1
 198.3125 350.5 l 1
 471.9375 350.5 l 1
 541.6875 296.625 l 1
 471.9375 242.75 l 1
 198.3125 242.75 l 1
 163.4375 269.6875 l 1
591.5625 -169.4375 m 1
 483.8125 -66.1875 l 1
 483.8125 -41.75 l 1
 483.75 -41.75 l 1
 483.75 180.1875 l 1
 591.5 278.1875 l 1
 591.5 70.375 l 2
 591.5 68.625 591.5 67.125 591.5 65.375 c 0
 591.5 59.8125 591.5625 55.0625 591.5625 49.4375 c 2
 591.5625 -169.4375 l 1
82.4375 278.1875 m 1
 190.1875 174.9375 l 1
 190.1875 150.5 l 1
 190.25 150.5 l 1
 190.25 -71.4375 l 1
 82.5 -169.4375 l 1
 82.5 38.3125 l 2
 82.5 40.0625 82.5 41.5625 82.5 43.3125 c 0
 82.5 48.875 82.4375 53.625 82.4375 59.25 c 2
 82.4375 278.125 l 1
 82.4375 278.1875 l 1
EndSplineSet
EndChar

StartChar: h
Encoding: 104 104 6
Width: 1000
VWidth: 0
Flags: HW
LayerCount: 2
Back
Fore
SplineSet
589.6875 760.125 m 1
 589.6875 760.0625 l 1
 589.6875 541.1875 l 2
 589.6875 535.5625 589.625 530.8125 589.625 525.25 c 0
 589.625 523.5 589.625 522 589.625 520.25 c 2
 589.625 312.4375 l 1
 481.875 410.4375 l 1
 481.875 632.375 l 1
 481.9375 632.4375 l 1
 481.9375 656.875 l 1
 589.6875 760.125 l 1
80.5625 312.5 m 1
 80.5625 312.5625 l 1
 80.5625 531.4375 l 2
 80.5625 537.0625 80.625 541.8125 80.625 547.375 c 0
 80.625 549.125 80.625 550.625 80.625 552.375 c 2
 80.625 760.125 l 1
 188.375 662.125 l 1
 188.375 440.1875 l 1
 188.3125 440.1875 l 1
 188.3125 415.75 l 1
 80.5625 312.5 l 1
163.4375 269.6875 m 1
 128.5625 296.625 l 1
 198.3125 350.5 l 1
 471.9375 350.5 l 1
 541.6875 296.625 l 1
 471.9375 242.75 l 1
 198.3125 242.75 l 1
 163.4375 269.6875 l 1
591.5625 -169.4375 m 1
 483.8125 -66.1875 l 1
 483.8125 -41.75 l 1
 483.75 -41.75 l 1
 483.75 180.1875 l 1
 591.5 278.1875 l 1
 591.5 70.375 l 2
 591.5 68.625 591.5 67.125 591.5 65.375 c 0
 591.5 59.8125 591.5625 55.0625 591.5625 49.4375 c 2
 591.5625 -169.4375 l 1
82.4375 278.1875 m 1
 190.1875 174.9375 l 1
 190.1875 150.5 l 1
 190.25 150.5 l 1
 190.25 -71.4375 l 1
 82.5 -169.4375 l 1
 82.5 38.3125 l 2
 82.5 40.0625 82.5 41.5625 82.5 43.3125 c 0
 82.5 48.875 82.4375 53.625 82.4375 59.25 c 2
 82.4375 278.125 l 1
 82.4375 278.1875 l 1
EndSplineSet
EndChar

StartChar: g
Encoding: 103 103 7
Width: 1000
VWidth: 0
Flags: HW
LayerCount: 2
Back
Fore
SplineSet
80.5625 312.5 m 1
 80.5625 312.5625 l 1
 80.5625 531.4375 l 2
 80.5625 537.0625 80.625 541.8125 80.625 547.375 c 0
 80.625 549.125 80.625 550.625 80.625 552.375 c 2
 80.625 760.125 l 1
 188.375 662.125 l 1
 188.375 440.1875 l 1
 188.3125 440.1875 l 1
 188.3125 415.75 l 1
 80.5625 312.5 l 1
111.3125 803.0625 m 1
 111.375 803.0625 l 1
 330.25 803.0625 l 2
 335.875 803.0625 340.625 803 346.1875 803 c 0
 347.9375 803 349.4375 803 351.1875 803 c 2
 559 803 l 1
 461 695.25 l 1
 239.0625 695.25 l 1
 239 695.3125 l 1
 214.5625 695.3125 l 1
 111.3125 803.0625 l 1
163.4375 269.6875 m 1
 128.5625 296.625 l 1
 198.3125 350.5 l 1
 471.9375 350.5 l 1
 541.6875 296.625 l 1
 471.9375 242.75 l 1
 198.3125 242.75 l 1
 163.4375 269.6875 l 1
591.5625 -169.4375 m 1
 483.8125 -66.1875 l 1
 483.8125 -41.75 l 1
 483.75 -41.75 l 1
 483.75 180.1875 l 1
 591.5 278.1875 l 1
 591.5 70.375 l 2
 591.5 68.625 591.5 67.125 591.5 65.375 c 0
 591.5 59.8125 591.5625 55.0625 591.5625 49.4375 c 2
 591.5625 -169.4375 l 1
82.4375 278.1875 m 1
 190.1875 174.9375 l 1
 190.1875 150.5 l 1
 190.25 150.5 l 1
 190.25 -71.4375 l 1
 82.5 -169.4375 l 1
 82.5 38.3125 l 2
 82.5 40.0625 82.5 41.5625 82.5 43.3125 c 0
 82.5 48.875 82.4375 53.625 82.4375 59.25 c 2
 82.4375 278.125 l 1
 82.4375 278.1875 l 1
113.1875 -212.375 m 1
 216.4375 -104.625 l 1
 462.8125 -104.625 l 1
 560.8125 -212.375 l 1
 353 -212.375 l 2
 351.25 -212.375 349.75 -212.375 348 -212.375 c 0
 342.4375 -212.375 337.6875 -212.5 332.0625 -212.5 c 2
 113.1875 -212.5 l 1
 113.1875 -212.375 l 1
EndSplineSet
EndChar

StartChar: I
Encoding: 73 73 8
Width: 1000
VWidth: 0
Flags: H
LayerCount: 2
Back
Fore
SplineSet
589.6875 760.125 m 1
 589.6875 760.0625 l 1
 589.6875 541.1875 l 2
 589.6875 535.5625 589.625 530.8125 589.625 525.25 c 0
 589.625 523.5 589.625 522 589.625 520.25 c 2
 589.625 312.4375 l 1
 481.875 410.4375 l 1
 481.875 632.375 l 1
 481.9375 632.4375 l 1
 481.9375 656.875 l 1
 589.6875 760.125 l 1
591.5625 -169.4375 m 1
 483.8125 -66.1875 l 1
 483.8125 -41.75 l 1
 483.75 -41.75 l 1
 483.75 180.1875 l 1
 591.5 278.1875 l 1
 591.5 70.375 l 2
 591.5 68.625 591.5 67.125 591.5 65.375 c 0
 591.5 59.8125 591.5625 55.0625 591.5625 49.4375 c 2
 591.5625 -169.4375 l 1
EndSplineSet
EndChar

StartChar: i
Encoding: 105 105 9
Width: 1000
VWidth: 0
Flags: HW
LayerCount: 2
Back
Fore
SplineSet
589.6875 760.125 m 1
 589.6875 760.0625 l 1
 589.6875 541.1875 l 2
 589.6875 535.5625 589.625 530.8125 589.625 525.25 c 0
 589.625 523.5 589.625 522 589.625 520.25 c 2
 589.625 312.4375 l 1
 481.875 410.4375 l 1
 481.875 632.375 l 1
 481.9375 632.4375 l 1
 481.9375 656.875 l 1
 589.6875 760.125 l 1
591.5625 -169.4375 m 1
 483.8125 -66.1875 l 1
 483.8125 -41.75 l 1
 483.75 -41.75 l 1
 483.75 180.1875 l 1
 591.5 278.1875 l 1
 591.5 70.375 l 2
 591.5 68.625 591.5 67.125 591.5 65.375 c 0
 591.5 59.8125 591.5625 55.0625 591.5625 49.4375 c 2
 591.5625 -169.4375 l 1
EndSplineSet
EndChar

StartChar: one
Encoding: 49 49 10
Width: 1000
VWidth: 0
Flags: HW
LayerCount: 2
Back
Fore
SplineSet
589.6875 760.125 m 1
 589.6875 760.0625 l 1
 589.6875 541.1875 l 2
 589.6875 535.5625 589.625 530.8125 589.625 525.25 c 0
 589.625 523.5 589.625 522 589.625 520.25 c 2
 589.625 312.4375 l 1
 481.875 410.4375 l 1
 481.875 632.375 l 1
 481.9375 632.4375 l 1
 481.9375 656.875 l 1
 589.6875 760.125 l 1
591.5625 -169.4375 m 1
 483.8125 -66.1875 l 1
 483.8125 -41.75 l 1
 483.75 -41.75 l 1
 483.75 180.1875 l 1
 591.5 278.1875 l 1
 591.5 70.375 l 2
 591.5 68.625 591.5 67.125 591.5 65.375 c 0
 591.5 59.8125 591.5625 55.0625 591.5625 49.4375 c 2
 591.5625 -169.4375 l 1
EndSplineSet
EndChar

StartChar: eight
Encoding: 56 56 11
Width: 1000
VWidth: 0
Flags: HW
LayerCount: 2
Back
Fore
SplineSet
589.6875 760.125 m 1
 589.6875 760.0625 l 1
 589.6875 541.1875 l 2
 589.6875 535.5625 589.625 530.8125 589.625 525.25 c 0
 589.625 523.5 589.625 522 589.625 520.25 c 2
 589.625 312.4375 l 1
 481.875 410.4375 l 1
 481.875 632.375 l 1
 481.9375 632.4375 l 1
 481.9375 656.875 l 1
 589.6875 760.125 l 1
80.5625 312.5 m 1
 80.5625 312.5625 l 1
 80.5625 531.4375 l 2
 80.5625 537.0625 80.625 541.8125 80.625 547.375 c 0
 80.625 549.125 80.625 550.625 80.625 552.375 c 2
 80.625 760.125 l 1
 188.375 662.125 l 1
 188.375 440.1875 l 1
 188.3125 440.1875 l 1
 188.3125 415.75 l 1
 80.5625 312.5 l 1
111.3125 803.0625 m 1
 111.375 803.0625 l 1
 330.25 803.0625 l 2
 335.875 803.0625 340.625 803 346.1875 803 c 0
 347.9375 803 349.4375 803 351.1875 803 c 2
 559 803 l 1
 461 695.25 l 1
 239.0625 695.25 l 1
 239 695.3125 l 1
 214.5625 695.3125 l 1
 111.3125 803.0625 l 1
163.4375 269.6875 m 1
 128.5625 296.625 l 1
 198.3125 350.5 l 1
 471.9375 350.5 l 1
 541.6875 296.625 l 1
 471.9375 242.75 l 1
 198.3125 242.75 l 1
 163.4375 269.6875 l 1
591.5625 -169.4375 m 1
 483.8125 -66.1875 l 1
 483.8125 -41.75 l 1
 483.75 -41.75 l 1
 483.75 180.1875 l 1
 591.5 278.1875 l 1
 591.5 70.375 l 2
 591.5 68.625 591.5 67.125 591.5 65.375 c 0
 591.5 59.8125 591.5625 55.0625 591.5625 49.4375 c 2
 591.5625 -169.4375 l 1
82.4375 278.1875 m 1
 190.1875 174.9375 l 1
 190.1875 150.5 l 1
 190.25 150.5 l 1
 190.25 -71.4375 l 1
 82.5 -169.4375 l 1
 82.5 38.3125 l 2
 82.5 40.0625 82.5 41.5625 82.5 43.3125 c 0
 82.5 48.875 82.4375 53.625 82.4375 59.25 c 2
 82.4375 278.125 l 1
 82.4375 278.1875 l 1
113.1875 -212.375 m 1
 216.4375 -104.625 l 1
 462.8125 -104.625 l 1
 560.8125 -212.375 l 1
 353 -212.375 l 2
 351.25 -212.375 349.75 -212.375 348 -212.375 c 0
 342.4375 -212.375 337.6875 -212.5 332.0625 -212.5 c 2
 113.1875 -212.5 l 1
 113.1875 -212.375 l 1
EndSplineSet
EndChar

StartChar: o
Encoding: 111 111 12
Width: 1000
VWidth: 0
Flags: H
LayerCount: 2
Back
Fore
SplineSet
589.6875 760.125 m 1
 589.6875 760.0625 l 1
 589.6875 541.1875 l 2
 589.6875 535.5625 589.625 530.8125 589.625 525.25 c 0
 589.625 523.5 589.625 522 589.625 520.25 c 2
 589.625 312.4375 l 1
 481.875 410.4375 l 1
 481.875 632.375 l 1
 481.9375 632.4375 l 1
 481.9375 656.875 l 1
 589.6875 760.125 l 1
80.5625 312.5 m 1
 80.5625 312.5625 l 1
 80.5625 531.4375 l 2
 80.5625 537.0625 80.625 541.8125 80.625 547.375 c 0
 80.625 549.125 80.625 550.625 80.625 552.375 c 2
 80.625 760.125 l 1
 188.375 662.125 l 1
 188.375 440.1875 l 1
 188.3125 440.1875 l 1
 188.3125 415.75 l 1
 80.5625 312.5 l 1
111.3125 803.0625 m 1
 111.375 803.0625 l 1
 330.25 803.0625 l 2
 335.875 803.0625 340.625 803 346.1875 803 c 0
 347.9375 803 349.4375 803 351.1875 803 c 2
 559 803 l 1
 461 695.25 l 1
 239.0625 695.25 l 1
 239 695.3125 l 1
 214.5625 695.3125 l 1
 111.3125 803.0625 l 1
591.5625 -169.4375 m 1
 483.8125 -66.1875 l 1
 483.8125 -41.75 l 1
 483.75 -41.75 l 1
 483.75 180.1875 l 1
 591.5 278.1875 l 1
 591.5 70.375 l 2
 591.5 68.625 591.5 67.125 591.5 65.375 c 0
 591.5 59.8125 591.5625 55.0625 591.5625 49.4375 c 2
 591.5625 -169.4375 l 1
82.4375 278.1875 m 1
 190.1875 174.9375 l 1
 190.1875 150.5 l 1
 190.25 150.5 l 1
 190.25 -71.4375 l 1
 82.5 -169.4375 l 1
 82.5 38.3125 l 2
 82.5 40.0625 82.5 41.5625 82.5 43.3125 c 0
 82.5 48.875 82.4375 53.625 82.4375 59.25 c 2
 82.4375 278.125 l 1
 82.4375 278.1875 l 1
113.1875 -212.375 m 1
 216.4375 -104.625 l 1
 462.8125 -104.625 l 1
 560.8125 -212.375 l 1
 353 -212.375 l 2
 351.25 -212.375 349.75 -212.375 348 -212.375 c 0
 342.4375 -212.375 337.6875 -212.5 332.0625 -212.5 c 2
 113.1875 -212.5 l 1
 113.1875 -212.375 l 1
EndSplineSet
EndChar

StartChar: O
Encoding: 79 79 13
Width: 1000
VWidth: 0
Flags: HW
LayerCount: 2
Back
Fore
SplineSet
589.6875 760.125 m 1
 589.6875 760.0625 l 1
 589.6875 541.1875 l 2
 589.6875 535.5625 589.625 530.8125 589.625 525.25 c 0
 589.625 523.5 589.625 522 589.625 520.25 c 2
 589.625 312.4375 l 1
 481.875 410.4375 l 1
 481.875 632.375 l 1
 481.9375 632.4375 l 1
 481.9375 656.875 l 1
 589.6875 760.125 l 1
80.5625 312.5 m 1
 80.5625 312.5625 l 1
 80.5625 531.4375 l 2
 80.5625 537.0625 80.625 541.8125 80.625 547.375 c 0
 80.625 549.125 80.625 550.625 80.625 552.375 c 2
 80.625 760.125 l 1
 188.375 662.125 l 1
 188.375 440.1875 l 1
 188.3125 440.1875 l 1
 188.3125 415.75 l 1
 80.5625 312.5 l 1
111.3125 803.0625 m 1
 111.375 803.0625 l 1
 330.25 803.0625 l 2
 335.875 803.0625 340.625 803 346.1875 803 c 0
 347.9375 803 349.4375 803 351.1875 803 c 2
 559 803 l 1
 461 695.25 l 1
 239.0625 695.25 l 1
 239 695.3125 l 1
 214.5625 695.3125 l 1
 111.3125 803.0625 l 1
591.5625 -169.4375 m 1
 483.8125 -66.1875 l 1
 483.8125 -41.75 l 1
 483.75 -41.75 l 1
 483.75 180.1875 l 1
 591.5 278.1875 l 1
 591.5 70.375 l 2
 591.5 68.625 591.5 67.125 591.5 65.375 c 0
 591.5 59.8125 591.5625 55.0625 591.5625 49.4375 c 2
 591.5625 -169.4375 l 1
82.4375 278.1875 m 1
 190.1875 174.9375 l 1
 190.1875 150.5 l 1
 190.25 150.5 l 1
 190.25 -71.4375 l 1
 82.5 -169.4375 l 1
 82.5 38.3125 l 2
 82.5 40.0625 82.5 41.5625 82.5 43.3125 c 0
 82.5 48.875 82.4375 53.625 82.4375 59.25 c 2
 82.4375 278.125 l 1
 82.4375 278.1875 l 1
113.1875 -212.375 m 1
 216.4375 -104.625 l 1
 462.8125 -104.625 l 1
 560.8125 -212.375 l 1
 353 -212.375 l 2
 351.25 -212.375 349.75 -212.375 348 -212.375 c 0
 342.4375 -212.375 337.6875 -212.5 332.0625 -212.5 c 2
 113.1875 -212.5 l 1
 113.1875 -212.375 l 1
EndSplineSet
EndChar

StartChar: zero
Encoding: 48 48 14
Width: 1000
VWidth: 0
Flags: HW
LayerCount: 2
Back
Fore
SplineSet
589.6875 760.125 m 1
 589.6875 760.0625 l 1
 589.6875 541.1875 l 2
 589.6875 535.5625 589.625 530.8125 589.625 525.25 c 0
 589.625 523.5 589.625 522 589.625 520.25 c 2
 589.625 312.4375 l 1
 481.875 410.4375 l 1
 481.875 632.375 l 1
 481.9375 632.4375 l 1
 481.9375 656.875 l 1
 589.6875 760.125 l 1
80.5625 312.5 m 1
 80.5625 312.5625 l 1
 80.5625 531.4375 l 2
 80.5625 537.0625 80.625 541.8125 80.625 547.375 c 0
 80.625 549.125 80.625 550.625 80.625 552.375 c 2
 80.625 760.125 l 1
 188.375 662.125 l 1
 188.375 440.1875 l 1
 188.3125 440.1875 l 1
 188.3125 415.75 l 1
 80.5625 312.5 l 1
111.3125 803.0625 m 1
 111.375 803.0625 l 1
 330.25 803.0625 l 2
 335.875 803.0625 340.625 803 346.1875 803 c 0
 347.9375 803 349.4375 803 351.1875 803 c 2
 559 803 l 1
 461 695.25 l 1
 239.0625 695.25 l 1
 239 695.3125 l 1
 214.5625 695.3125 l 1
 111.3125 803.0625 l 1
591.5625 -169.4375 m 1
 483.8125 -66.1875 l 1
 483.8125 -41.75 l 1
 483.75 -41.75 l 1
 483.75 180.1875 l 1
 591.5 278.1875 l 1
 591.5 70.375 l 2
 591.5 68.625 591.5 67.125 591.5 65.375 c 0
 591.5 59.8125 591.5625 55.0625 591.5625 49.4375 c 2
 591.5625 -169.4375 l 1
82.4375 278.1875 m 1
 190.1875 174.9375 l 1
 190.1875 150.5 l 1
 190.25 150.5 l 1
 190.25 -71.4375 l 1
 82.5 -169.4375 l 1
 82.5 38.3125 l 2
 82.5 40.0625 82.5 41.5625 82.5 43.3125 c 0
 82.5 48.875 82.4375 53.625 82.4375 59.25 c 2
 82.4375 278.125 l 1
 82.4375 278.1875 l 1
113.1875 -212.375 m 1
 216.4375 -104.625 l 1
 462.8125 -104.625 l 1
 560.8125 -212.375 l 1
 353 -212.375 l 2
 351.25 -212.375 349.75 -212.375 348 -212.375 c 0
 342.4375 -212.375 337.6875 -212.5 332.0625 -212.5 c 2
 113.1875 -212.5 l 1
 113.1875 -212.375 l 1
EndSplineSet
EndChar

StartChar: B
Encoding: 66 66 15
Width: 1000
VWidth: 0
Flags: HW
LayerCount: 2
Back
Fore
SplineSet
589.6875 760.125 m 5
 589.6875 760.0625 l 5
 589.6875 541.1875 l 6
 589.6875 535.5625 589.625 530.8125 589.625 525.25 c 4
 589.625 523.5 589.625 522 589.625 520.25 c 6
 589.625 312.4375 l 5
 481.875 410.4375 l 5
 481.875 632.375 l 5
 481.9375 632.4375 l 5
 481.9375 656.875 l 5
 589.6875 760.125 l 5
80.5625 312.5 m 5
 80.5625 312.5625 l 5
 80.5625 531.4375 l 6
 80.5625 537.0625 80.625 541.8125 80.625 547.375 c 4
 80.625 549.125 80.625 550.625 80.625 552.375 c 6
 80.625 760.125 l 5
 188.375 662.125 l 5
 188.375 440.1875 l 5
 188.3125 440.1875 l 5
 188.3125 415.75 l 5
 80.5625 312.5 l 5
111.3125 803.0625 m 5
 111.375 803.0625 l 5
 330.25 803.0625 l 6
 335.875 803.0625 340.625 803 346.1875 803 c 4
 347.9375 803 349.4375 803 351.1875 803 c 6
 559 803 l 5
 461 695.25 l 5
 239.0625 695.25 l 5
 239 695.3125 l 5
 214.5625 695.3125 l 5
 111.3125 803.0625 l 5
163.4375 269.6875 m 5
 128.5625 296.625 l 5
 198.3125 350.5 l 5
 471.9375 350.5 l 5
 541.6875 296.625 l 5
 471.9375 242.75 l 5
 198.3125 242.75 l 5
 163.4375 269.6875 l 5
591.5625 -169.4375 m 5
 483.8125 -66.1875 l 5
 483.8125 -41.75 l 5
 483.75 -41.75 l 5
 483.75 180.1875 l 5
 591.5 278.1875 l 5
 591.5 70.375 l 6
 591.5 68.625 591.5 67.125 591.5 65.375 c 4
 591.5 59.8125 591.5625 55.0625 591.5625 49.4375 c 6
 591.5625 -169.4375 l 5
82.4375 278.1875 m 5
 190.1875 174.9375 l 5
 190.1875 150.5 l 5
 190.25 150.5 l 5
 190.25 -71.4375 l 5
 82.5 -169.4375 l 5
 82.5 38.3125 l 6
 82.5 40.0625 82.5 41.5625 82.5 43.3125 c 4
 82.5 48.875 82.4375 53.625 82.4375 59.25 c 6
 82.4375 278.125 l 5
 82.4375 278.1875 l 5
113.1875 -212.375 m 5
 216.4375 -104.625 l 5
 462.8125 -104.625 l 5
 560.8125 -212.375 l 5
 353 -212.375 l 6
 351.25 -212.375 349.75 -212.375 348 -212.375 c 4
 342.4375 -212.375 337.6875 -212.5 332.0625 -212.5 c 6
 113.1875 -212.5 l 5
 113.1875 -212.375 l 5
EndSplineSet
EndChar

StartChar: D
Encoding: 68 68 16
Width: 1000
VWidth: 0
Flags: HW
LayerCount: 2
Back
Fore
SplineSet
589.6875 760.125 m 1
 589.6875 760.0625 l 1
 589.6875 541.1875 l 2
 589.6875 535.5625 589.625 530.8125 589.625 525.25 c 0
 589.625 523.5 589.625 522 589.625 520.25 c 2
 589.625 312.4375 l 1
 481.875 410.4375 l 1
 481.875 632.375 l 1
 481.9375 632.4375 l 1
 481.9375 656.875 l 1
 589.6875 760.125 l 1
80.5625 312.5 m 1
 80.5625 312.5625 l 1
 80.5625 531.4375 l 2
 80.5625 537.0625 80.625 541.8125 80.625 547.375 c 0
 80.625 549.125 80.625 550.625 80.625 552.375 c 2
 80.625 760.125 l 1
 188.375 662.125 l 1
 188.375 440.1875 l 1
 188.3125 440.1875 l 1
 188.3125 415.75 l 1
 80.5625 312.5 l 1
111.3125 803.0625 m 1
 111.375 803.0625 l 1
 330.25 803.0625 l 2
 335.875 803.0625 340.625 803 346.1875 803 c 0
 347.9375 803 349.4375 803 351.1875 803 c 2
 559 803 l 1
 461 695.25 l 1
 239.0625 695.25 l 1
 239 695.3125 l 1
 214.5625 695.3125 l 1
 111.3125 803.0625 l 1
591.5625 -169.4375 m 1
 483.8125 -66.1875 l 1
 483.8125 -41.75 l 1
 483.75 -41.75 l 1
 483.75 180.1875 l 1
 591.5 278.1875 l 1
 591.5 70.375 l 2
 591.5 68.625 591.5 67.125 591.5 65.375 c 0
 591.5 59.8125 591.5625 55.0625 591.5625 49.4375 c 2
 591.5625 -169.4375 l 1
82.4375 278.1875 m 1
 190.1875 174.9375 l 1
 190.1875 150.5 l 1
 190.25 150.5 l 1
 190.25 -71.4375 l 1
 82.5 -169.4375 l 1
 82.5 38.3125 l 2
 82.5 40.0625 82.5 41.5625 82.5 43.3125 c 0
 82.5 48.875 82.4375 53.625 82.4375 59.25 c 2
 82.4375 278.125 l 1
 82.4375 278.1875 l 1
113.1875 -212.375 m 1
 216.4375 -104.625 l 1
 462.8125 -104.625 l 1
 560.8125 -212.375 l 1
 353 -212.375 l 2
 351.25 -212.375 349.75 -212.375 348 -212.375 c 0
 342.4375 -212.375 337.6875 -212.5 332.0625 -212.5 c 2
 113.1875 -212.5 l 1
 113.1875 -212.375 l 1
EndSplineSet
EndChar

StartChar: d
Encoding: 100 100 17
Width: 1000
VWidth: 0
Flags: HW
LayerCount: 2
Back
Fore
SplineSet
589.6875 760.125 m 1
 589.6875 760.0625 l 1
 589.6875 541.1875 l 2
 589.6875 535.5625 589.625 530.8125 589.625 525.25 c 0
 589.625 523.5 589.625 522 589.625 520.25 c 2
 589.625 312.4375 l 1
 481.875 410.4375 l 1
 481.875 632.375 l 1
 481.9375 632.4375 l 1
 481.9375 656.875 l 1
 589.6875 760.125 l 1
80.5625 312.5 m 1
 80.5625 312.5625 l 1
 80.5625 531.4375 l 2
 80.5625 537.0625 80.625 541.8125 80.625 547.375 c 0
 80.625 549.125 80.625 550.625 80.625 552.375 c 2
 80.625 760.125 l 1
 188.375 662.125 l 1
 188.375 440.1875 l 1
 188.3125 440.1875 l 1
 188.3125 415.75 l 1
 80.5625 312.5 l 1
111.3125 803.0625 m 1
 111.375 803.0625 l 1
 330.25 803.0625 l 2
 335.875 803.0625 340.625 803 346.1875 803 c 0
 347.9375 803 349.4375 803 351.1875 803 c 2
 559 803 l 1
 461 695.25 l 1
 239.0625 695.25 l 1
 239 695.3125 l 1
 214.5625 695.3125 l 1
 111.3125 803.0625 l 1
591.5625 -169.4375 m 1
 483.8125 -66.1875 l 1
 483.8125 -41.75 l 1
 483.75 -41.75 l 1
 483.75 180.1875 l 1
 591.5 278.1875 l 1
 591.5 70.375 l 2
 591.5 68.625 591.5 67.125 591.5 65.375 c 0
 591.5 59.8125 591.5625 55.0625 591.5625 49.4375 c 2
 591.5625 -169.4375 l 1
82.4375 278.1875 m 1
 190.1875 174.9375 l 1
 190.1875 150.5 l 1
 190.25 150.5 l 1
 190.25 -71.4375 l 1
 82.5 -169.4375 l 1
 82.5 38.3125 l 2
 82.5 40.0625 82.5 41.5625 82.5 43.3125 c 0
 82.5 48.875 82.4375 53.625 82.4375 59.25 c 2
 82.4375 278.125 l 1
 82.4375 278.1875 l 1
113.1875 -212.375 m 1
 216.4375 -104.625 l 1
 462.8125 -104.625 l 1
 560.8125 -212.375 l 1
 353 -212.375 l 2
 351.25 -212.375 349.75 -212.375 348 -212.375 c 0
 342.4375 -212.375 337.6875 -212.5 332.0625 -212.5 c 2
 113.1875 -212.5 l 1
 113.1875 -212.375 l 1
EndSplineSet
EndChar

StartChar: b
Encoding: 98 98 18
Width: 1000
VWidth: 0
Flags: HW
LayerCount: 2
Back
Fore
SplineSet
589.6875 760.125 m 1
 589.6875 760.0625 l 1
 589.6875 541.1875 l 2
 589.6875 535.5625 589.625 530.8125 589.625 525.25 c 0
 589.625 523.5 589.625 522 589.625 520.25 c 2
 589.625 312.4375 l 1
 481.875 410.4375 l 1
 481.875 632.375 l 1
 481.9375 632.4375 l 1
 481.9375 656.875 l 1
 589.6875 760.125 l 1
80.5625 312.5 m 1
 80.5625 312.5625 l 1
 80.5625 531.4375 l 2
 80.5625 537.0625 80.625 541.8125 80.625 547.375 c 0
 80.625 549.125 80.625 550.625 80.625 552.375 c 2
 80.625 760.125 l 1
 188.375 662.125 l 1
 188.375 440.1875 l 1
 188.3125 440.1875 l 1
 188.3125 415.75 l 1
 80.5625 312.5 l 1
111.3125 803.0625 m 1
 111.375 803.0625 l 1
 330.25 803.0625 l 2
 335.875 803.0625 340.625 803 346.1875 803 c 0
 347.9375 803 349.4375 803 351.1875 803 c 2
 559 803 l 1
 461 695.25 l 1
 239.0625 695.25 l 1
 239 695.3125 l 1
 214.5625 695.3125 l 1
 111.3125 803.0625 l 1
163.4375 269.6875 m 1
 128.5625 296.625 l 1
 198.3125 350.5 l 1
 471.9375 350.5 l 1
 541.6875 296.625 l 1
 471.9375 242.75 l 1
 198.3125 242.75 l 1
 163.4375 269.6875 l 1
591.5625 -169.4375 m 1
 483.8125 -66.1875 l 1
 483.8125 -41.75 l 1
 483.75 -41.75 l 1
 483.75 180.1875 l 1
 591.5 278.1875 l 1
 591.5 70.375 l 2
 591.5 68.625 591.5 67.125 591.5 65.375 c 0
 591.5 59.8125 591.5625 55.0625 591.5625 49.4375 c 2
 591.5625 -169.4375 l 1
82.4375 278.1875 m 1
 190.1875 174.9375 l 1
 190.1875 150.5 l 1
 190.25 150.5 l 1
 190.25 -71.4375 l 1
 82.5 -169.4375 l 1
 82.5 38.3125 l 2
 82.5 40.0625 82.5 41.5625 82.5 43.3125 c 0
 82.5 48.875 82.4375 53.625 82.4375 59.25 c 2
 82.4375 278.125 l 1
 82.4375 278.1875 l 1
113.1875 -212.375 m 1
 216.4375 -104.625 l 1
 462.8125 -104.625 l 1
 560.8125 -212.375 l 1
 353 -212.375 l 2
 351.25 -212.375 349.75 -212.375 348 -212.375 c 0
 342.4375 -212.375 337.6875 -212.5 332.0625 -212.5 c 2
 113.1875 -212.5 l 1
 113.1875 -212.375 l 1
EndSplineSet
EndChar

StartChar: c
Encoding: 99 99 19
Width: 1000
VWidth: 0
Flags: HW
LayerCount: 2
Back
Fore
SplineSet
80.5625 312.5 m 1
 80.5625 312.5625 l 1
 80.5625 531.4375 l 2
 80.5625 537.0625 80.625 541.8125 80.625 547.375 c 0
 80.625 549.125 80.625 550.625 80.625 552.375 c 2
 80.625 760.125 l 1
 188.375 662.125 l 1
 188.375 440.1875 l 1
 188.3125 440.1875 l 1
 188.3125 415.75 l 1
 80.5625 312.5 l 1
111.3125 803.0625 m 1
 111.375 803.0625 l 1
 330.25 803.0625 l 2
 335.875 803.0625 340.625 803 346.1875 803 c 0
 347.9375 803 349.4375 803 351.1875 803 c 2
 559 803 l 1
 461 695.25 l 1
 239.0625 695.25 l 1
 239 695.3125 l 1
 214.5625 695.3125 l 1
 111.3125 803.0625 l 1
82.4375 278.1875 m 1
 190.1875 174.9375 l 1
 190.1875 150.5 l 1
 190.25 150.5 l 1
 190.25 -71.4375 l 1
 82.5 -169.4375 l 1
 82.5 38.3125 l 2
 82.5 40.0625 82.5 41.5625 82.5 43.3125 c 0
 82.5 48.875 82.4375 53.625 82.4375 59.25 c 2
 82.4375 278.125 l 1
 82.4375 278.1875 l 1
113.1875 -212.375 m 1
 216.4375 -104.625 l 1
 462.8125 -104.625 l 1
 560.8125 -212.375 l 1
 353 -212.375 l 2
 351.25 -212.375 349.75 -212.375 348 -212.375 c 0
 342.4375 -212.375 337.6875 -212.5 332.0625 -212.5 c 2
 113.1875 -212.5 l 1
 113.1875 -212.375 l 1
EndSplineSet
EndChar

StartChar: C
Encoding: 67 67 20
Width: 1000
VWidth: 0
Flags: HW
LayerCount: 2
Back
Fore
SplineSet
80.5625 312.5 m 1
 80.5625 312.5625 l 1
 80.5625 531.4375 l 2
 80.5625 537.0625 80.625 541.8125 80.625 547.375 c 0
 80.625 549.125 80.625 550.625 80.625 552.375 c 2
 80.625 760.125 l 1
 188.375 662.125 l 1
 188.375 440.1875 l 1
 188.3125 440.1875 l 1
 188.3125 415.75 l 1
 80.5625 312.5 l 1
111.3125 803.0625 m 1
 111.375 803.0625 l 1
 330.25 803.0625 l 2
 335.875 803.0625 340.625 803 346.1875 803 c 0
 347.9375 803 349.4375 803 351.1875 803 c 2
 559 803 l 1
 461 695.25 l 1
 239.0625 695.25 l 1
 239 695.3125 l 1
 214.5625 695.3125 l 1
 111.3125 803.0625 l 1
82.4375 278.1875 m 1
 190.1875 174.9375 l 1
 190.1875 150.5 l 1
 190.25 150.5 l 1
 190.25 -71.4375 l 1
 82.5 -169.4375 l 1
 82.5 38.3125 l 2
 82.5 40.0625 82.5 41.5625 82.5 43.3125 c 0
 82.5 48.875 82.4375 53.625 82.4375 59.25 c 2
 82.4375 278.125 l 1
 82.4375 278.1875 l 1
113.1875 -212.375 m 1
 216.4375 -104.625 l 1
 462.8125 -104.625 l 1
 560.8125 -212.375 l 1
 353 -212.375 l 2
 351.25 -212.375 349.75 -212.375 348 -212.375 c 0
 342.4375 -212.375 337.6875 -212.5 332.0625 -212.5 c 2
 113.1875 -212.5 l 1
 113.1875 -212.375 l 1
EndSplineSet
EndChar

StartChar: A
Encoding: 65 65 21
Width: 1000
VWidth: 0
Flags: HW
LayerCount: 2
Back
Fore
SplineSet
589.6875 760.125 m 1
 589.6875 760.0625 l 1
 589.6875 541.1875 l 2
 589.6875 535.5625 589.625 530.8125 589.625 525.25 c 0
 589.625 523.5 589.625 522 589.625 520.25 c 2
 589.625 312.4375 l 1
 481.875 410.4375 l 1
 481.875 632.375 l 1
 481.9375 632.4375 l 1
 481.9375 656.875 l 1
 589.6875 760.125 l 1
80.5625 312.5 m 1
 80.5625 312.5625 l 1
 80.5625 531.4375 l 2
 80.5625 537.0625 80.625 541.8125 80.625 547.375 c 0
 80.625 549.125 80.625 550.625 80.625 552.375 c 2
 80.625 760.125 l 1
 188.375 662.125 l 1
 188.375 440.1875 l 1
 188.3125 440.1875 l 1
 188.3125 415.75 l 1
 80.5625 312.5 l 1
111.3125 803.0625 m 1
 111.375 803.0625 l 1
 330.25 803.0625 l 2
 335.875 803.0625 340.625 803 346.1875 803 c 0
 347.9375 803 349.4375 803 351.1875 803 c 2
 559 803 l 1
 461 695.25 l 1
 239.0625 695.25 l 1
 239 695.3125 l 1
 214.5625 695.3125 l 1
 111.3125 803.0625 l 1
163.4375 269.6875 m 1
 128.5625 296.625 l 1
 198.3125 350.5 l 1
 471.9375 350.5 l 1
 541.6875 296.625 l 1
 471.9375 242.75 l 1
 198.3125 242.75 l 1
 163.4375 269.6875 l 1
591.5625 -169.4375 m 1
 483.8125 -66.1875 l 1
 483.8125 -41.75 l 1
 483.75 -41.75 l 1
 483.75 180.1875 l 1
 591.5 278.1875 l 1
 591.5 70.375 l 2
 591.5 68.625 591.5 67.125 591.5 65.375 c 0
 591.5 59.8125 591.5625 55.0625 591.5625 49.4375 c 2
 591.5625 -169.4375 l 1
82.4375 278.1875 m 1
 190.1875 174.9375 l 1
 190.1875 150.5 l 1
 190.25 150.5 l 1
 190.25 -71.4375 l 1
 82.5 -169.4375 l 1
 82.5 38.3125 l 2
 82.5 40.0625 82.5 41.5625 82.5 43.3125 c 0
 82.5 48.875 82.4375 53.625 82.4375 59.25 c 2
 82.4375 278.125 l 1
 82.4375 278.1875 l 1
EndSplineSet
EndChar

StartChar: a
Encoding: 97 97 22
Width: 1000
VWidth: 0
Flags: HW
LayerCount: 2
Back
Fore
SplineSet
589.6875 760.125 m 1
 589.6875 760.0625 l 1
 589.6875 541.1875 l 2
 589.6875 535.5625 589.625 530.8125 589.625 525.25 c 0
 589.625 523.5 589.625 522 589.625 520.25 c 2
 589.625 312.4375 l 1
 481.875 410.4375 l 1
 481.875 632.375 l 1
 481.9375 632.4375 l 1
 481.9375 656.875 l 1
 589.6875 760.125 l 1
80.5625 312.5 m 1
 80.5625 312.5625 l 1
 80.5625 531.4375 l 2
 80.5625 537.0625 80.625 541.8125 80.625 547.375 c 0
 80.625 549.125 80.625 550.625 80.625 552.375 c 2
 80.625 760.125 l 1
 188.375 662.125 l 1
 188.375 440.1875 l 1
 188.3125 440.1875 l 1
 188.3125 415.75 l 1
 80.5625 312.5 l 1
111.3125 803.0625 m 1
 111.375 803.0625 l 1
 330.25 803.0625 l 2
 335.875 803.0625 340.625 803 346.1875 803 c 0
 347.9375 803 349.4375 803 351.1875 803 c 2
 559 803 l 1
 461 695.25 l 1
 239.0625 695.25 l 1
 239 695.3125 l 1
 214.5625 695.3125 l 1
 111.3125 803.0625 l 1
163.4375 269.6875 m 1
 128.5625 296.625 l 1
 198.3125 350.5 l 1
 471.9375 350.5 l 1
 541.6875 296.625 l 1
 471.9375 242.75 l 1
 198.3125 242.75 l 1
 163.4375 269.6875 l 1
591.5625 -169.4375 m 1
 483.8125 -66.1875 l 1
 483.8125 -41.75 l 1
 483.75 -41.75 l 1
 483.75 180.1875 l 1
 591.5 278.1875 l 1
 591.5 70.375 l 2
 591.5 68.625 591.5 67.125 591.5 65.375 c 0
 591.5 59.8125 591.5625 55.0625 591.5625 49.4375 c 2
 591.5625 -169.4375 l 1
82.4375 278.1875 m 1
 190.1875 174.9375 l 1
 190.1875 150.5 l 1
 190.25 150.5 l 1
 190.25 -71.4375 l 1
 82.5 -169.4375 l 1
 82.5 38.3125 l 2
 82.5 40.0625 82.5 41.5625 82.5 43.3125 c 0
 82.5 48.875 82.4375 53.625 82.4375 59.25 c 2
 82.4375 278.125 l 1
 82.4375 278.1875 l 1
EndSplineSet
EndChar

StartChar: l
Encoding: 108 108 23
Width: 1000
VWidth: 0
Flags: HW
LayerCount: 2
Back
Fore
SplineSet
80.5625 312.5 m 1
 80.5625 312.5625 l 1
 80.5625 531.4375 l 2
 80.5625 537.0625 80.625 541.8125 80.625 547.375 c 0
 80.625 549.125 80.625 550.625 80.625 552.375 c 2
 80.625 760.125 l 1
 188.375 662.125 l 1
 188.375 440.1875 l 1
 188.3125 440.1875 l 1
 188.3125 415.75 l 1
 80.5625 312.5 l 1
82.4375 278.1875 m 1
 190.1875 174.9375 l 1
 190.1875 150.5 l 1
 190.25 150.5 l 1
 190.25 -71.4375 l 1
 82.5 -169.4375 l 1
 82.5 38.3125 l 2
 82.5 40.0625 82.5 41.5625 82.5 43.3125 c 0
 82.5 48.875 82.4375 53.625 82.4375 59.25 c 2
 82.4375 278.125 l 1
 82.4375 278.1875 l 1
113.1875 -212.375 m 1
 216.4375 -104.625 l 1
 462.8125 -104.625 l 1
 560.8125 -212.375 l 1
 353 -212.375 l 2
 351.25 -212.375 349.75 -212.375 348 -212.375 c 0
 342.4375 -212.375 337.6875 -212.5 332.0625 -212.5 c 2
 113.1875 -212.5 l 1
 113.1875 -212.375 l 1
EndSplineSet
EndChar

StartChar: L
Encoding: 76 76 24
Width: 1000
VWidth: 0
Flags: HW
LayerCount: 2
Back
Fore
SplineSet
80.5625 312.5 m 1
 80.5625 312.5625 l 1
 80.5625 531.4375 l 2
 80.5625 537.0625 80.625 541.8125 80.625 547.375 c 0
 80.625 549.125 80.625 550.625 80.625 552.375 c 2
 80.625 760.125 l 1
 188.375 662.125 l 1
 188.375 440.1875 l 1
 188.3125 440.1875 l 1
 188.3125 415.75 l 1
 80.5625 312.5 l 1
82.4375 278.1875 m 1
 190.1875 174.9375 l 1
 190.1875 150.5 l 1
 190.25 150.5 l 1
 190.25 -71.4375 l 1
 82.5 -169.4375 l 1
 82.5 38.3125 l 2
 82.5 40.0625 82.5 41.5625 82.5 43.3125 c 0
 82.5 48.875 82.4375 53.625 82.4375 59.25 c 2
 82.4375 278.125 l 1
 82.4375 278.1875 l 1
113.1875 -212.375 m 1
 216.4375 -104.625 l 1
 462.8125 -104.625 l 1
 560.8125 -212.375 l 1
 353 -212.375 l 2
 351.25 -212.375 349.75 -212.375 348 -212.375 c 0
 342.4375 -212.375 337.6875 -212.5 332.0625 -212.5 c 2
 113.1875 -212.5 l 1
 113.1875 -212.375 l 1
EndSplineSet
EndChar

StartChar: two
Encoding: 50 50 25
Width: 1000
VWidth: 0
Flags: H
LayerCount: 2
Back
Fore
SplineSet
589.6875 760.125 m 1
 589.6875 760.0625 l 1
 589.6875 541.1875 l 2
 589.6875 535.5625 589.625 530.8125 589.625 525.25 c 0
 589.625 523.5 589.625 522 589.625 520.25 c 2
 589.625 312.4375 l 1
 481.875 410.4375 l 1
 481.875 632.375 l 1
 481.9375 632.4375 l 1
 481.9375 656.875 l 1
 589.6875 760.125 l 1
111.3125 803.0625 m 1
 111.375 803.0625 l 1
 330.25 803.0625 l 2
 335.875 803.0625 340.625 803 346.1875 803 c 0
 347.9375 803 349.4375 803 351.1875 803 c 2
 559 803 l 1
 461 695.25 l 1
 239.0625 695.25 l 1
 239 695.3125 l 1
 214.5625 695.3125 l 1
 111.3125 803.0625 l 1
163.4375 269.6875 m 1
 128.5625 296.625 l 1
 198.3125 350.5 l 1
 471.9375 350.5 l 1
 541.6875 296.625 l 1
 471.9375 242.75 l 1
 198.3125 242.75 l 1
 163.4375 269.6875 l 1
82.4375 278.1875 m 1
 190.1875 174.9375 l 1
 190.1875 150.5 l 1
 190.25 150.5 l 1
 190.25 -71.4375 l 1
 82.5 -169.4375 l 1
 82.5 38.3125 l 2
 82.5 40.0625 82.5 41.5625 82.5 43.3125 c 0
 82.5 48.875 82.4375 53.625 82.4375 59.25 c 2
 82.4375 278.125 l 1
 82.4375 278.1875 l 1
113.1875 -212.375 m 1
 216.4375 -104.625 l 1
 462.8125 -104.625 l 1
 560.8125 -212.375 l 1
 353 -212.375 l 2
 351.25 -212.375 349.75 -212.375 348 -212.375 c 0
 342.4375 -212.375 337.6875 -212.5 332.0625 -212.5 c 2
 113.1875 -212.5 l 1
 113.1875 -212.375 l 1
EndSplineSet
EndChar

StartChar: five
Encoding: 53 53 26
Width: 1000
VWidth: 0
Flags: HW
LayerCount: 2
Back
Fore
SplineSet
80.5625 312.5 m 1
 80.5625 312.5625 l 1
 80.5625 531.4375 l 2
 80.5625 537.0625 80.625 541.8125 80.625 547.375 c 0
 80.625 549.125 80.625 550.625 80.625 552.375 c 2
 80.625 760.125 l 1
 188.375 662.125 l 1
 188.375 440.1875 l 1
 188.3125 440.1875 l 1
 188.3125 415.75 l 1
 80.5625 312.5 l 1
111.3125 803.0625 m 1
 111.375 803.0625 l 1
 330.25 803.0625 l 2
 335.875 803.0625 340.625 803 346.1875 803 c 0
 347.9375 803 349.4375 803 351.1875 803 c 2
 559 803 l 1
 461 695.25 l 1
 239.0625 695.25 l 1
 239 695.3125 l 1
 214.5625 695.3125 l 1
 111.3125 803.0625 l 1
163.4375 269.6875 m 1
 128.5625 296.625 l 1
 198.3125 350.5 l 1
 471.9375 350.5 l 1
 541.6875 296.625 l 1
 471.9375 242.75 l 1
 198.3125 242.75 l 1
 163.4375 269.6875 l 1
591.5625 -169.4375 m 1
 483.8125 -66.1875 l 1
 483.8125 -41.75 l 1
 483.75 -41.75 l 1
 483.75 180.1875 l 1
 591.5 278.1875 l 1
 591.5 70.375 l 2
 591.5 68.625 591.5 67.125 591.5 65.375 c 0
 591.5 59.8125 591.5625 55.0625 591.5625 49.4375 c 2
 591.5625 -169.4375 l 1
113.1875 -212.375 m 1
 216.4375 -104.625 l 1
 462.8125 -104.625 l 1
 560.8125 -212.375 l 1
 353 -212.375 l 2
 351.25 -212.375 349.75 -212.375 348 -212.375 c 0
 342.4375 -212.375 337.6875 -212.5 332.0625 -212.5 c 2
 113.1875 -212.5 l 1
 113.1875 -212.375 l 1
EndSplineSet
EndChar

StartChar: three
Encoding: 51 51 27
Width: 1000
VWidth: 0
Flags: H
LayerCount: 2
Back
Fore
SplineSet
589.6875 760.125 m 1
 589.6875 760.0625 l 1
 589.6875 541.1875 l 2
 589.6875 535.5625 589.625 530.8125 589.625 525.25 c 0
 589.625 523.5 589.625 522 589.625 520.25 c 2
 589.625 312.4375 l 1
 481.875 410.4375 l 1
 481.875 632.375 l 1
 481.9375 632.4375 l 1
 481.9375 656.875 l 1
 589.6875 760.125 l 1
111.3125 803.0625 m 1
 111.375 803.0625 l 1
 330.25 803.0625 l 2
 335.875 803.0625 340.625 803 346.1875 803 c 0
 347.9375 803 349.4375 803 351.1875 803 c 2
 559 803 l 1
 461 695.25 l 1
 239.0625 695.25 l 1
 239 695.3125 l 1
 214.5625 695.3125 l 1
 111.3125 803.0625 l 1
163.4375 269.6875 m 1
 128.5625 296.625 l 1
 198.3125 350.5 l 1
 471.9375 350.5 l 1
 541.6875 296.625 l 1
 471.9375 242.75 l 1
 198.3125 242.75 l 1
 163.4375 269.6875 l 1
591.5625 -169.4375 m 1
 483.8125 -66.1875 l 1
 483.8125 -41.75 l 1
 483.75 -41.75 l 1
 483.75 180.1875 l 1
 591.5 278.1875 l 1
 591.5 70.375 l 2
 591.5 68.625 591.5 67.125 591.5 65.375 c 0
 591.5 59.8125 591.5625 55.0625 591.5625 49.4375 c 2
 591.5625 -169.4375 l 1
113.1875 -212.375 m 1
 216.4375 -104.625 l 1
 462.8125 -104.625 l 1
 560.8125 -212.375 l 1
 353 -212.375 l 2
 351.25 -212.375 349.75 -212.375 348 -212.375 c 0
 342.4375 -212.375 337.6875 -212.5 332.0625 -212.5 c 2
 113.1875 -212.5 l 1
 113.1875 -212.375 l 1
EndSplineSet
EndChar

StartChar: four
Encoding: 52 52 28
Width: 1000
VWidth: 0
Flags: H
LayerCount: 2
Back
Fore
SplineSet
589.6875 760.125 m 5
 589.6875 760.0625 l 5
 589.6875 541.1875 l 6
 589.6875 535.5625 589.625 530.8125 589.625 525.25 c 4
 589.625 523.5 589.625 522 589.625 520.25 c 6
 589.625 312.4375 l 5
 481.875 410.4375 l 5
 481.875 632.375 l 5
 481.9375 632.4375 l 5
 481.9375 656.875 l 5
 589.6875 760.125 l 5
80.5625 312.5 m 5
 80.5625 312.5625 l 5
 80.5625 531.4375 l 6
 80.5625 537.0625 80.625 541.8125 80.625 547.375 c 4
 80.625 549.125 80.625 550.625 80.625 552.375 c 6
 80.625 760.125 l 5
 188.375 662.125 l 5
 188.375 440.1875 l 5
 188.3125 440.1875 l 5
 188.3125 415.75 l 5
 80.5625 312.5 l 5
163.4375 269.6875 m 5
 128.5625 296.625 l 5
 198.3125 350.5 l 5
 471.9375 350.5 l 5
 541.6875 296.625 l 5
 471.9375 242.75 l 5
 198.3125 242.75 l 5
 163.4375 269.6875 l 5
591.5625 -169.4375 m 5
 483.8125 -66.1875 l 5
 483.8125 -41.75 l 5
 483.75 -41.75 l 5
 483.75 180.1875 l 5
 591.5 278.1875 l 5
 591.5 70.375 l 6
 591.5 68.625 591.5 67.125 591.5 65.375 c 4
 591.5 59.8125 591.5625 55.0625 591.5625 49.4375 c 6
 591.5625 -169.4375 l 5
EndSplineSet
EndChar

StartChar: six
Encoding: 54 54 29
Width: 1000
VWidth: 0
Flags: H
LayerCount: 2
Back
Fore
SplineSet
80.5625 312.5 m 1
 80.5625 312.5625 l 1
 80.5625 531.4375 l 2
 80.5625 537.0625 80.625 541.8125 80.625 547.375 c 0
 80.625 549.125 80.625 550.625 80.625 552.375 c 2
 80.625 760.125 l 1
 188.375 662.125 l 1
 188.375 440.1875 l 1
 188.3125 440.1875 l 1
 188.3125 415.75 l 1
 80.5625 312.5 l 1
111.3125 803.0625 m 1
 111.375 803.0625 l 1
 330.25 803.0625 l 2
 335.875 803.0625 340.625 803 346.1875 803 c 0
 347.9375 803 349.4375 803 351.1875 803 c 2
 559 803 l 1
 461 695.25 l 1
 239.0625 695.25 l 1
 239 695.3125 l 1
 214.5625 695.3125 l 1
 111.3125 803.0625 l 1
163.4375 269.6875 m 1
 128.5625 296.625 l 1
 198.3125 350.5 l 1
 471.9375 350.5 l 1
 541.6875 296.625 l 1
 471.9375 242.75 l 1
 198.3125 242.75 l 1
 163.4375 269.6875 l 1
591.5625 -169.4375 m 1
 483.8125 -66.1875 l 1
 483.8125 -41.75 l 1
 483.75 -41.75 l 1
 483.75 180.1875 l 1
 591.5 278.1875 l 1
 591.5 70.375 l 2
 591.5 68.625 591.5 67.125 591.5 65.375 c 0
 591.5 59.8125 591.5625 55.0625 591.5625 49.4375 c 2
 591.5625 -169.4375 l 1
82.4375 278.1875 m 1
 190.1875 174.9375 l 1
 190.1875 150.5 l 1
 190.25 150.5 l 1
 190.25 -71.4375 l 1
 82.5 -169.4375 l 1
 82.5 38.3125 l 2
 82.5 40.0625 82.5 41.5625 82.5 43.3125 c 0
 82.5 48.875 82.4375 53.625 82.4375 59.25 c 2
 82.4375 278.125 l 1
 82.4375 278.1875 l 1
113.1875 -212.375 m 1
 216.4375 -104.625 l 1
 462.8125 -104.625 l 1
 560.8125 -212.375 l 1
 353 -212.375 l 2
 351.25 -212.375 349.75 -212.375 348 -212.375 c 0
 342.4375 -212.375 337.6875 -212.5 332.0625 -212.5 c 2
 113.1875 -212.5 l 1
 113.1875 -212.375 l 1
EndSplineSet
EndChar

StartChar: seven
Encoding: 55 55 30
Width: 1000
VWidth: 0
Flags: H
LayerCount: 2
Back
Fore
SplineSet
589.6875 760.125 m 1
 589.6875 760.0625 l 1
 589.6875 541.1875 l 2
 589.6875 535.5625 589.625 530.8125 589.625 525.25 c 0
 589.625 523.5 589.625 522 589.625 520.25 c 2
 589.625 312.4375 l 1
 481.875 410.4375 l 1
 481.875 632.375 l 1
 481.9375 632.4375 l 1
 481.9375 656.875 l 1
 589.6875 760.125 l 1
111.3125 803.0625 m 1
 111.375 803.0625 l 1
 330.25 803.0625 l 2
 335.875 803.0625 340.625 803 346.1875 803 c 0
 347.9375 803 349.4375 803 351.1875 803 c 2
 559 803 l 1
 461 695.25 l 1
 239.0625 695.25 l 1
 239 695.3125 l 1
 214.5625 695.3125 l 1
 111.3125 803.0625 l 1
591.5625 -169.4375 m 1
 483.8125 -66.1875 l 1
 483.8125 -41.75 l 1
 483.75 -41.75 l 1
 483.75 180.1875 l 1
 591.5 278.1875 l 1
 591.5 70.375 l 2
 591.5 68.625 591.5 67.125 591.5 65.375 c 0
 591.5 59.8125 591.5625 55.0625 591.5625 49.4375 c 2
 591.5625 -169.4375 l 1
EndSplineSet
EndChar

StartChar: nine
Encoding: 57 57 31
Width: 1000
VWidth: 0
Flags: H
LayerCount: 2
Back
Fore
SplineSet
589.6875 760.125 m 1
 589.6875 760.0625 l 1
 589.6875 541.1875 l 2
 589.6875 535.5625 589.625 530.8125 589.625 525.25 c 0
 589.625 523.5 589.625 522 589.625 520.25 c 2
 589.625 312.4375 l 1
 481.875 410.4375 l 1
 481.875 632.375 l 1
 481.9375 632.4375 l 1
 481.9375 656.875 l 1
 589.6875 760.125 l 1
80.5625 312.5 m 1
 80.5625 312.5625 l 1
 80.5625 531.4375 l 2
 80.5625 537.0625 80.625 541.8125 80.625 547.375 c 0
 80.625 549.125 80.625 550.625 80.625 552.375 c 2
 80.625 760.125 l 1
 188.375 662.125 l 1
 188.375 440.1875 l 1
 188.3125 440.1875 l 1
 188.3125 415.75 l 1
 80.5625 312.5 l 1
111.3125 803.0625 m 1
 111.375 803.0625 l 1
 330.25 803.0625 l 2
 335.875 803.0625 340.625 803 346.1875 803 c 0
 347.9375 803 349.4375 803 351.1875 803 c 2
 559 803 l 1
 461 695.25 l 1
 239.0625 695.25 l 1
 239 695.3125 l 1
 214.5625 695.3125 l 1
 111.3125 803.0625 l 1
163.4375 269.6875 m 1
 128.5625 296.625 l 1
 198.3125 350.5 l 1
 471.9375 350.5 l 1
 541.6875 296.625 l 1
 471.9375 242.75 l 1
 198.3125 242.75 l 1
 163.4375 269.6875 l 1
591.5625 -169.4375 m 1
 483.8125 -66.1875 l 1
 483.8125 -41.75 l 1
 483.75 -41.75 l 1
 483.75 180.1875 l 1
 591.5 278.1875 l 1
 591.5 70.375 l 2
 591.5 68.625 591.5 67.125 591.5 65.375 c 0
 591.5 59.8125 591.5625 55.0625 591.5625 49.4375 c 2
 591.5625 -169.4375 l 1
EndSplineSet
EndChar

StartChar: P
Encoding: 80 80 32
Width: 1000
VWidth: 0
Flags: HW
LayerCount: 2
Back
Fore
SplineSet
589.6875 760.125 m 1
 589.6875 760.0625 l 1
 589.6875 541.1875 l 2
 589.6875 535.5625 589.625 530.8125 589.625 525.25 c 0
 589.625 523.5 589.625 522 589.625 520.25 c 2
 589.625 312.4375 l 1
 481.875 410.4375 l 1
 481.875 632.375 l 1
 481.9375 632.4375 l 1
 481.9375 656.875 l 1
 589.6875 760.125 l 1
80.5625 312.5 m 1
 80.5625 312.5625 l 1
 80.5625 531.4375 l 2
 80.5625 537.0625 80.625 541.8125 80.625 547.375 c 0
 80.625 549.125 80.625 550.625 80.625 552.375 c 2
 80.625 760.125 l 1
 188.375 662.125 l 1
 188.375 440.1875 l 1
 188.3125 440.1875 l 1
 188.3125 415.75 l 1
 80.5625 312.5 l 1
111.3125 803.0625 m 1
 111.375 803.0625 l 1
 330.25 803.0625 l 2
 335.875 803.0625 340.625 803 346.1875 803 c 0
 347.9375 803 349.4375 803 351.1875 803 c 2
 559 803 l 1
 461 695.25 l 1
 239.0625 695.25 l 1
 239 695.3125 l 1
 214.5625 695.3125 l 1
 111.3125 803.0625 l 1
163.4375 269.6875 m 1
 128.5625 296.625 l 1
 198.3125 350.5 l 1
 471.9375 350.5 l 1
 541.6875 296.625 l 1
 471.9375 242.75 l 1
 198.3125 242.75 l 1
 163.4375 269.6875 l 1
82.4375 278.1875 m 1
 190.1875 174.9375 l 1
 190.1875 150.5 l 1
 190.25 150.5 l 1
 190.25 -71.4375 l 1
 82.5 -169.4375 l 1
 82.5 38.3125 l 2
 82.5 40.0625 82.5 41.5625 82.5 43.3125 c 0
 82.5 48.875 82.4375 53.625 82.4375 59.25 c 2
 82.4375 278.125 l 1
 82.4375 278.1875 l 1
EndSplineSet
EndChar

StartChar: p
Encoding: 112 112 33
Width: 1000
VWidth: 0
Flags: HW
LayerCount: 2
Back
Fore
SplineSet
589.6875 760.125 m 1
 589.6875 760.0625 l 1
 589.6875 541.1875 l 2
 589.6875 535.5625 589.625 530.8125 589.625 525.25 c 0
 589.625 523.5 589.625 522 589.625 520.25 c 2
 589.625 312.4375 l 1
 481.875 410.4375 l 1
 481.875 632.375 l 1
 481.9375 632.4375 l 1
 481.9375 656.875 l 1
 589.6875 760.125 l 1
80.5625 312.5 m 1
 80.5625 312.5625 l 1
 80.5625 531.4375 l 2
 80.5625 537.0625 80.625 541.8125 80.625 547.375 c 0
 80.625 549.125 80.625 550.625 80.625 552.375 c 2
 80.625 760.125 l 1
 188.375 662.125 l 1
 188.375 440.1875 l 1
 188.3125 440.1875 l 1
 188.3125 415.75 l 1
 80.5625 312.5 l 1
111.3125 803.0625 m 1
 111.375 803.0625 l 1
 330.25 803.0625 l 2
 335.875 803.0625 340.625 803 346.1875 803 c 0
 347.9375 803 349.4375 803 351.1875 803 c 2
 559 803 l 1
 461 695.25 l 1
 239.0625 695.25 l 1
 239 695.3125 l 1
 214.5625 695.3125 l 1
 111.3125 803.0625 l 1
163.4375 269.6875 m 1
 128.5625 296.625 l 1
 198.3125 350.5 l 1
 471.9375 350.5 l 1
 541.6875 296.625 l 1
 471.9375 242.75 l 1
 198.3125 242.75 l 1
 163.4375 269.6875 l 1
82.4375 278.1875 m 1
 190.1875 174.9375 l 1
 190.1875 150.5 l 1
 190.25 150.5 l 1
 190.25 -71.4375 l 1
 82.5 -169.4375 l 1
 82.5 38.3125 l 2
 82.5 40.0625 82.5 41.5625 82.5 43.3125 c 0
 82.5 48.875 82.4375 53.625 82.4375 59.25 c 2
 82.4375 278.125 l 1
 82.4375 278.1875 l 1
EndSplineSet
EndChar

StartChar: S
Encoding: 83 83 34
Width: 1000
VWidth: 0
Flags: HW
LayerCount: 2
Back
Fore
SplineSet
80.5625 312.5 m 1
 80.5625 312.5625 l 1
 80.5625 531.4375 l 2
 80.5625 537.0625 80.625 541.8125 80.625 547.375 c 0
 80.625 549.125 80.625 550.625 80.625 552.375 c 2
 80.625 760.125 l 1
 188.375 662.125 l 1
 188.375 440.1875 l 1
 188.3125 440.1875 l 1
 188.3125 415.75 l 1
 80.5625 312.5 l 1
111.3125 803.0625 m 1
 111.375 803.0625 l 1
 330.25 803.0625 l 2
 335.875 803.0625 340.625 803 346.1875 803 c 0
 347.9375 803 349.4375 803 351.1875 803 c 2
 559 803 l 1
 461 695.25 l 1
 239.0625 695.25 l 1
 239 695.3125 l 1
 214.5625 695.3125 l 1
 111.3125 803.0625 l 1
163.4375 269.6875 m 1
 128.5625 296.625 l 1
 198.3125 350.5 l 1
 471.9375 350.5 l 1
 541.6875 296.625 l 1
 471.9375 242.75 l 1
 198.3125 242.75 l 1
 163.4375 269.6875 l 1
591.5625 -169.4375 m 1
 483.8125 -66.1875 l 1
 483.8125 -41.75 l 1
 483.75 -41.75 l 1
 483.75 180.1875 l 1
 591.5 278.1875 l 1
 591.5 70.375 l 2
 591.5 68.625 591.5 67.125 591.5 65.375 c 0
 591.5 59.8125 591.5625 55.0625 591.5625 49.4375 c 2
 591.5625 -169.4375 l 1
113.1875 -212.375 m 1
 216.4375 -104.625 l 1
 462.8125 -104.625 l 1
 560.8125 -212.375 l 1
 353 -212.375 l 2
 351.25 -212.375 349.75 -212.375 348 -212.375 c 0
 342.4375 -212.375 337.6875 -212.5 332.0625 -212.5 c 2
 113.1875 -212.5 l 1
 113.1875 -212.375 l 1
EndSplineSet
EndChar

StartChar: s
Encoding: 115 115 35
Width: 1000
VWidth: 0
Flags: HW
LayerCount: 2
Back
Fore
SplineSet
80.5625 312.5 m 1
 80.5625 312.5625 l 1
 80.5625 531.4375 l 2
 80.5625 537.0625 80.625 541.8125 80.625 547.375 c 0
 80.625 549.125 80.625 550.625 80.625 552.375 c 2
 80.625 760.125 l 1
 188.375 662.125 l 1
 188.375 440.1875 l 1
 188.3125 440.1875 l 1
 188.3125 415.75 l 1
 80.5625 312.5 l 1
111.3125 803.0625 m 1
 111.375 803.0625 l 1
 330.25 803.0625 l 2
 335.875 803.0625 340.625 803 346.1875 803 c 0
 347.9375 803 349.4375 803 351.1875 803 c 2
 559 803 l 1
 461 695.25 l 1
 239.0625 695.25 l 1
 239 695.3125 l 1
 214.5625 695.3125 l 1
 111.3125 803.0625 l 1
163.4375 269.6875 m 1
 128.5625 296.625 l 1
 198.3125 350.5 l 1
 471.9375 350.5 l 1
 541.6875 296.625 l 1
 471.9375 242.75 l 1
 198.3125 242.75 l 1
 163.4375 269.6875 l 1
591.5625 -169.4375 m 1
 483.8125 -66.1875 l 1
 483.8125 -41.75 l 1
 483.75 -41.75 l 1
 483.75 180.1875 l 1
 591.5 278.1875 l 1
 591.5 70.375 l 2
 591.5 68.625 591.5 67.125 591.5 65.375 c 0
 591.5 59.8125 591.5625 55.0625 591.5625 49.4375 c 2
 591.5625 -169.4375 l 1
113.1875 -212.375 m 1
 216.4375 -104.625 l 1
 462.8125 -104.625 l 1
 560.8125 -212.375 l 1
 353 -212.375 l 2
 351.25 -212.375 349.75 -212.375 348 -212.375 c 0
 342.4375 -212.375 337.6875 -212.5 332.0625 -212.5 c 2
 113.1875 -212.5 l 1
 113.1875 -212.375 l 1
EndSplineSet
EndChar

StartChar: U
Encoding: 85 85 36
Width: 1000
VWidth: 0
Flags: HW
LayerCount: 2
Back
Fore
SplineSet
589.6875 760.125 m 1
 589.6875 760.0625 l 1
 589.6875 541.1875 l 2
 589.6875 535.5625 589.625 530.8125 589.625 525.25 c 0
 589.625 523.5 589.625 522 589.625 520.25 c 2
 589.625 312.4375 l 1
 481.875 410.4375 l 1
 481.875 632.375 l 1
 481.9375 632.4375 l 1
 481.9375 656.875 l 1
 589.6875 760.125 l 1
80.5625 312.5 m 1
 80.5625 312.5625 l 1
 80.5625 531.4375 l 2
 80.5625 537.0625 80.625 541.8125 80.625 547.375 c 0
 80.625 549.125 80.625 550.625 80.625 552.375 c 2
 80.625 760.125 l 1
 188.375 662.125 l 1
 188.375 440.1875 l 1
 188.3125 440.1875 l 1
 188.3125 415.75 l 1
 80.5625 312.5 l 1
591.5625 -169.4375 m 1
 483.8125 -66.1875 l 1
 483.8125 -41.75 l 1
 483.75 -41.75 l 1
 483.75 180.1875 l 1
 591.5 278.1875 l 1
 591.5 70.375 l 2
 591.5 68.625 591.5 67.125 591.5 65.375 c 0
 591.5 59.8125 591.5625 55.0625 591.5625 49.4375 c 2
 591.5625 -169.4375 l 1
82.4375 278.1875 m 1
 190.1875 174.9375 l 1
 190.1875 150.5 l 1
 190.25 150.5 l 1
 190.25 -71.4375 l 1
 82.5 -169.4375 l 1
 82.5 38.3125 l 2
 82.5 40.0625 82.5 41.5625 82.5 43.3125 c 0
 82.5 48.875 82.4375 53.625 82.4375 59.25 c 2
 82.4375 278.125 l 1
 82.4375 278.1875 l 1
113.1875 -212.375 m 1
 216.4375 -104.625 l 1
 462.8125 -104.625 l 1
 560.8125 -212.375 l 1
 353 -212.375 l 2
 351.25 -212.375 349.75 -212.375 348 -212.375 c 0
 342.4375 -212.375 337.6875 -212.5 332.0625 -212.5 c 2
 113.1875 -212.5 l 1
 113.1875 -212.375 l 1
EndSplineSet
EndChar

StartChar: u
Encoding: 117 117 37
Width: 1000
VWidth: 0
Flags: HW
LayerCount: 2
Back
Fore
SplineSet
589.6875 760.125 m 1
 589.6875 760.0625 l 1
 589.6875 541.1875 l 2
 589.6875 535.5625 589.625 530.8125 589.625 525.25 c 0
 589.625 523.5 589.625 522 589.625 520.25 c 2
 589.625 312.4375 l 1
 481.875 410.4375 l 1
 481.875 632.375 l 1
 481.9375 632.4375 l 1
 481.9375 656.875 l 1
 589.6875 760.125 l 1
80.5625 312.5 m 1
 80.5625 312.5625 l 1
 80.5625 531.4375 l 2
 80.5625 537.0625 80.625 541.8125 80.625 547.375 c 0
 80.625 549.125 80.625 550.625 80.625 552.375 c 2
 80.625 760.125 l 1
 188.375 662.125 l 1
 188.375 440.1875 l 1
 188.3125 440.1875 l 1
 188.3125 415.75 l 1
 80.5625 312.5 l 1
591.5625 -169.4375 m 1
 483.8125 -66.1875 l 1
 483.8125 -41.75 l 1
 483.75 -41.75 l 1
 483.75 180.1875 l 1
 591.5 278.1875 l 1
 591.5 70.375 l 2
 591.5 68.625 591.5 67.125 591.5 65.375 c 0
 591.5 59.8125 591.5625 55.0625 591.5625 49.4375 c 2
 591.5625 -169.4375 l 1
82.4375 278.1875 m 1
 190.1875 174.9375 l 1
 190.1875 150.5 l 1
 190.25 150.5 l 1
 190.25 -71.4375 l 1
 82.5 -169.4375 l 1
 82.5 38.3125 l 2
 82.5 40.0625 82.5 41.5625 82.5 43.3125 c 0
 82.5 48.875 82.4375 53.625 82.4375 59.25 c 2
 82.4375 278.125 l 1
 82.4375 278.1875 l 1
113.1875 -212.375 m 1
 216.4375 -104.625 l 1
 462.8125 -104.625 l 1
 560.8125 -212.375 l 1
 353 -212.375 l 2
 351.25 -212.375 349.75 -212.375 348 -212.375 c 0
 342.4375 -212.375 337.6875 -212.5 332.0625 -212.5 c 2
 113.1875 -212.5 l 1
 113.1875 -212.375 l 1
EndSplineSet
EndChar

StartChar: R
Encoding: 82 82 38
Width: 1000
VWidth: 0
Flags: HW
LayerCount: 2
Back
Fore
SplineSet
414.123046875 175.2578125 m 5
 567.495117188 14.841796875 l 5
 557.337890625 -130.454101562 l 5
 413.770507812 19.7080078125 l 6
 412.560546875 20.9716796875 411.524414062 22.056640625 410.315429688 23.3212890625 c 4
 406.470703125 27.341796875 403.143554688 30.732421875 399.255859375 34.796875 c 6
 248 193 l 5
 247.95703125 193.044921875 l 1029
247.95703125 193.044921875 m 5
 397.189453125 192.87890625 l 5
 414.077148438 175.21484375 l 5
 414.123046875 175.2578125 l 5
 567.495117188 14.841796875 l 5
 557.337890625 -130.454101562 l 5
 413.770507812 19.7080078125 l 6
 412.560546875 20.9716796875 411.524414062 22.056640625 410.315429688 23.3212890625 c 4
 406.470703125 27.341796875 403.143554688 30.732421875 399.255859375 34.796875 c 6
 248 193 l 5
 247.95703125 193.044921875 l 5
537.716796875 48.1484375 m 1025
190.25 150.5 m 1
 190.25 -71.4375 l 1
 82.5 -169.4375 l 1
 82.5 38.3125 l 2
 82.5 40.0625 82.5 41.5625 82.5 43.3125 c 0
 82.5 48.875 82.4375 53.625 82.4375 59.25 c 2
 82.4375 278.125 l 1
 82.4375 278.1875 l 1025
589.6875 760.125 m 1
 589.6875 760.0625 l 1
 589.6875 541.1875 l 2
 589.6875 535.5625 589.625 530.8125 589.625 525.25 c 0
 589.625 523.5 589.625 522 589.625 520.25 c 2
 589.625 312.4375 l 1
 481.875 410.4375 l 1
 481.875 632.375 l 1
 481.9375 632.4375 l 1
 481.9375 656.875 l 1
 589.6875 760.125 l 1
80.5625 312.5 m 1
 80.5625 312.5625 l 1
 80.5625 531.4375 l 2
 80.5625 537.0625 80.625 541.8125 80.625 547.375 c 0
 80.625 549.125 80.625 550.625 80.625 552.375 c 2
 80.625 760.125 l 1
 188.375 662.125 l 1
 188.375 440.1875 l 1
 188.3125 440.1875 l 1
 188.3125 415.75 l 1
 80.5625 312.5 l 1
111.3125 803.0625 m 1
 111.375 803.0625 l 1
 330.25 803.0625 l 2
 335.875 803.0625 340.625 803 346.1875 803 c 0
 347.9375 803 349.4375 803 351.1875 803 c 2
 559 803 l 1
 461 695.25 l 1
 239.0625 695.25 l 1
 239 695.3125 l 1
 214.5625 695.3125 l 1
 111.3125 803.0625 l 1
163.4375 269.6875 m 1
 128.5625 296.625 l 1
 198.3125 350.5 l 1
 471.9375 350.5 l 1
 541.6875 296.625 l 1
 471.9375 242.75 l 1
 198.3125 242.75 l 1
 163.4375 269.6875 l 1
82.4375 278.1875 m 1
 190.1875 174.9375 l 1
 190.1875 150.5 l 1
 190.25 150.5 l 1
 190.25 -71.4375 l 1
 82.5 -169.4375 l 1
 82.5 38.3125 l 2
 82.5 40.0625 82.5 41.5625 82.5 43.3125 c 0
 82.5 48.875 82.4375 53.625 82.4375 59.25 c 2
 82.4375 278.125 l 1
 82.4375 278.1875 l 1
EndSplineSet
EndChar

StartChar: r
Encoding: 114 114 39
Width: 1000
VWidth: 0
Flags: HW
LayerCount: 2
Back
Fore
SplineSet
414.123046875 175.2578125 m 5
 567.495117188 14.841796875 l 5
 557.337890625 -130.454101562 l 5
 413.770507812 19.7080078125 l 6
 412.560546875 20.9716796875 411.524414062 22.056640625 410.315429688 23.3212890625 c 4
 406.470703125 27.341796875 403.143554688 30.732421875 399.255859375 34.796875 c 6
 248 193 l 5
 247.95703125 193.044921875 l 1029
247.95703125 193.044921875 m 5
 397.189453125 192.87890625 l 5
 414.077148438 175.21484375 l 5
 414.123046875 175.2578125 l 5
 567.495117188 14.841796875 l 5
 557.337890625 -130.454101562 l 5
 413.770507812 19.7080078125 l 6
 412.560546875 20.9716796875 411.524414062 22.056640625 410.315429688 23.3212890625 c 4
 406.470703125 27.341796875 403.143554688 30.732421875 399.255859375 34.796875 c 6
 248 193 l 5
 247.95703125 193.044921875 l 5
537.716796875 48.1484375 m 1025
190.25 150.5 m 1
 190.25 -71.4375 l 1
 82.5 -169.4375 l 1
 82.5 38.3125 l 2
 82.5 40.0625 82.5 41.5625 82.5 43.3125 c 0
 82.5 48.875 82.4375 53.625 82.4375 59.25 c 2
 82.4375 278.125 l 1
 82.4375 278.1875 l 1025
589.6875 760.125 m 1
 589.6875 760.0625 l 1
 589.6875 541.1875 l 2
 589.6875 535.5625 589.625 530.8125 589.625 525.25 c 0
 589.625 523.5 589.625 522 589.625 520.25 c 2
 589.625 312.4375 l 1
 481.875 410.4375 l 1
 481.875 632.375 l 1
 481.9375 632.4375 l 1
 481.9375 656.875 l 1
 589.6875 760.125 l 1
80.5625 312.5 m 1
 80.5625 312.5625 l 1
 80.5625 531.4375 l 2
 80.5625 537.0625 80.625 541.8125 80.625 547.375 c 0
 80.625 549.125 80.625 550.625 80.625 552.375 c 2
 80.625 760.125 l 1
 188.375 662.125 l 1
 188.375 440.1875 l 1
 188.3125 440.1875 l 1
 188.3125 415.75 l 1
 80.5625 312.5 l 1
111.3125 803.0625 m 1
 111.375 803.0625 l 1
 330.25 803.0625 l 2
 335.875 803.0625 340.625 803 346.1875 803 c 0
 347.9375 803 349.4375 803 351.1875 803 c 2
 559 803 l 1
 461 695.25 l 1
 239.0625 695.25 l 1
 239 695.3125 l 1
 214.5625 695.3125 l 1
 111.3125 803.0625 l 1
163.4375 269.6875 m 1
 128.5625 296.625 l 1
 198.3125 350.5 l 1
 471.9375 350.5 l 1
 541.6875 296.625 l 1
 471.9375 242.75 l 1
 198.3125 242.75 l 1
 163.4375 269.6875 l 1
82.4375 278.1875 m 1
 190.1875 174.9375 l 1
 190.1875 150.5 l 1
 190.25 150.5 l 1
 190.25 -71.4375 l 1
 82.5 -169.4375 l 1
 82.5 38.3125 l 2
 82.5 40.0625 82.5 41.5625 82.5 43.3125 c 0
 82.5 48.875 82.4375 53.625 82.4375 59.25 c 2
 82.4375 278.125 l 1
 82.4375 278.1875 l 1
EndSplineSet
EndChar

StartChar: parenleft
Encoding: 40 40 40
Width: 1000
VWidth: 0
Flags: HW
LayerCount: 2
Back
Fore
SplineSet
80.5625 312.5 m 1
 80.5625 312.5625 l 1
 80.5625 531.4375 l 2
 80.5625 537.0625 80.625 541.8125 80.625 547.375 c 0
 80.625 549.125 80.625 550.625 80.625 552.375 c 2
 80.625 760.125 l 1
 188.375 662.125 l 1
 188.375 440.1875 l 1
 188.3125 440.1875 l 1
 188.3125 415.75 l 1
 80.5625 312.5 l 1
111.3125 803.0625 m 1
 111.375 803.0625 l 1
 330.25 803.0625 l 2
 335.875 803.0625 340.625 803 346.1875 803 c 0
 347.9375 803 349.4375 803 351.1875 803 c 2
 359 803 l 1
 261 695.25 l 1
 239.0625 695.25 l 1
 239 695.3125 l 1
 214.5625 695.3125 l 1
 111.3125 803.0625 l 1
82.4375 278.1875 m 1
 190.1875 174.9375 l 1
 190.1875 150.5 l 1
 190.25 150.5 l 1
 190.25 -71.4375 l 1
 82.5 -169.4375 l 1
 82.5 38.3125 l 2
 82.5 40.0625 82.5 41.5625 82.5 43.3125 c 0
 82.5 48.875 82.4375 53.625 82.4375 59.25 c 2
 82.4375 278.125 l 1
 82.4375 278.1875 l 1
113.1875 -212.375 m 1
 216.4375 -104.625 l 1
 262.8125 -104.625 l 5
 360.8125 -212.375 l 5
 353 -212.375 l 2
 351.25 -212.375 349.75 -212.375 348 -212.375 c 0
 342.4375 -212.375 337.6875 -212.5 332.0625 -212.5 c 2
 113.1875 -212.5 l 1
 113.1875 -212.375 l 1
EndSplineSet
EndChar

StartChar: parenright
Encoding: 41 41 41
Width: 1000
VWidth: 0
Flags: HW
LayerCount: 2
Back
Fore
SplineSet
360.8125 312.5 m 5
 360.8125 312.5625 l 5
 360.8125 531.4375 l 6
 360.8125 537.0625 360.75 541.8125 360.75 547.375 c 4
 360.75 549.125 360.75 550.625 360.75 552.375 c 6
 360.75 760.125 l 5
 253 662.125 l 5
 253 440.1875 l 5
 253.0625 440.1875 l 5
 253.0625 415.75 l 5
 360.8125 312.5 l 5
330.0625 803.0625 m 5
 330 803.0625 l 5
 111.125 803.0625 l 6
 105.5 803.0625 100.75 803 95.1875 803 c 4
 93.4375 803 91.9375 803 90.1875 803 c 6
 82.375 803 l 5
 180.375 695.25 l 5
 202.3125 695.25 l 5
 202.375 695.3125 l 5
 226.8125 695.3125 l 5
 330.0625 803.0625 l 5
358.9375 278.1875 m 5
 251.1875 174.9375 l 5
 251.1875 150.5 l 5
 251.125 150.5 l 5
 251.125 -71.4375 l 5
 358.875 -169.4375 l 5
 358.875 38.3125 l 6
 358.875 40.0625 358.875 41.5625 358.875 43.3125 c 4
 358.875 48.875 358.9375 53.625 358.9375 59.25 c 6
 358.9375 278.125 l 5
 358.9375 278.1875 l 5
328.1875 -212.375 m 5
 224.9375 -104.625 l 5
 178.5625 -104.625 l 5
 80.5625 -212.375 l 5
 88.375 -212.375 l 6
 90.125 -212.375 91.625 -212.375 93.375 -212.375 c 4
 98.9375 -212.375 103.6875 -212.5 109.3125 -212.5 c 6
 328.1875 -212.5 l 5
 328.1875 -212.375 l 5
EndSplineSet
EndChar

StartChar: period
Encoding: 46 46 42
Width: 1000
VWidth: 0
Flags: H
LayerCount: 2
Back
Fore
SplineSet
294 -66 m 5
 421 -66 l 5
 421 -193 l 5
 294 -193 l 5
 294 -66 l 5
EndSplineSet
EndChar

StartChar: hyphen
Encoding: 45 45 43
Width: 1000
VWidth: 0
Flags: H
LayerCount: 2
Back
Fore
SplineSet
163.4375 269.6875 m 5
 128.5625 296.625 l 5
 198.3125 350.5 l 5
 471.9375 350.5 l 5
 541.6875 296.625 l 5
 471.9375 242.75 l 5
 198.3125 242.75 l 5
 163.4375 269.6875 l 5
EndSplineSet
EndChar

StartChar: braceleft
Encoding: 123 123 44
Width: 1000
VWidth: 0
Flags: HW
LayerCount: 2
Back
Fore
SplineSet
211.3125 273.5625 m 5
 319.0625 170.3125 l 5
 319.0625 170.375 l 5
 319.0625 389.25 l 6
 319.0625 394.875 319 399.625 319 405.1875 c 4
 319 406.9375 319 408.4375 319 410.1875 c 6
 319 418 l 5
 211.25 320 l 5
 211.3125 273.5625 l 5
360.5625 312.5 m 1
 360.5625 312.5625 l 1
 360.5625 531.4375 l 2
 360.5625 537.0625 360.625 541.8125 360.625 547.375 c 0
 360.625 549.125 360.625 550.625 360.625 552.375 c 2
 360.625 760.125 l 1
 468.375 662.125 l 1
 468.375 440.1875 l 1
 468.3125 440.1875 l 1
 468.3125 415.75 l 1
 360.5625 312.5 l 1
391.3125 803.0625 m 1
 391.375 803.0625 l 1
 610.25 803.0625 l 2
 615.875 803.0625 620.625 803 626.1875 803 c 0
 627.9375 803 629.4375 803 631.1875 803 c 2
 639 803 l 1
 541 695.25 l 1
 519.0625 695.25 l 1
 519 695.3125 l 1
 494.5625 695.3125 l 1
 391.3125 803.0625 l 1
362.4375 278.1875 m 1
 470.1875 174.9375 l 1
 470.1875 150.5 l 1
 470.25 150.5 l 1
 470.25 -71.4375 l 1
 362.5 -169.4375 l 1
 362.5 38.3125 l 2
 362.5 40.0625 362.5 41.5625 362.5 43.3125 c 0
 362.5 48.875 362.4375 53.625 362.4375 59.25 c 2
 362.4375 278.125 l 1
 362.4375 278.1875 l 1
393.1875 -212.375 m 1
 496.4375 -104.625 l 1
 542.8125 -104.625 l 1
 640.8125 -212.375 l 1
 633 -212.375 l 2
 631.25 -212.375 629.75 -212.375 628 -212.375 c 0
 622.4375 -212.375 617.6875 -212.5 612.0625 -212.5 c 2
 393.1875 -212.5 l 1
 393.1875 -212.375 l 1
EndSplineSet
EndChar

StartChar: braceright
Encoding: 125 125 45
Width: 1000
VWidth: 0
Flags: HW
LayerCount: 2
Back
Fore
SplineSet
640.75 273.5625 m 5
 533 170.3125 l 5
 533 170.375 l 5
 533 389.25 l 6
 533 394.875 533.0625 399.625 533.0625 405.1875 c 4
 533.0625 406.9375 533.0625 408.4375 533.0625 410.1875 c 6
 533.0625 418 l 5
 640.8125 320 l 5
 640.75 273.5625 l 5
491.5 312.5 m 1
 491.5 312.5625 l 1
 491.5 531.4375 l 2
 491.5 537.0625 491.4375 541.8125 491.4375 547.375 c 0
 491.4375 549.125 491.4375 550.625 491.4375 552.375 c 2
 491.4375 760.125 l 1
 383.6875 662.125 l 1
 383.6875 440.1875 l 1
 383.75 440.1875 l 1
 383.75 415.75 l 1
 491.5 312.5 l 1
460.75 803.0625 m 1
 460.6875 803.0625 l 1
 241.8125 803.0625 l 2
 236.1875 803.0625 231.4375 803 225.875 803 c 0
 224.125 803 222.625 803 220.875 803 c 2
 213.0625 803 l 1
 311.0625 695.25 l 1
 333 695.25 l 1
 333.0625 695.3125 l 1
 357.5 695.3125 l 1
 460.75 803.0625 l 1
489.625 278.1875 m 1
 381.875 174.9375 l 1
 381.875 150.5 l 1
 381.8125 150.5 l 1
 381.8125 -71.4375 l 1
 489.5625 -169.4375 l 1
 489.5625 38.3125 l 2
 489.5625 40.0625 489.5625 41.5625 489.5625 43.3125 c 0
 489.5625 48.875 489.625 53.625 489.625 59.25 c 2
 489.625 278.125 l 1
 489.625 278.1875 l 1
458.875 -212.375 m 1
 355.625 -104.625 l 1
 309.25 -104.625 l 1
 211.25 -212.375 l 1
 219.0625 -212.375 l 2
 220.8125 -212.375 222.3125 -212.375 224.0625 -212.375 c 0
 229.625 -212.375 234.375 -212.5 240 -212.5 c 2
 458.875 -212.5 l 1
 458.875 -212.375 l 1
EndSplineSet
EndChar

StartChar: bracketright
Encoding: 93 93 46
Width: 1000
VWidth: 0
Flags: HW
LayerCount: 2
Back
Fore
SplineSet
360.8125 312.5 m 5
 360.8125 312.5625 l 5
 360.8125 531.4375 l 6
 360.8125 537.0625 360.75 541.8125 360.75 547.375 c 4
 360.75 549.125 360.75 550.625 360.75 552.375 c 6
 360.75 760.125 l 5
 253 662.125 l 5
 253 440.1875 l 5
 253.0625 440.1875 l 5
 253.0625 415.75 l 5
 360.8125 312.5 l 5
330.0625 803.0625 m 5
 330 803.0625 l 5
 111.125 803.0625 l 6
 105.5 803.0625 100.75 803 95.1875 803 c 4
 93.4375 803 91.9375 803 90.1875 803 c 6
 82.375 803 l 5
 180.375 695.25 l 5
 202.3125 695.25 l 5
 202.375 695.3125 l 5
 226.8125 695.3125 l 5
 330.0625 803.0625 l 5
358.9375 278.1875 m 5
 251.1875 174.9375 l 5
 251.1875 150.5 l 5
 251.125 150.5 l 5
 251.125 -71.4375 l 5
 358.875 -169.4375 l 5
 358.875 38.3125 l 6
 358.875 40.0625 358.875 41.5625 358.875 43.3125 c 4
 358.875 48.875 358.9375 53.625 358.9375 59.25 c 6
 358.9375 278.125 l 5
 358.9375 278.1875 l 5
328.1875 -212.375 m 5
 224.9375 -104.625 l 5
 178.5625 -104.625 l 5
 80.5625 -212.375 l 5
 88.375 -212.375 l 6
 90.125 -212.375 91.625 -212.375 93.375 -212.375 c 4
 98.9375 -212.375 103.6875 -212.5 109.3125 -212.5 c 6
 328.1875 -212.5 l 5
 328.1875 -212.375 l 5
EndSplineSet
EndChar

StartChar: bracketleft
Encoding: 91 91 47
Width: 1000
VWidth: 0
Flags: HW
LayerCount: 2
Back
Fore
SplineSet
80.5625 312.5 m 1
 80.5625 312.5625 l 1
 80.5625 531.4375 l 2
 80.5625 537.0625 80.625 541.8125 80.625 547.375 c 0
 80.625 549.125 80.625 550.625 80.625 552.375 c 2
 80.625 760.125 l 1
 188.375 662.125 l 1
 188.375 440.1875 l 1
 188.3125 440.1875 l 1
 188.3125 415.75 l 1
 80.5625 312.5 l 1
111.3125 803.0625 m 1
 111.375 803.0625 l 1
 330.25 803.0625 l 2
 335.875 803.0625 340.625 803 346.1875 803 c 0
 347.9375 803 349.4375 803 351.1875 803 c 2
 359 803 l 1
 261 695.25 l 1
 239.0625 695.25 l 1
 239 695.3125 l 1
 214.5625 695.3125 l 1
 111.3125 803.0625 l 1
82.4375 278.1875 m 1
 190.1875 174.9375 l 1
 190.1875 150.5 l 1
 190.25 150.5 l 1
 190.25 -71.4375 l 1
 82.5 -169.4375 l 1
 82.5 38.3125 l 2
 82.5 40.0625 82.5 41.5625 82.5 43.3125 c 0
 82.5 48.875 82.4375 53.625 82.4375 59.25 c 2
 82.4375 278.125 l 1
 82.4375 278.1875 l 1
113.1875 -212.375 m 1
 216.4375 -104.625 l 1
 262.8125 -104.625 l 5
 360.8125 -212.375 l 5
 353 -212.375 l 2
 351.25 -212.375 349.75 -212.375 348 -212.375 c 0
 342.4375 -212.375 337.6875 -212.5 332.0625 -212.5 c 2
 113.1875 -212.5 l 1
 113.1875 -212.375 l 1
EndSplineSet
EndChar

StartChar: K
Encoding: 75 75 48
Width: 1000
VWidth: 0
Flags: HW
LayerCount: 2
Back
Fore
SplineSet
415.123046875 417.333007812 m 1
 568.495117188 577.749023438 l 1
 558.337890625 723.044921875 l 1
 414.770507812 572.8828125 l 2
 413.560546875 571.619140625 412.524414062 570.534179688 411.315429688 569.26953125 c 0
 407.470703125 565.249023438 404.143554688 561.858398438 400.255859375 557.793945312 c 2
 249 399.590820312 l 1
 248.95703125 399.545898438 l 1025
248.95703125 399.545898438 m 1
 398.189453125 399.711914062 l 1
 415.077148438 417.375976562 l 1
 415.123046875 417.333007812 l 1
 568.495117188 577.749023438 l 1
 558.337890625 723.044921875 l 1
 414.770507812 572.8828125 l 2
 413.560546875 571.619140625 412.524414062 570.534179688 411.315429688 569.26953125 c 0
 407.470703125 565.249023438 404.143554688 561.858398438 400.255859375 557.793945312 c 2
 249 399.590820312 l 1
 248.95703125 399.545898438 l 1
538.716796875 544.442382812 m 1025
414.123046875 175.2578125 m 1
 567.495117188 14.841796875 l 1
 557.337890625 -130.454101562 l 1
 413.770507812 19.7080078125 l 2
 412.560546875 20.9716796875 411.524414062 22.056640625 410.315429688 23.3212890625 c 0
 406.470703125 27.341796875 403.143554688 30.732421875 399.255859375 34.796875 c 2
 248 193 l 1
 247.95703125 193.044921875 l 1025
247.95703125 193.044921875 m 1
 397.189453125 192.87890625 l 1
 414.077148438 175.21484375 l 1
 414.123046875 175.2578125 l 1
 567.495117188 14.841796875 l 1
 557.337890625 -130.454101562 l 1
 413.770507812 19.7080078125 l 2
 412.560546875 20.9716796875 411.524414062 22.056640625 410.315429688 23.3212890625 c 0
 406.470703125 27.341796875 403.143554688 30.732421875 399.255859375 34.796875 c 2
 248 193 l 1
 247.95703125 193.044921875 l 1
537.716796875 48.1484375 m 1025
190.25 150.5 m 1
 190.25 -71.4375 l 1
 82.5 -169.4375 l 1
 82.5 38.3125 l 2
 82.5 40.0625 82.5 41.5625 82.5 43.3125 c 0
 82.5 48.875 82.4375 53.625 82.4375 59.25 c 2
 82.4375 278.125 l 1
 82.4375 278.1875 l 1025
589.6875 760.0625 m 1025
80.5625 312.5 m 1
 80.5625 312.5625 l 1
 80.5625 531.4375 l 2
 80.5625 537.0625 80.625 541.8125 80.625 547.375 c 0
 80.625 549.125 80.625 550.625 80.625 552.375 c 2
 80.625 760.125 l 1
 188.375 662.125 l 1
 188.375 440.1875 l 1
 188.3125 440.1875 l 1
 188.3125 415.75 l 1
 80.5625 312.5 l 1
163.4375 269.6875 m 5
 128.5625 296.625 l 1
 198.3125 350.5 l 5
 201.9375 350.5 l 5
 271.6875 296.625 l 5
 201.9375 242.75 l 5
 198.3125 242.75 l 5
 163.4375 269.6875 l 5
82.4375 278.1875 m 1
 190.1875 174.9375 l 1
 190.1875 150.5 l 1
 190.25 150.5 l 1
 190.25 -71.4375 l 1
 82.5 -169.4375 l 1
 82.5 38.3125 l 2
 82.5 40.0625 82.5 41.5625 82.5 43.3125 c 0
 82.5 48.875 82.4375 53.625 82.4375 59.25 c 2
 82.4375 278.125 l 1
 82.4375 278.1875 l 1
EndSplineSet
EndChar

StartChar: k
Encoding: 107 107 49
Width: 1000
VWidth: 0
Flags: HW
LayerCount: 2
Back
Fore
SplineSet
415.123046875 417.333007812 m 5
 568.495117188 577.749023438 l 5
 558.337890625 723.044921875 l 5
 414.770507812 572.8828125 l 6
 413.560546875 571.619140625 412.524414062 570.534179688 411.315429688 569.26953125 c 4
 407.470703125 565.249023438 404.143554688 561.858398438 400.255859375 557.793945312 c 6
 249 399.590820312 l 5
 248.95703125 399.545898438 l 1029
248.95703125 399.545898438 m 5
 398.189453125 399.711914062 l 5
 415.077148438 417.375976562 l 5
 415.123046875 417.333007812 l 5
 568.495117188 577.749023438 l 5
 558.337890625 723.044921875 l 5
 414.770507812 572.8828125 l 6
 413.560546875 571.619140625 412.524414062 570.534179688 411.315429688 569.26953125 c 4
 407.470703125 565.249023438 404.143554688 561.858398438 400.255859375 557.793945312 c 6
 249 399.590820312 l 5
 248.95703125 399.545898438 l 5
538.716796875 544.442382812 m 1029
414.123046875 175.2578125 m 1
 567.495117188 14.841796875 l 1
 557.337890625 -130.454101562 l 1
 413.770507812 19.7080078125 l 2
 412.560546875 20.9716796875 411.524414062 22.056640625 410.315429688 23.3212890625 c 0
 406.470703125 27.341796875 403.143554688 30.732421875 399.255859375 34.796875 c 2
 248 193 l 1
 247.95703125 193.044921875 l 1025
247.95703125 193.044921875 m 1
 397.189453125 192.87890625 l 1
 414.077148438 175.21484375 l 1
 414.123046875 175.2578125 l 1
 567.495117188 14.841796875 l 1
 557.337890625 -130.454101562 l 1
 413.770507812 19.7080078125 l 2
 412.560546875 20.9716796875 411.524414062 22.056640625 410.315429688 23.3212890625 c 0
 406.470703125 27.341796875 403.143554688 30.732421875 399.255859375 34.796875 c 2
 248 193 l 1
 247.95703125 193.044921875 l 1
537.716796875 48.1484375 m 1025
190.25 150.5 m 1
 190.25 -71.4375 l 1
 82.5 -169.4375 l 1
 82.5 38.3125 l 2
 82.5 40.0625 82.5 41.5625 82.5 43.3125 c 0
 82.5 48.875 82.4375 53.625 82.4375 59.25 c 2
 82.4375 278.125 l 1
 82.4375 278.1875 l 1025
589.6875 760.0625 m 1025
80.5625 312.5 m 1
 80.5625 312.5625 l 1
 80.5625 531.4375 l 2
 80.5625 537.0625 80.625 541.8125 80.625 547.375 c 0
 80.625 549.125 80.625 550.625 80.625 552.375 c 2
 80.625 760.125 l 1
 188.375 662.125 l 1
 188.375 440.1875 l 1
 188.3125 440.1875 l 1
 188.3125 415.75 l 1
 80.5625 312.5 l 1
163.4375 269.6875 m 1
 128.5625 296.625 l 1
 198.3125 350.5 l 1
 201.9375 350.5 l 1
 271.6875 296.625 l 1
 201.9375 242.75 l 1
 198.3125 242.75 l 1
 163.4375 269.6875 l 1
82.4375 278.1875 m 1
 190.1875 174.9375 l 1
 190.1875 150.5 l 1
 190.25 150.5 l 1
 190.25 -71.4375 l 1
 82.5 -169.4375 l 1
 82.5 38.3125 l 2
 82.5 40.0625 82.5 41.5625 82.5 43.3125 c 0
 82.5 48.875 82.4375 53.625 82.4375 59.25 c 2
 82.4375 278.125 l 1
 82.4375 278.1875 l 1
EndSplineSet
EndChar

StartChar: j
Encoding: 106 106 50
Width: 1000
VWidth: 0
Flags: HW
LayerCount: 2
Back
Fore
SplineSet
445.75 -92 m 5
 549 -199.75 l 5
 548.9375 -199.75 l 5
 330.0625 -199.75 l 6
 324.4375 -199.75 319.6875 -199.6875 314.125 -199.6875 c 4
 312.375 -199.6875 310.875 -199.6875 309.125 -199.6875 c 6
 301.3125 -199.6875 l 5
 399.3125 -91.9375 l 5
 445.75 -92 l 5
589.6875 760.125 m 1
 589.6875 760.0625 l 1
 589.6875 541.1875 l 2
 589.6875 535.5625 589.625 530.8125 589.625 525.25 c 0
 589.625 523.5 589.625 522 589.625 520.25 c 2
 589.625 312.4375 l 1
 481.875 410.4375 l 1
 481.875 632.375 l 1
 481.9375 632.4375 l 1
 481.9375 656.875 l 1
 589.6875 760.125 l 1
591.5625 -169.4375 m 1
 483.8125 -66.1875 l 1
 483.8125 -41.75 l 1
 483.75 -41.75 l 1
 483.75 180.1875 l 1
 591.5 278.1875 l 1
 591.5 70.375 l 2
 591.5 68.625 591.5 67.125 591.5 65.375 c 0
 591.5 59.8125 591.5625 55.0625 591.5625 49.4375 c 2
 591.5625 -169.4375 l 1
EndSplineSet
EndChar

StartChar: J
Encoding: 74 74 51
Width: 1000
VWidth: 0
Flags: HW
LayerCount: 2
Back
Fore
SplineSet
445.75 -92 m 5
 549 -199.75 l 5
 548.9375 -199.75 l 5
 330.0625 -199.75 l 6
 324.4375 -199.75 319.6875 -199.6875 314.125 -199.6875 c 4
 312.375 -199.6875 310.875 -199.6875 309.125 -199.6875 c 6
 301.3125 -199.6875 l 5
 399.3125 -91.9375 l 5
 445.75 -92 l 5
589.6875 760.125 m 1
 589.6875 760.0625 l 1
 589.6875 541.1875 l 2
 589.6875 535.5625 589.625 530.8125 589.625 525.25 c 0
 589.625 523.5 589.625 522 589.625 520.25 c 2
 589.625 312.4375 l 1
 481.875 410.4375 l 1
 481.875 632.375 l 1
 481.9375 632.4375 l 1
 481.9375 656.875 l 1
 589.6875 760.125 l 1
591.5625 -169.4375 m 1
 483.8125 -66.1875 l 1
 483.8125 -41.75 l 1
 483.75 -41.75 l 1
 483.75 180.1875 l 1
 591.5 278.1875 l 1
 591.5 70.375 l 2
 591.5 68.625 591.5 67.125 591.5 65.375 c 0
 591.5 59.8125 591.5625 55.0625 591.5625 49.4375 c 2
 591.5625 -169.4375 l 1
EndSplineSet
EndChar

StartChar: brokenbar
Encoding: 166 166 52
Width: 1000
VWidth: 0
Flags: HW
LayerCount: 2
Back
Fore
SplineSet
589.6875 760.125 m 1
 589.6875 760.0625 l 1
 589.6875 541.1875 l 2
 589.6875 535.5625 589.625 530.8125 589.625 525.25 c 0
 589.625 523.5 589.625 522 589.625 520.25 c 2
 589.625 312.4375 l 1
 481.875 410.4375 l 1
 481.875 632.375 l 1
 481.9375 632.4375 l 1
 481.9375 656.875 l 1
 589.6875 760.125 l 1
591.5625 -169.4375 m 1
 483.8125 -66.1875 l 1
 483.8125 -41.75 l 1
 483.75 -41.75 l 1
 483.75 180.1875 l 1
 591.5 278.1875 l 1
 591.5 70.375 l 2
 591.5 68.625 591.5 67.125 591.5 65.375 c 0
 591.5 59.8125 591.5625 55.0625 591.5625 49.4375 c 2
 591.5625 -169.4375 l 1
EndSplineSet
EndChar

StartChar: z
Encoding: 122 122 53
Width: 1000
VWidth: 0
Flags: HW
LayerCount: 2
Back
Fore
SplineSet
555.928710938 485.88671875 m 1
 556 667.943359375 l 1
 112.071289062 110 l 1
 112 -74.056640625 l 1
 555.928710938 485.88671875 l 1
111.3125 763.0625 m 1
 111.375 763.0625 l 1
 330.25 763.0625 l 2
 335.875 763.0625 340.625 763 346.1875 763 c 0
 347.9375 763 349.4375 763 351.1875 763 c 2
 559 763 l 1
 461 655.25 l 1
 239.0625 655.25 l 1
 239 655.3125 l 1
 214.5625 655.3125 l 1
 111.3125 763.0625 l 1
113.1875 -152.375 m 5
 216.4375 -44.625 l 5
 462.8125 -44.625 l 5
 560.8125 -152.375 l 5
 353 -152.375 l 6
 351.25 -152.375 349.75 -152.375 348 -152.375 c 4
 342.4375 -152.375 337.6875 -152.5 332.0625 -152.5 c 6
 113.1875 -152.5 l 5
 113.1875 -152.375 l 5
EndSplineSet
EndChar

StartChar: Eth
Encoding: 208 208 54
Width: 1000
VWidth: 0
Flags: HW
LayerCount: 2
Back
Fore
SplineSet
589.6875 760.125 m 1
 589.6875 760.0625 l 1
 589.6875 541.1875 l 2
 589.6875 535.5625 589.625 530.8125 589.625 525.25 c 0
 589.625 523.5 589.625 522 589.625 520.25 c 2
 589.625 312.4375 l 1
 481.875 410.4375 l 1
 481.875 632.375 l 1
 481.9375 632.4375 l 1
 481.9375 656.875 l 1
 589.6875 760.125 l 1
80.5625 312.5 m 1
 80.5625 312.5625 l 1
 80.5625 531.4375 l 2
 80.5625 537.0625 80.625 541.8125 80.625 547.375 c 0
 80.625 549.125 80.625 550.625 80.625 552.375 c 2
 80.625 760.125 l 1
 188.375 662.125 l 1
 188.375 440.1875 l 1
 188.3125 440.1875 l 1
 188.3125 415.75 l 1
 80.5625 312.5 l 1
111.3125 803.0625 m 1
 111.375 803.0625 l 1
 330.25 803.0625 l 2
 335.875 803.0625 340.625 803 346.1875 803 c 0
 347.9375 803 349.4375 803 351.1875 803 c 2
 559 803 l 1
 461 695.25 l 1
 239.0625 695.25 l 1
 239 695.3125 l 1
 214.5625 695.3125 l 1
 111.3125 803.0625 l 1
591.5625 -169.4375 m 1
 483.8125 -66.1875 l 1
 483.8125 -41.75 l 1
 483.75 -41.75 l 1
 483.75 180.1875 l 1
 591.5 278.1875 l 1
 591.5 70.375 l 2
 591.5 68.625 591.5 67.125 591.5 65.375 c 0
 591.5 59.8125 591.5625 55.0625 591.5625 49.4375 c 2
 591.5625 -169.4375 l 1
82.4375 278.1875 m 1
 190.1875 174.9375 l 1
 190.1875 150.5 l 1
 190.25 150.5 l 1
 190.25 -71.4375 l 1
 82.5 -169.4375 l 1
 82.5 38.3125 l 2
 82.5 40.0625 82.5 41.5625 82.5 43.3125 c 0
 82.5 48.875 82.4375 53.625 82.4375 59.25 c 2
 82.4375 278.125 l 1
 82.4375 278.1875 l 1
113.1875 -212.375 m 1
 216.4375 -104.625 l 1
 462.8125 -104.625 l 1
 560.8125 -212.375 l 1
 353 -212.375 l 2
 351.25 -212.375 349.75 -212.375 348 -212.375 c 0
 342.4375 -212.375 337.6875 -212.5 332.0625 -212.5 c 2
 113.1875 -212.5 l 1
 113.1875 -212.375 l 1
EndSplineSet
EndChar

StartChar: Ograve
Encoding: 210 210 55
Width: 1000
VWidth: 0
Flags: HW
LayerCount: 2
Back
Fore
SplineSet
350.7421875 959.204101562 m 5
 240.7578125 895.704101562 l 5
 364.2578125 681.795898438 l 5
 474.2421875 745.295898438 l 5
 350.7421875 959.204101562 l 5
589.6875 760.125 m 1
 589.6875 760.0625 l 1
 589.6875 541.1875 l 2
 589.6875 535.5625 589.625 530.8125 589.625 525.25 c 0
 589.625 523.5 589.625 522 589.625 520.25 c 2
 589.625 312.4375 l 1
 481.875 410.4375 l 1
 481.875 632.375 l 1
 481.9375 632.4375 l 1
 481.9375 656.875 l 1
 589.6875 760.125 l 1
80.5625 312.5 m 1
 80.5625 312.5625 l 1
 80.5625 531.4375 l 2
 80.5625 537.0625 80.625 541.8125 80.625 547.375 c 0
 80.625 549.125 80.625 550.625 80.625 552.375 c 2
 80.625 760.125 l 1
 188.375 662.125 l 1
 188.375 440.1875 l 1
 188.3125 440.1875 l 1
 188.3125 415.75 l 1
 80.5625 312.5 l 1
111.3125 803.0625 m 1
 111.375 803.0625 l 1
 330.25 803.0625 l 2
 335.875 803.0625 340.625 803 346.1875 803 c 0
 347.9375 803 349.4375 803 351.1875 803 c 2
 559 803 l 1
 461 695.25 l 1
 239.0625 695.25 l 1
 239 695.3125 l 1
 214.5625 695.3125 l 1
 111.3125 803.0625 l 1
591.5625 -169.4375 m 1
 483.8125 -66.1875 l 1
 483.8125 -41.75 l 1
 483.75 -41.75 l 1
 483.75 180.1875 l 1
 591.5 278.1875 l 1
 591.5 70.375 l 2
 591.5 68.625 591.5 67.125 591.5 65.375 c 0
 591.5 59.8125 591.5625 55.0625 591.5625 49.4375 c 2
 591.5625 -169.4375 l 1
82.4375 278.1875 m 1
 190.1875 174.9375 l 1
 190.1875 150.5 l 1
 190.25 150.5 l 1
 190.25 -71.4375 l 1
 82.5 -169.4375 l 1
 82.5 38.3125 l 2
 82.5 40.0625 82.5 41.5625 82.5 43.3125 c 0
 82.5 48.875 82.4375 53.625 82.4375 59.25 c 2
 82.4375 278.125 l 1
 82.4375 278.1875 l 1
113.1875 -212.375 m 1
 216.4375 -104.625 l 1
 462.8125 -104.625 l 1
 560.8125 -212.375 l 1
 353 -212.375 l 2
 351.25 -212.375 349.75 -212.375 348 -212.375 c 0
 342.4375 -212.375 337.6875 -212.5 332.0625 -212.5 c 2
 113.1875 -212.5 l 1
 113.1875 -212.375 l 1
EndSplineSet
EndChar

StartChar: Oacute
Encoding: 211 211 56
Width: 1000
VWidth: 0
Flags: HW
LayerCount: 2
Back
Fore
SplineSet
364.2578125 959.204101562 m 5
 474.2421875 895.704101562 l 5
 350.7421875 681.795898438 l 5
 240.7578125 745.295898438 l 5
 364.2578125 959.204101562 l 5
589.6875 760.125 m 1
 589.6875 760.0625 l 1
 589.6875 541.1875 l 2
 589.6875 535.5625 589.625 530.8125 589.625 525.25 c 0
 589.625 523.5 589.625 522 589.625 520.25 c 2
 589.625 312.4375 l 1
 481.875 410.4375 l 1
 481.875 632.375 l 1
 481.9375 632.4375 l 1
 481.9375 656.875 l 1
 589.6875 760.125 l 1
80.5625 312.5 m 1
 80.5625 312.5625 l 1
 80.5625 531.4375 l 2
 80.5625 537.0625 80.625 541.8125 80.625 547.375 c 0
 80.625 549.125 80.625 550.625 80.625 552.375 c 2
 80.625 760.125 l 1
 188.375 662.125 l 1
 188.375 440.1875 l 1
 188.3125 440.1875 l 1
 188.3125 415.75 l 1
 80.5625 312.5 l 1
111.3125 803.0625 m 1
 111.375 803.0625 l 1
 330.25 803.0625 l 2
 335.875 803.0625 340.625 803 346.1875 803 c 0
 347.9375 803 349.4375 803 351.1875 803 c 2
 559 803 l 1
 461 695.25 l 1
 239.0625 695.25 l 1
 239 695.3125 l 1
 214.5625 695.3125 l 1
 111.3125 803.0625 l 1
591.5625 -169.4375 m 1
 483.8125 -66.1875 l 1
 483.8125 -41.75 l 1
 483.75 -41.75 l 1
 483.75 180.1875 l 1
 591.5 278.1875 l 1
 591.5 70.375 l 2
 591.5 68.625 591.5 67.125 591.5 65.375 c 0
 591.5 59.8125 591.5625 55.0625 591.5625 49.4375 c 2
 591.5625 -169.4375 l 1
82.4375 278.1875 m 1
 190.1875 174.9375 l 1
 190.1875 150.5 l 1
 190.25 150.5 l 1
 190.25 -71.4375 l 1
 82.5 -169.4375 l 1
 82.5 38.3125 l 2
 82.5 40.0625 82.5 41.5625 82.5 43.3125 c 0
 82.5 48.875 82.4375 53.625 82.4375 59.25 c 2
 82.4375 278.125 l 1
 82.4375 278.1875 l 1
113.1875 -212.375 m 1
 216.4375 -104.625 l 1
 462.8125 -104.625 l 1
 560.8125 -212.375 l 1
 353 -212.375 l 2
 351.25 -212.375 349.75 -212.375 348 -212.375 c 0
 342.4375 -212.375 337.6875 -212.5 332.0625 -212.5 c 2
 113.1875 -212.5 l 1
 113.1875 -212.375 l 1
EndSplineSet
EndChar

StartChar: Ocircumflex
Encoding: 212 212 57
Width: 1000
VWidth: 0
Flags: HW
LayerCount: 2
Back
Fore
SplineSet
314.5625 948 m 5
 211.3125 840.25 l 5
 211.375 840.25 l 5
 430.25 840.25 l 6
 435.875 840.25 440.625 840.3125 446.1875 840.3125 c 4
 447.9375 840.3125 449.4375 840.3125 451.1875 840.3125 c 6
 459 840.3125 l 5
 361 948.0625 l 5
 314.5625 948 l 5
589.6875 760.125 m 1
 589.6875 760.0625 l 1
 589.6875 541.1875 l 2
 589.6875 535.5625 589.625 530.8125 589.625 525.25 c 0
 589.625 523.5 589.625 522 589.625 520.25 c 2
 589.625 312.4375 l 1
 481.875 410.4375 l 1
 481.875 632.375 l 1
 481.9375 632.4375 l 1
 481.9375 656.875 l 1
 589.6875 760.125 l 1
80.5625 312.5 m 1
 80.5625 312.5625 l 1
 80.5625 531.4375 l 2
 80.5625 537.0625 80.625 541.8125 80.625 547.375 c 0
 80.625 549.125 80.625 550.625 80.625 552.375 c 2
 80.625 760.125 l 1
 188.375 662.125 l 1
 188.375 440.1875 l 1
 188.3125 440.1875 l 1
 188.3125 415.75 l 1
 80.5625 312.5 l 1
111.3125 803.0625 m 1
 111.375 803.0625 l 1
 330.25 803.0625 l 2
 335.875 803.0625 340.625 803 346.1875 803 c 0
 347.9375 803 349.4375 803 351.1875 803 c 2
 559 803 l 1
 461 695.25 l 1
 239.0625 695.25 l 1
 239 695.3125 l 1
 214.5625 695.3125 l 1
 111.3125 803.0625 l 1
591.5625 -169.4375 m 1
 483.8125 -66.1875 l 1
 483.8125 -41.75 l 1
 483.75 -41.75 l 1
 483.75 180.1875 l 1
 591.5 278.1875 l 1
 591.5 70.375 l 2
 591.5 68.625 591.5 67.125 591.5 65.375 c 0
 591.5 59.8125 591.5625 55.0625 591.5625 49.4375 c 2
 591.5625 -169.4375 l 1
82.4375 278.1875 m 1
 190.1875 174.9375 l 1
 190.1875 150.5 l 1
 190.25 150.5 l 1
 190.25 -71.4375 l 1
 82.5 -169.4375 l 1
 82.5 38.3125 l 2
 82.5 40.0625 82.5 41.5625 82.5 43.3125 c 0
 82.5 48.875 82.4375 53.625 82.4375 59.25 c 2
 82.4375 278.125 l 1
 82.4375 278.1875 l 1
113.1875 -212.375 m 1
 216.4375 -104.625 l 1
 462.8125 -104.625 l 1
 560.8125 -212.375 l 1
 353 -212.375 l 2
 351.25 -212.375 349.75 -212.375 348 -212.375 c 0
 342.4375 -212.375 337.6875 -212.5 332.0625 -212.5 c 2
 113.1875 -212.5 l 1
 113.1875 -212.375 l 1
EndSplineSet
EndChar

StartChar: Otilde
Encoding: 213 213 58
Width: 1000
VWidth: 0
Flags: HW
LayerCount: 2
Back
Fore
SplineSet
163.4375 869.6875 m 5
 128.5625 896.625 l 5
 198.3125 950.5 l 5
 471.9375 950.5 l 5
 541.6875 896.625 l 5
 471.9375 842.75 l 5
 198.3125 842.75 l 5
 163.4375 869.6875 l 5
589.6875 760.125 m 1
 589.6875 760.0625 l 1
 589.6875 541.1875 l 2
 589.6875 535.5625 589.625 530.8125 589.625 525.25 c 0
 589.625 523.5 589.625 522 589.625 520.25 c 2
 589.625 312.4375 l 1
 481.875 410.4375 l 1
 481.875 632.375 l 1
 481.9375 632.4375 l 1
 481.9375 656.875 l 1
 589.6875 760.125 l 1
80.5625 312.5 m 1
 80.5625 312.5625 l 1
 80.5625 531.4375 l 2
 80.5625 537.0625 80.625 541.8125 80.625 547.375 c 0
 80.625 549.125 80.625 550.625 80.625 552.375 c 2
 80.625 760.125 l 1
 188.375 662.125 l 1
 188.375 440.1875 l 1
 188.3125 440.1875 l 1
 188.3125 415.75 l 1
 80.5625 312.5 l 1
111.3125 803.0625 m 1
 111.375 803.0625 l 1
 330.25 803.0625 l 2
 335.875 803.0625 340.625 803 346.1875 803 c 0
 347.9375 803 349.4375 803 351.1875 803 c 2
 559 803 l 1
 461 695.25 l 1
 239.0625 695.25 l 1
 239 695.3125 l 1
 214.5625 695.3125 l 1
 111.3125 803.0625 l 1
591.5625 -169.4375 m 1
 483.8125 -66.1875 l 1
 483.8125 -41.75 l 1
 483.75 -41.75 l 1
 483.75 180.1875 l 1
 591.5 278.1875 l 1
 591.5 70.375 l 2
 591.5 68.625 591.5 67.125 591.5 65.375 c 0
 591.5 59.8125 591.5625 55.0625 591.5625 49.4375 c 2
 591.5625 -169.4375 l 1
82.4375 278.1875 m 1
 190.1875 174.9375 l 1
 190.1875 150.5 l 1
 190.25 150.5 l 1
 190.25 -71.4375 l 1
 82.5 -169.4375 l 1
 82.5 38.3125 l 2
 82.5 40.0625 82.5 41.5625 82.5 43.3125 c 0
 82.5 48.875 82.4375 53.625 82.4375 59.25 c 2
 82.4375 278.125 l 1
 82.4375 278.1875 l 1
113.1875 -212.375 m 1
 216.4375 -104.625 l 1
 462.8125 -104.625 l 1
 560.8125 -212.375 l 1
 353 -212.375 l 2
 351.25 -212.375 349.75 -212.375 348 -212.375 c 0
 342.4375 -212.375 337.6875 -212.5 332.0625 -212.5 c 2
 113.1875 -212.5 l 1
 113.1875 -212.375 l 1
EndSplineSet
EndChar

StartChar: Odieresis
Encoding: 214 214 59
Width: 1000
VWidth: 0
Flags: HW
LayerCount: 2
Back
Fore
SplineSet
361 914 m 5
 427 914 l 5
 427 852 l 5
 361 852 l 5
 361 914 l 5
241 914 m 5
 307 914 l 5
 307 852 l 5
 241 852 l 5
 241 914 l 5
589.6875 760.125 m 1
 589.6875 760.0625 l 1
 589.6875 541.1875 l 2
 589.6875 535.5625 589.625 530.8125 589.625 525.25 c 0
 589.625 523.5 589.625 522 589.625 520.25 c 2
 589.625 312.4375 l 1
 481.875 410.4375 l 1
 481.875 632.375 l 1
 481.9375 632.4375 l 1
 481.9375 656.875 l 1
 589.6875 760.125 l 1
80.5625 312.5 m 1
 80.5625 312.5625 l 1
 80.5625 531.4375 l 2
 80.5625 537.0625 80.625 541.8125 80.625 547.375 c 0
 80.625 549.125 80.625 550.625 80.625 552.375 c 2
 80.625 760.125 l 1
 188.375 662.125 l 1
 188.375 440.1875 l 1
 188.3125 440.1875 l 1
 188.3125 415.75 l 1
 80.5625 312.5 l 1
111.3125 803.0625 m 1
 111.375 803.0625 l 1
 330.25 803.0625 l 2
 335.875 803.0625 340.625 803 346.1875 803 c 0
 347.9375 803 349.4375 803 351.1875 803 c 2
 559 803 l 1
 461 695.25 l 1
 239.0625 695.25 l 1
 239 695.3125 l 1
 214.5625 695.3125 l 1
 111.3125 803.0625 l 1
591.5625 -169.4375 m 1
 483.8125 -66.1875 l 1
 483.8125 -41.75 l 1
 483.75 -41.75 l 1
 483.75 180.1875 l 1
 591.5 278.1875 l 1
 591.5 70.375 l 2
 591.5 68.625 591.5 67.125 591.5 65.375 c 0
 591.5 59.8125 591.5625 55.0625 591.5625 49.4375 c 2
 591.5625 -169.4375 l 1
82.4375 278.1875 m 1
 190.1875 174.9375 l 1
 190.1875 150.5 l 1
 190.25 150.5 l 1
 190.25 -71.4375 l 1
 82.5 -169.4375 l 1
 82.5 38.3125 l 2
 82.5 40.0625 82.5 41.5625 82.5 43.3125 c 0
 82.5 48.875 82.4375 53.625 82.4375 59.25 c 2
 82.4375 278.125 l 1
 82.4375 278.1875 l 1
113.1875 -212.375 m 1
 216.4375 -104.625 l 1
 462.8125 -104.625 l 1
 560.8125 -212.375 l 1
 353 -212.375 l 2
 351.25 -212.375 349.75 -212.375 348 -212.375 c 0
 342.4375 -212.375 337.6875 -212.5 332.0625 -212.5 c 2
 113.1875 -212.5 l 1
 113.1875 -212.375 l 1
EndSplineSet
EndChar

StartChar: otilde
Encoding: 245 245 60
Width: 1000
VWidth: 0
Flags: HW
LayerCount: 2
Back
Fore
SplineSet
163.4375 869.6875 m 5
 128.5625 896.625 l 5
 198.3125 950.5 l 5
 471.9375 950.5 l 5
 541.6875 896.625 l 5
 471.9375 842.75 l 5
 198.3125 842.75 l 5
 163.4375 869.6875 l 5
589.6875 760.125 m 1
 589.6875 760.0625 l 1
 589.6875 541.1875 l 2
 589.6875 535.5625 589.625 530.8125 589.625 525.25 c 0
 589.625 523.5 589.625 522 589.625 520.25 c 2
 589.625 312.4375 l 1
 481.875 410.4375 l 1
 481.875 632.375 l 1
 481.9375 632.4375 l 1
 481.9375 656.875 l 1
 589.6875 760.125 l 1
80.5625 312.5 m 1
 80.5625 312.5625 l 1
 80.5625 531.4375 l 2
 80.5625 537.0625 80.625 541.8125 80.625 547.375 c 0
 80.625 549.125 80.625 550.625 80.625 552.375 c 2
 80.625 760.125 l 1
 188.375 662.125 l 1
 188.375 440.1875 l 1
 188.3125 440.1875 l 1
 188.3125 415.75 l 1
 80.5625 312.5 l 1
111.3125 803.0625 m 1
 111.375 803.0625 l 1
 330.25 803.0625 l 2
 335.875 803.0625 340.625 803 346.1875 803 c 0
 347.9375 803 349.4375 803 351.1875 803 c 2
 559 803 l 1
 461 695.25 l 1
 239.0625 695.25 l 1
 239 695.3125 l 1
 214.5625 695.3125 l 1
 111.3125 803.0625 l 1
591.5625 -169.4375 m 1
 483.8125 -66.1875 l 1
 483.8125 -41.75 l 1
 483.75 -41.75 l 1
 483.75 180.1875 l 1
 591.5 278.1875 l 1
 591.5 70.375 l 2
 591.5 68.625 591.5 67.125 591.5 65.375 c 0
 591.5 59.8125 591.5625 55.0625 591.5625 49.4375 c 2
 591.5625 -169.4375 l 1
82.4375 278.1875 m 1
 190.1875 174.9375 l 1
 190.1875 150.5 l 1
 190.25 150.5 l 1
 190.25 -71.4375 l 1
 82.5 -169.4375 l 1
 82.5 38.3125 l 2
 82.5 40.0625 82.5 41.5625 82.5 43.3125 c 0
 82.5 48.875 82.4375 53.625 82.4375 59.25 c 2
 82.4375 278.125 l 1
 82.4375 278.1875 l 1
113.1875 -212.375 m 1
 216.4375 -104.625 l 1
 462.8125 -104.625 l 1
 560.8125 -212.375 l 1
 353 -212.375 l 2
 351.25 -212.375 349.75 -212.375 348 -212.375 c 0
 342.4375 -212.375 337.6875 -212.5 332.0625 -212.5 c 2
 113.1875 -212.5 l 1
 113.1875 -212.375 l 1
EndSplineSet
EndChar

StartChar: odieresis
Encoding: 246 246 61
Width: 1000
VWidth: 0
Flags: HW
LayerCount: 2
Back
Fore
SplineSet
361 914 m 5
 427 914 l 5
 427 852 l 5
 361 852 l 5
 361 914 l 5
241 914 m 5
 307 914 l 5
 307 852 l 5
 241 852 l 5
 241 914 l 5
589.6875 760.125 m 1
 589.6875 760.0625 l 1
 589.6875 541.1875 l 2
 589.6875 535.5625 589.625 530.8125 589.625 525.25 c 0
 589.625 523.5 589.625 522 589.625 520.25 c 2
 589.625 312.4375 l 1
 481.875 410.4375 l 1
 481.875 632.375 l 1
 481.9375 632.4375 l 1
 481.9375 656.875 l 1
 589.6875 760.125 l 1
80.5625 312.5 m 1
 80.5625 312.5625 l 1
 80.5625 531.4375 l 2
 80.5625 537.0625 80.625 541.8125 80.625 547.375 c 0
 80.625 549.125 80.625 550.625 80.625 552.375 c 2
 80.625 760.125 l 1
 188.375 662.125 l 1
 188.375 440.1875 l 1
 188.3125 440.1875 l 1
 188.3125 415.75 l 1
 80.5625 312.5 l 1
111.3125 803.0625 m 1
 111.375 803.0625 l 1
 330.25 803.0625 l 2
 335.875 803.0625 340.625 803 346.1875 803 c 0
 347.9375 803 349.4375 803 351.1875 803 c 2
 559 803 l 1
 461 695.25 l 1
 239.0625 695.25 l 1
 239 695.3125 l 1
 214.5625 695.3125 l 1
 111.3125 803.0625 l 1
591.5625 -169.4375 m 1
 483.8125 -66.1875 l 1
 483.8125 -41.75 l 1
 483.75 -41.75 l 1
 483.75 180.1875 l 1
 591.5 278.1875 l 1
 591.5 70.375 l 2
 591.5 68.625 591.5 67.125 591.5 65.375 c 0
 591.5 59.8125 591.5625 55.0625 591.5625 49.4375 c 2
 591.5625 -169.4375 l 1
82.4375 278.1875 m 1
 190.1875 174.9375 l 1
 190.1875 150.5 l 1
 190.25 150.5 l 1
 190.25 -71.4375 l 1
 82.5 -169.4375 l 1
 82.5 38.3125 l 2
 82.5 40.0625 82.5 41.5625 82.5 43.3125 c 0
 82.5 48.875 82.4375 53.625 82.4375 59.25 c 2
 82.4375 278.125 l 1
 82.4375 278.1875 l 1
113.1875 -212.375 m 1
 216.4375 -104.625 l 1
 462.8125 -104.625 l 1
 560.8125 -212.375 l 1
 353 -212.375 l 2
 351.25 -212.375 349.75 -212.375 348 -212.375 c 0
 342.4375 -212.375 337.6875 -212.5 332.0625 -212.5 c 2
 113.1875 -212.5 l 1
 113.1875 -212.375 l 1
EndSplineSet
EndChar

StartChar: ocircumflex
Encoding: 244 244 62
Width: 1000
VWidth: 0
Flags: HW
LayerCount: 2
Back
Fore
SplineSet
314.5625 948 m 5
 211.3125 840.25 l 5
 211.375 840.25 l 5
 430.25 840.25 l 6
 435.875 840.25 440.625 840.3125 446.1875 840.3125 c 4
 447.9375 840.3125 449.4375 840.3125 451.1875 840.3125 c 6
 459 840.3125 l 5
 361 948.0625 l 5
 314.5625 948 l 5
589.6875 760.125 m 1
 589.6875 760.0625 l 1
 589.6875 541.1875 l 2
 589.6875 535.5625 589.625 530.8125 589.625 525.25 c 0
 589.625 523.5 589.625 522 589.625 520.25 c 2
 589.625 312.4375 l 1
 481.875 410.4375 l 1
 481.875 632.375 l 1
 481.9375 632.4375 l 1
 481.9375 656.875 l 1
 589.6875 760.125 l 1
80.5625 312.5 m 1
 80.5625 312.5625 l 1
 80.5625 531.4375 l 2
 80.5625 537.0625 80.625 541.8125 80.625 547.375 c 0
 80.625 549.125 80.625 550.625 80.625 552.375 c 2
 80.625 760.125 l 1
 188.375 662.125 l 1
 188.375 440.1875 l 1
 188.3125 440.1875 l 1
 188.3125 415.75 l 1
 80.5625 312.5 l 1
111.3125 803.0625 m 1
 111.375 803.0625 l 1
 330.25 803.0625 l 2
 335.875 803.0625 340.625 803 346.1875 803 c 0
 347.9375 803 349.4375 803 351.1875 803 c 2
 559 803 l 1
 461 695.25 l 1
 239.0625 695.25 l 1
 239 695.3125 l 1
 214.5625 695.3125 l 1
 111.3125 803.0625 l 1
591.5625 -169.4375 m 1
 483.8125 -66.1875 l 1
 483.8125 -41.75 l 1
 483.75 -41.75 l 1
 483.75 180.1875 l 1
 591.5 278.1875 l 1
 591.5 70.375 l 2
 591.5 68.625 591.5 67.125 591.5 65.375 c 0
 591.5 59.8125 591.5625 55.0625 591.5625 49.4375 c 2
 591.5625 -169.4375 l 1
82.4375 278.1875 m 1
 190.1875 174.9375 l 1
 190.1875 150.5 l 1
 190.25 150.5 l 1
 190.25 -71.4375 l 1
 82.5 -169.4375 l 1
 82.5 38.3125 l 2
 82.5 40.0625 82.5 41.5625 82.5 43.3125 c 0
 82.5 48.875 82.4375 53.625 82.4375 59.25 c 2
 82.4375 278.125 l 1
 82.4375 278.1875 l 1
113.1875 -212.375 m 1
 216.4375 -104.625 l 1
 462.8125 -104.625 l 1
 560.8125 -212.375 l 1
 353 -212.375 l 2
 351.25 -212.375 349.75 -212.375 348 -212.375 c 0
 342.4375 -212.375 337.6875 -212.5 332.0625 -212.5 c 2
 113.1875 -212.5 l 1
 113.1875 -212.375 l 1
EndSplineSet
EndChar

StartChar: oacute
Encoding: 243 243 63
Width: 1000
VWidth: 0
Flags: HW
LayerCount: 2
Back
Fore
SplineSet
364.2578125 959.204101562 m 5
 474.2421875 895.704101562 l 5
 350.7421875 681.795898438 l 5
 240.7578125 745.295898438 l 5
 364.2578125 959.204101562 l 5
589.6875 760.125 m 1
 589.6875 760.0625 l 1
 589.6875 541.1875 l 2
 589.6875 535.5625 589.625 530.8125 589.625 525.25 c 0
 589.625 523.5 589.625 522 589.625 520.25 c 2
 589.625 312.4375 l 1
 481.875 410.4375 l 1
 481.875 632.375 l 1
 481.9375 632.4375 l 1
 481.9375 656.875 l 1
 589.6875 760.125 l 1
80.5625 312.5 m 1
 80.5625 312.5625 l 1
 80.5625 531.4375 l 2
 80.5625 537.0625 80.625 541.8125 80.625 547.375 c 0
 80.625 549.125 80.625 550.625 80.625 552.375 c 2
 80.625 760.125 l 1
 188.375 662.125 l 1
 188.375 440.1875 l 1
 188.3125 440.1875 l 1
 188.3125 415.75 l 1
 80.5625 312.5 l 1
111.3125 803.0625 m 1
 111.375 803.0625 l 1
 330.25 803.0625 l 2
 335.875 803.0625 340.625 803 346.1875 803 c 0
 347.9375 803 349.4375 803 351.1875 803 c 2
 559 803 l 1
 461 695.25 l 1
 239.0625 695.25 l 1
 239 695.3125 l 1
 214.5625 695.3125 l 1
 111.3125 803.0625 l 1
591.5625 -169.4375 m 1
 483.8125 -66.1875 l 1
 483.8125 -41.75 l 1
 483.75 -41.75 l 1
 483.75 180.1875 l 1
 591.5 278.1875 l 1
 591.5 70.375 l 2
 591.5 68.625 591.5 67.125 591.5 65.375 c 0
 591.5 59.8125 591.5625 55.0625 591.5625 49.4375 c 2
 591.5625 -169.4375 l 1
82.4375 278.1875 m 1
 190.1875 174.9375 l 1
 190.1875 150.5 l 1
 190.25 150.5 l 1
 190.25 -71.4375 l 1
 82.5 -169.4375 l 1
 82.5 38.3125 l 2
 82.5 40.0625 82.5 41.5625 82.5 43.3125 c 0
 82.5 48.875 82.4375 53.625 82.4375 59.25 c 2
 82.4375 278.125 l 1
 82.4375 278.1875 l 1
113.1875 -212.375 m 1
 216.4375 -104.625 l 1
 462.8125 -104.625 l 1
 560.8125 -212.375 l 1
 353 -212.375 l 2
 351.25 -212.375 349.75 -212.375 348 -212.375 c 0
 342.4375 -212.375 337.6875 -212.5 332.0625 -212.5 c 2
 113.1875 -212.5 l 1
 113.1875 -212.375 l 1
EndSplineSet
EndChar

StartChar: ograve
Encoding: 242 242 64
Width: 1000
VWidth: 0
Flags: HW
LayerCount: 2
Back
Fore
SplineSet
350.7421875 959.204101562 m 5
 240.7578125 895.704101562 l 5
 364.2578125 681.795898438 l 5
 474.2421875 745.295898438 l 5
 350.7421875 959.204101562 l 5
589.6875 760.125 m 1
 589.6875 760.0625 l 1
 589.6875 541.1875 l 2
 589.6875 535.5625 589.625 530.8125 589.625 525.25 c 0
 589.625 523.5 589.625 522 589.625 520.25 c 2
 589.625 312.4375 l 1
 481.875 410.4375 l 1
 481.875 632.375 l 1
 481.9375 632.4375 l 1
 481.9375 656.875 l 1
 589.6875 760.125 l 1
80.5625 312.5 m 1
 80.5625 312.5625 l 1
 80.5625 531.4375 l 2
 80.5625 537.0625 80.625 541.8125 80.625 547.375 c 0
 80.625 549.125 80.625 550.625 80.625 552.375 c 2
 80.625 760.125 l 1
 188.375 662.125 l 1
 188.375 440.1875 l 1
 188.3125 440.1875 l 1
 188.3125 415.75 l 1
 80.5625 312.5 l 1
111.3125 803.0625 m 1
 111.375 803.0625 l 1
 330.25 803.0625 l 2
 335.875 803.0625 340.625 803 346.1875 803 c 0
 347.9375 803 349.4375 803 351.1875 803 c 2
 559 803 l 1
 461 695.25 l 1
 239.0625 695.25 l 1
 239 695.3125 l 1
 214.5625 695.3125 l 1
 111.3125 803.0625 l 1
591.5625 -169.4375 m 1
 483.8125 -66.1875 l 1
 483.8125 -41.75 l 1
 483.75 -41.75 l 1
 483.75 180.1875 l 1
 591.5 278.1875 l 1
 591.5 70.375 l 2
 591.5 68.625 591.5 67.125 591.5 65.375 c 0
 591.5 59.8125 591.5625 55.0625 591.5625 49.4375 c 2
 591.5625 -169.4375 l 1
82.4375 278.1875 m 1
 190.1875 174.9375 l 1
 190.1875 150.5 l 1
 190.25 150.5 l 1
 190.25 -71.4375 l 1
 82.5 -169.4375 l 1
 82.5 38.3125 l 2
 82.5 40.0625 82.5 41.5625 82.5 43.3125 c 0
 82.5 48.875 82.4375 53.625 82.4375 59.25 c 2
 82.4375 278.125 l 1
 82.4375 278.1875 l 1
113.1875 -212.375 m 1
 216.4375 -104.625 l 1
 462.8125 -104.625 l 1
 560.8125 -212.375 l 1
 353 -212.375 l 2
 351.25 -212.375 349.75 -212.375 348 -212.375 c 0
 342.4375 -212.375 337.6875 -212.5 332.0625 -212.5 c 2
 113.1875 -212.5 l 1
 113.1875 -212.375 l 1
EndSplineSet
EndChar

StartChar: eth
Encoding: 240 240 65
Width: 1000
VWidth: 0
Flags: HW
LayerCount: 2
Back
Fore
SplineSet
163.4375 869.6875 m 5
 128.5625 896.625 l 5
 198.3125 950.5 l 5
 471.9375 950.5 l 5
 541.6875 896.625 l 5
 471.9375 842.75 l 5
 198.3125 842.75 l 5
 163.4375 869.6875 l 5
589.6875 760.125 m 1
 589.6875 760.0625 l 1
 589.6875 541.1875 l 2
 589.6875 535.5625 589.625 530.8125 589.625 525.25 c 0
 589.625 523.5 589.625 522 589.625 520.25 c 2
 589.625 312.4375 l 1
 481.875 410.4375 l 1
 481.875 632.375 l 1
 481.9375 632.4375 l 1
 481.9375 656.875 l 1
 589.6875 760.125 l 1
80.5625 312.5 m 1
 80.5625 312.5625 l 1
 80.5625 531.4375 l 2
 80.5625 537.0625 80.625 541.8125 80.625 547.375 c 0
 80.625 549.125 80.625 550.625 80.625 552.375 c 2
 80.625 760.125 l 1
 188.375 662.125 l 1
 188.375 440.1875 l 1
 188.3125 440.1875 l 1
 188.3125 415.75 l 1
 80.5625 312.5 l 1
111.3125 803.0625 m 1
 111.375 803.0625 l 1
 330.25 803.0625 l 2
 335.875 803.0625 340.625 803 346.1875 803 c 0
 347.9375 803 349.4375 803 351.1875 803 c 2
 559 803 l 1
 461 695.25 l 1
 239.0625 695.25 l 1
 239 695.3125 l 1
 214.5625 695.3125 l 1
 111.3125 803.0625 l 1
591.5625 -169.4375 m 1
 483.8125 -66.1875 l 1
 483.8125 -41.75 l 1
 483.75 -41.75 l 1
 483.75 180.1875 l 1
 591.5 278.1875 l 1
 591.5 70.375 l 2
 591.5 68.625 591.5 67.125 591.5 65.375 c 0
 591.5 59.8125 591.5625 55.0625 591.5625 49.4375 c 2
 591.5625 -169.4375 l 1
82.4375 278.1875 m 1
 190.1875 174.9375 l 1
 190.1875 150.5 l 1
 190.25 150.5 l 1
 190.25 -71.4375 l 1
 82.5 -169.4375 l 1
 82.5 38.3125 l 2
 82.5 40.0625 82.5 41.5625 82.5 43.3125 c 0
 82.5 48.875 82.4375 53.625 82.4375 59.25 c 2
 82.4375 278.125 l 1
 82.4375 278.1875 l 1
113.1875 -212.375 m 1
 216.4375 -104.625 l 1
 462.8125 -104.625 l 1
 560.8125 -212.375 l 1
 353 -212.375 l 2
 351.25 -212.375 349.75 -212.375 348 -212.375 c 0
 342.4375 -212.375 337.6875 -212.5 332.0625 -212.5 c 2
 113.1875 -212.5 l 1
 113.1875 -212.375 l 1
EndSplineSet
EndChar

StartChar: ugrave
Encoding: 249 249 66
Width: 1000
VWidth: 0
Flags: HW
LayerCount: 2
Back
Fore
SplineSet
350.7421875 959.204101562 m 5
 240.7578125 895.704101562 l 5
 364.2578125 681.795898438 l 5
 474.2421875 745.295898438 l 5
 350.7421875 959.204101562 l 5
589.6875 760.125 m 1
 589.6875 760.0625 l 1
 589.6875 541.1875 l 2
 589.6875 535.5625 589.625 530.8125 589.625 525.25 c 0
 589.625 523.5 589.625 522 589.625 520.25 c 2
 589.625 312.4375 l 1
 481.875 410.4375 l 1
 481.875 632.375 l 1
 481.9375 632.4375 l 1
 481.9375 656.875 l 1
 589.6875 760.125 l 1
80.5625 312.5 m 1
 80.5625 312.5625 l 1
 80.5625 531.4375 l 2
 80.5625 537.0625 80.625 541.8125 80.625 547.375 c 0
 80.625 549.125 80.625 550.625 80.625 552.375 c 2
 80.625 760.125 l 1
 188.375 662.125 l 1
 188.375 440.1875 l 1
 188.3125 440.1875 l 1
 188.3125 415.75 l 1
 80.5625 312.5 l 1
591.5625 -169.4375 m 1
 483.8125 -66.1875 l 1
 483.8125 -41.75 l 1
 483.75 -41.75 l 1
 483.75 180.1875 l 1
 591.5 278.1875 l 1
 591.5 70.375 l 2
 591.5 68.625 591.5 67.125 591.5 65.375 c 0
 591.5 59.8125 591.5625 55.0625 591.5625 49.4375 c 2
 591.5625 -169.4375 l 1
82.4375 278.1875 m 1
 190.1875 174.9375 l 1
 190.1875 150.5 l 1
 190.25 150.5 l 1
 190.25 -71.4375 l 1
 82.5 -169.4375 l 1
 82.5 38.3125 l 2
 82.5 40.0625 82.5 41.5625 82.5 43.3125 c 0
 82.5 48.875 82.4375 53.625 82.4375 59.25 c 2
 82.4375 278.125 l 1
 82.4375 278.1875 l 1
113.1875 -212.375 m 1
 216.4375 -104.625 l 1
 462.8125 -104.625 l 1
 560.8125 -212.375 l 1
 353 -212.375 l 2
 351.25 -212.375 349.75 -212.375 348 -212.375 c 0
 342.4375 -212.375 337.6875 -212.5 332.0625 -212.5 c 2
 113.1875 -212.5 l 1
 113.1875 -212.375 l 1
EndSplineSet
EndChar

StartChar: uacute
Encoding: 250 250 67
Width: 1000
VWidth: 0
Flags: HW
LayerCount: 2
Back
Fore
SplineSet
364.2578125 959.204101562 m 5
 474.2421875 895.704101562 l 5
 350.7421875 681.795898438 l 5
 240.7578125 745.295898438 l 5
 364.2578125 959.204101562 l 5
589.6875 760.125 m 1
 589.6875 760.0625 l 1
 589.6875 541.1875 l 2
 589.6875 535.5625 589.625 530.8125 589.625 525.25 c 0
 589.625 523.5 589.625 522 589.625 520.25 c 2
 589.625 312.4375 l 1
 481.875 410.4375 l 1
 481.875 632.375 l 1
 481.9375 632.4375 l 1
 481.9375 656.875 l 1
 589.6875 760.125 l 1
80.5625 312.5 m 1
 80.5625 312.5625 l 1
 80.5625 531.4375 l 2
 80.5625 537.0625 80.625 541.8125 80.625 547.375 c 0
 80.625 549.125 80.625 550.625 80.625 552.375 c 2
 80.625 760.125 l 1
 188.375 662.125 l 1
 188.375 440.1875 l 1
 188.3125 440.1875 l 1
 188.3125 415.75 l 1
 80.5625 312.5 l 1
591.5625 -169.4375 m 1
 483.8125 -66.1875 l 1
 483.8125 -41.75 l 1
 483.75 -41.75 l 1
 483.75 180.1875 l 1
 591.5 278.1875 l 1
 591.5 70.375 l 2
 591.5 68.625 591.5 67.125 591.5 65.375 c 0
 591.5 59.8125 591.5625 55.0625 591.5625 49.4375 c 2
 591.5625 -169.4375 l 1
82.4375 278.1875 m 1
 190.1875 174.9375 l 1
 190.1875 150.5 l 1
 190.25 150.5 l 1
 190.25 -71.4375 l 1
 82.5 -169.4375 l 1
 82.5 38.3125 l 2
 82.5 40.0625 82.5 41.5625 82.5 43.3125 c 0
 82.5 48.875 82.4375 53.625 82.4375 59.25 c 2
 82.4375 278.125 l 1
 82.4375 278.1875 l 1
113.1875 -212.375 m 1
 216.4375 -104.625 l 1
 462.8125 -104.625 l 1
 560.8125 -212.375 l 1
 353 -212.375 l 2
 351.25 -212.375 349.75 -212.375 348 -212.375 c 0
 342.4375 -212.375 337.6875 -212.5 332.0625 -212.5 c 2
 113.1875 -212.5 l 1
 113.1875 -212.375 l 1
EndSplineSet
EndChar

StartChar: ucircumflex
Encoding: 251 251 68
Width: 1000
VWidth: 0
Flags: HW
LayerCount: 2
Back
Fore
SplineSet
314.5625 838 m 5
 211.3125 730.25 l 5
 211.375 730.25 l 5
 430.25 730.25 l 6
 435.875 730.25 440.625 730.3125 446.1875 730.3125 c 4
 447.9375 730.3125 449.4375 730.3125 451.1875 730.3125 c 6
 459 730.3125 l 5
 361 838.0625 l 5
 314.5625 838 l 5
589.6875 760.125 m 1
 589.6875 760.0625 l 1
 589.6875 541.1875 l 2
 589.6875 535.5625 589.625 530.8125 589.625 525.25 c 0
 589.625 523.5 589.625 522 589.625 520.25 c 2
 589.625 312.4375 l 1
 481.875 410.4375 l 1
 481.875 632.375 l 1
 481.9375 632.4375 l 1
 481.9375 656.875 l 1
 589.6875 760.125 l 1
80.5625 312.5 m 1
 80.5625 312.5625 l 1
 80.5625 531.4375 l 2
 80.5625 537.0625 80.625 541.8125 80.625 547.375 c 0
 80.625 549.125 80.625 550.625 80.625 552.375 c 2
 80.625 760.125 l 1
 188.375 662.125 l 1
 188.375 440.1875 l 1
 188.3125 440.1875 l 1
 188.3125 415.75 l 1
 80.5625 312.5 l 1
591.5625 -169.4375 m 1
 483.8125 -66.1875 l 1
 483.8125 -41.75 l 1
 483.75 -41.75 l 1
 483.75 180.1875 l 1
 591.5 278.1875 l 1
 591.5 70.375 l 2
 591.5 68.625 591.5 67.125 591.5 65.375 c 0
 591.5 59.8125 591.5625 55.0625 591.5625 49.4375 c 2
 591.5625 -169.4375 l 1
82.4375 278.1875 m 1
 190.1875 174.9375 l 1
 190.1875 150.5 l 1
 190.25 150.5 l 1
 190.25 -71.4375 l 1
 82.5 -169.4375 l 1
 82.5 38.3125 l 2
 82.5 40.0625 82.5 41.5625 82.5 43.3125 c 0
 82.5 48.875 82.4375 53.625 82.4375 59.25 c 2
 82.4375 278.125 l 1
 82.4375 278.1875 l 1
113.1875 -212.375 m 1
 216.4375 -104.625 l 1
 462.8125 -104.625 l 1
 560.8125 -212.375 l 1
 353 -212.375 l 2
 351.25 -212.375 349.75 -212.375 348 -212.375 c 0
 342.4375 -212.375 337.6875 -212.5 332.0625 -212.5 c 2
 113.1875 -212.5 l 1
 113.1875 -212.375 l 1
EndSplineSet
EndChar

StartChar: udieresis
Encoding: 252 252 69
Width: 1000
VWidth: 0
Flags: HW
LayerCount: 2
Back
Fore
SplineSet
361 914 m 5
 427 914 l 5
 427 852 l 5
 361 852 l 5
 361 914 l 5
241 914 m 5
 307 914 l 5
 307 852 l 5
 241 852 l 5
 241 914 l 5
589.6875 760.125 m 1
 589.6875 760.0625 l 1
 589.6875 541.1875 l 2
 589.6875 535.5625 589.625 530.8125 589.625 525.25 c 0
 589.625 523.5 589.625 522 589.625 520.25 c 2
 589.625 312.4375 l 1
 481.875 410.4375 l 1
 481.875 632.375 l 1
 481.9375 632.4375 l 1
 481.9375 656.875 l 1
 589.6875 760.125 l 1
80.5625 312.5 m 1
 80.5625 312.5625 l 1
 80.5625 531.4375 l 2
 80.5625 537.0625 80.625 541.8125 80.625 547.375 c 0
 80.625 549.125 80.625 550.625 80.625 552.375 c 2
 80.625 760.125 l 1
 188.375 662.125 l 1
 188.375 440.1875 l 1
 188.3125 440.1875 l 1
 188.3125 415.75 l 1
 80.5625 312.5 l 1
591.5625 -169.4375 m 1
 483.8125 -66.1875 l 1
 483.8125 -41.75 l 1
 483.75 -41.75 l 1
 483.75 180.1875 l 1
 591.5 278.1875 l 1
 591.5 70.375 l 2
 591.5 68.625 591.5 67.125 591.5 65.375 c 0
 591.5 59.8125 591.5625 55.0625 591.5625 49.4375 c 2
 591.5625 -169.4375 l 1
82.4375 278.1875 m 1
 190.1875 174.9375 l 1
 190.1875 150.5 l 1
 190.25 150.5 l 1
 190.25 -71.4375 l 1
 82.5 -169.4375 l 1
 82.5 38.3125 l 2
 82.5 40.0625 82.5 41.5625 82.5 43.3125 c 0
 82.5 48.875 82.4375 53.625 82.4375 59.25 c 2
 82.4375 278.125 l 1
 82.4375 278.1875 l 1
113.1875 -212.375 m 1
 216.4375 -104.625 l 1
 462.8125 -104.625 l 1
 560.8125 -212.375 l 1
 353 -212.375 l 2
 351.25 -212.375 349.75 -212.375 348 -212.375 c 0
 342.4375 -212.375 337.6875 -212.5 332.0625 -212.5 c 2
 113.1875 -212.5 l 1
 113.1875 -212.375 l 1
EndSplineSet
EndChar

StartChar: Udieresis
Encoding: 220 220 70
Width: 1000
VWidth: 0
Flags: HW
LayerCount: 2
Back
Fore
SplineSet
361 914 m 5
 427 914 l 5
 427 852 l 5
 361 852 l 5
 361 914 l 5
241 914 m 5
 307 914 l 5
 307 852 l 5
 241 852 l 5
 241 914 l 5
589.6875 760.125 m 1
 589.6875 760.0625 l 1
 589.6875 541.1875 l 2
 589.6875 535.5625 589.625 530.8125 589.625 525.25 c 0
 589.625 523.5 589.625 522 589.625 520.25 c 2
 589.625 312.4375 l 1
 481.875 410.4375 l 1
 481.875 632.375 l 1
 481.9375 632.4375 l 1
 481.9375 656.875 l 1
 589.6875 760.125 l 1
80.5625 312.5 m 1
 80.5625 312.5625 l 1
 80.5625 531.4375 l 2
 80.5625 537.0625 80.625 541.8125 80.625 547.375 c 0
 80.625 549.125 80.625 550.625 80.625 552.375 c 2
 80.625 760.125 l 1
 188.375 662.125 l 1
 188.375 440.1875 l 1
 188.3125 440.1875 l 1
 188.3125 415.75 l 1
 80.5625 312.5 l 1
591.5625 -169.4375 m 1
 483.8125 -66.1875 l 1
 483.8125 -41.75 l 1
 483.75 -41.75 l 1
 483.75 180.1875 l 1
 591.5 278.1875 l 1
 591.5 70.375 l 2
 591.5 68.625 591.5 67.125 591.5 65.375 c 0
 591.5 59.8125 591.5625 55.0625 591.5625 49.4375 c 2
 591.5625 -169.4375 l 1
82.4375 278.1875 m 1
 190.1875 174.9375 l 1
 190.1875 150.5 l 1
 190.25 150.5 l 1
 190.25 -71.4375 l 1
 82.5 -169.4375 l 1
 82.5 38.3125 l 2
 82.5 40.0625 82.5 41.5625 82.5 43.3125 c 0
 82.5 48.875 82.4375 53.625 82.4375 59.25 c 2
 82.4375 278.125 l 1
 82.4375 278.1875 l 1
113.1875 -212.375 m 1
 216.4375 -104.625 l 1
 462.8125 -104.625 l 1
 560.8125 -212.375 l 1
 353 -212.375 l 2
 351.25 -212.375 349.75 -212.375 348 -212.375 c 0
 342.4375 -212.375 337.6875 -212.5 332.0625 -212.5 c 2
 113.1875 -212.5 l 1
 113.1875 -212.375 l 1
EndSplineSet
EndChar

StartChar: Ucircumflex
Encoding: 219 219 71
Width: 1000
VWidth: 0
Flags: HW
LayerCount: 2
Back
Fore
SplineSet
314.5625 948 m 5
 211.3125 840.25 l 5
 211.375 840.25 l 5
 430.25 840.25 l 6
 435.875 840.25 440.625 840.3125 446.1875 840.3125 c 4
 447.9375 840.3125 449.4375 840.3125 451.1875 840.3125 c 6
 459 840.3125 l 5
 361 948.0625 l 5
 314.5625 948 l 5
589.6875 760.125 m 1
 589.6875 760.0625 l 1
 589.6875 541.1875 l 2
 589.6875 535.5625 589.625 530.8125 589.625 525.25 c 0
 589.625 523.5 589.625 522 589.625 520.25 c 2
 589.625 312.4375 l 1
 481.875 410.4375 l 1
 481.875 632.375 l 1
 481.9375 632.4375 l 1
 481.9375 656.875 l 1
 589.6875 760.125 l 1
80.5625 312.5 m 1
 80.5625 312.5625 l 1
 80.5625 531.4375 l 2
 80.5625 537.0625 80.625 541.8125 80.625 547.375 c 0
 80.625 549.125 80.625 550.625 80.625 552.375 c 2
 80.625 760.125 l 1
 188.375 662.125 l 1
 188.375 440.1875 l 1
 188.3125 440.1875 l 1
 188.3125 415.75 l 1
 80.5625 312.5 l 1
591.5625 -169.4375 m 1
 483.8125 -66.1875 l 1
 483.8125 -41.75 l 1
 483.75 -41.75 l 1
 483.75 180.1875 l 1
 591.5 278.1875 l 1
 591.5 70.375 l 2
 591.5 68.625 591.5 67.125 591.5 65.375 c 0
 591.5 59.8125 591.5625 55.0625 591.5625 49.4375 c 2
 591.5625 -169.4375 l 1
82.4375 278.1875 m 1
 190.1875 174.9375 l 1
 190.1875 150.5 l 1
 190.25 150.5 l 1
 190.25 -71.4375 l 1
 82.5 -169.4375 l 1
 82.5 38.3125 l 2
 82.5 40.0625 82.5 41.5625 82.5 43.3125 c 0
 82.5 48.875 82.4375 53.625 82.4375 59.25 c 2
 82.4375 278.125 l 1
 82.4375 278.1875 l 1
113.1875 -212.375 m 1
 216.4375 -104.625 l 1
 462.8125 -104.625 l 1
 560.8125 -212.375 l 1
 353 -212.375 l 2
 351.25 -212.375 349.75 -212.375 348 -212.375 c 0
 342.4375 -212.375 337.6875 -212.5 332.0625 -212.5 c 2
 113.1875 -212.5 l 1
 113.1875 -212.375 l 1
EndSplineSet
EndChar

StartChar: Ugrave
Encoding: 217 217 72
Width: 1000
VWidth: 0
Flags: HW
LayerCount: 2
Back
Fore
SplineSet
350.7421875 959.204101562 m 5
 240.7578125 895.704101562 l 5
 364.2578125 681.795898438 l 5
 474.2421875 745.295898438 l 5
 350.7421875 959.204101562 l 5
589.6875 760.125 m 1
 589.6875 760.0625 l 1
 589.6875 541.1875 l 2
 589.6875 535.5625 589.625 530.8125 589.625 525.25 c 0
 589.625 523.5 589.625 522 589.625 520.25 c 2
 589.625 312.4375 l 1
 481.875 410.4375 l 1
 481.875 632.375 l 1
 481.9375 632.4375 l 1
 481.9375 656.875 l 1
 589.6875 760.125 l 1
80.5625 312.5 m 1
 80.5625 312.5625 l 1
 80.5625 531.4375 l 2
 80.5625 537.0625 80.625 541.8125 80.625 547.375 c 0
 80.625 549.125 80.625 550.625 80.625 552.375 c 2
 80.625 760.125 l 1
 188.375 662.125 l 1
 188.375 440.1875 l 1
 188.3125 440.1875 l 1
 188.3125 415.75 l 1
 80.5625 312.5 l 1
591.5625 -169.4375 m 1
 483.8125 -66.1875 l 1
 483.8125 -41.75 l 1
 483.75 -41.75 l 1
 483.75 180.1875 l 1
 591.5 278.1875 l 1
 591.5 70.375 l 2
 591.5 68.625 591.5 67.125 591.5 65.375 c 0
 591.5 59.8125 591.5625 55.0625 591.5625 49.4375 c 2
 591.5625 -169.4375 l 1
82.4375 278.1875 m 1
 190.1875 174.9375 l 1
 190.1875 150.5 l 1
 190.25 150.5 l 1
 190.25 -71.4375 l 1
 82.5 -169.4375 l 1
 82.5 38.3125 l 2
 82.5 40.0625 82.5 41.5625 82.5 43.3125 c 0
 82.5 48.875 82.4375 53.625 82.4375 59.25 c 2
 82.4375 278.125 l 1
 82.4375 278.1875 l 1
113.1875 -212.375 m 1
 216.4375 -104.625 l 1
 462.8125 -104.625 l 1
 560.8125 -212.375 l 1
 353 -212.375 l 2
 351.25 -212.375 349.75 -212.375 348 -212.375 c 0
 342.4375 -212.375 337.6875 -212.5 332.0625 -212.5 c 2
 113.1875 -212.5 l 1
 113.1875 -212.375 l 1
EndSplineSet
EndChar

StartChar: Uacute
Encoding: 218 218 73
Width: 1000
VWidth: 0
Flags: HW
LayerCount: 2
Back
Fore
SplineSet
364.2578125 959.204101562 m 5
 474.2421875 895.704101562 l 5
 350.7421875 681.795898438 l 5
 240.7578125 745.295898438 l 5
 364.2578125 959.204101562 l 5
589.6875 760.125 m 1
 589.6875 760.0625 l 1
 589.6875 541.1875 l 2
 589.6875 535.5625 589.625 530.8125 589.625 525.25 c 0
 589.625 523.5 589.625 522 589.625 520.25 c 2
 589.625 312.4375 l 1
 481.875 410.4375 l 1
 481.875 632.375 l 1
 481.9375 632.4375 l 1
 481.9375 656.875 l 1
 589.6875 760.125 l 1
80.5625 312.5 m 1
 80.5625 312.5625 l 1
 80.5625 531.4375 l 2
 80.5625 537.0625 80.625 541.8125 80.625 547.375 c 0
 80.625 549.125 80.625 550.625 80.625 552.375 c 2
 80.625 760.125 l 1
 188.375 662.125 l 1
 188.375 440.1875 l 1
 188.3125 440.1875 l 1
 188.3125 415.75 l 1
 80.5625 312.5 l 1
591.5625 -169.4375 m 1
 483.8125 -66.1875 l 1
 483.8125 -41.75 l 1
 483.75 -41.75 l 1
 483.75 180.1875 l 1
 591.5 278.1875 l 1
 591.5 70.375 l 2
 591.5 68.625 591.5 67.125 591.5 65.375 c 0
 591.5 59.8125 591.5625 55.0625 591.5625 49.4375 c 2
 591.5625 -169.4375 l 1
82.4375 278.1875 m 1
 190.1875 174.9375 l 1
 190.1875 150.5 l 1
 190.25 150.5 l 1
 190.25 -71.4375 l 1
 82.5 -169.4375 l 1
 82.5 38.3125 l 2
 82.5 40.0625 82.5 41.5625 82.5 43.3125 c 0
 82.5 48.875 82.4375 53.625 82.4375 59.25 c 2
 82.4375 278.125 l 1
 82.4375 278.1875 l 1
113.1875 -212.375 m 1
 216.4375 -104.625 l 1
 462.8125 -104.625 l 1
 560.8125 -212.375 l 1
 353 -212.375 l 2
 351.25 -212.375 349.75 -212.375 348 -212.375 c 0
 342.4375 -212.375 337.6875 -212.5 332.0625 -212.5 c 2
 113.1875 -212.5 l 1
 113.1875 -212.375 l 1
EndSplineSet
EndChar

StartChar: igrave
Encoding: 236 236 74
Width: 1000
VWidth: 0
Flags: HW
LayerCount: 2
Back
Fore
SplineSet
350.7421875 959.204101562 m 5
 240.7578125 895.704101562 l 5
 364.2578125 681.795898438 l 5
 474.2421875 745.295898438 l 5
 350.7421875 959.204101562 l 5
589.6875 760.125 m 1
 589.6875 760.0625 l 1
 589.6875 541.1875 l 2
 589.6875 535.5625 589.625 530.8125 589.625 525.25 c 0
 589.625 523.5 589.625 522 589.625 520.25 c 2
 589.625 312.4375 l 1
 481.875 410.4375 l 1
 481.875 632.375 l 1
 481.9375 632.4375 l 1
 481.9375 656.875 l 1
 589.6875 760.125 l 1
591.5625 -169.4375 m 1
 483.8125 -66.1875 l 1
 483.8125 -41.75 l 1
 483.75 -41.75 l 1
 483.75 180.1875 l 1
 591.5 278.1875 l 1
 591.5 70.375 l 2
 591.5 68.625 591.5 67.125 591.5 65.375 c 0
 591.5 59.8125 591.5625 55.0625 591.5625 49.4375 c 2
 591.5625 -169.4375 l 1
EndSplineSet
EndChar

StartChar: iacute
Encoding: 237 237 75
Width: 1000
VWidth: 0
Flags: HW
LayerCount: 2
Back
Fore
SplineSet
364.2578125 959.204101562 m 5
 474.2421875 895.704101562 l 5
 350.7421875 681.795898438 l 5
 240.7578125 745.295898438 l 5
 364.2578125 959.204101562 l 5
589.6875 760.125 m 1
 589.6875 760.0625 l 1
 589.6875 541.1875 l 2
 589.6875 535.5625 589.625 530.8125 589.625 525.25 c 0
 589.625 523.5 589.625 522 589.625 520.25 c 2
 589.625 312.4375 l 1
 481.875 410.4375 l 1
 481.875 632.375 l 1
 481.9375 632.4375 l 1
 481.9375 656.875 l 1
 589.6875 760.125 l 1
591.5625 -169.4375 m 1
 483.8125 -66.1875 l 1
 483.8125 -41.75 l 1
 483.75 -41.75 l 1
 483.75 180.1875 l 1
 591.5 278.1875 l 1
 591.5 70.375 l 2
 591.5 68.625 591.5 67.125 591.5 65.375 c 0
 591.5 59.8125 591.5625 55.0625 591.5625 49.4375 c 2
 591.5625 -169.4375 l 1
EndSplineSet
EndChar

StartChar: icircumflex
Encoding: 238 238 76
Width: 1000
VWidth: 0
Flags: HW
LayerCount: 2
Back
Fore
SplineSet
524.5625 908 m 5
 421.3125 800.25 l 5
 421.375 800.25 l 5
 640.25 800.25 l 6
 645.875 800.25 650.625 800.3125 656.1875 800.3125 c 4
 657.9375 800.3125 659.4375 800.3125 661.1875 800.3125 c 6
 669 800.3125 l 5
 571 908.0625 l 5
 524.5625 908 l 5
589.6875 760.125 m 1
 589.6875 760.0625 l 1
 589.6875 541.1875 l 2
 589.6875 535.5625 589.625 530.8125 589.625 525.25 c 0
 589.625 523.5 589.625 522 589.625 520.25 c 2
 589.625 312.4375 l 1
 481.875 410.4375 l 1
 481.875 632.375 l 1
 481.9375 632.4375 l 1
 481.9375 656.875 l 1
 589.6875 760.125 l 1
591.5625 -169.4375 m 1
 483.8125 -66.1875 l 1
 483.8125 -41.75 l 1
 483.75 -41.75 l 1
 483.75 180.1875 l 1
 591.5 278.1875 l 1
 591.5 70.375 l 2
 591.5 68.625 591.5 67.125 591.5 65.375 c 0
 591.5 59.8125 591.5625 55.0625 591.5625 49.4375 c 2
 591.5625 -169.4375 l 1
EndSplineSet
EndChar

StartChar: idieresis
Encoding: 239 239 77
Width: 1000
VWidth: 0
Flags: HW
LayerCount: 2
Back
Fore
SplineSet
581 894 m 5
 647 894 l 5
 647 832 l 5
 581 832 l 5
 581 894 l 5
461 894 m 5
 527 894 l 5
 527 832 l 5
 461 832 l 5
 461 894 l 5
589.6875 760.125 m 1
 589.6875 760.0625 l 1
 589.6875 541.1875 l 2
 589.6875 535.5625 589.625 530.8125 589.625 525.25 c 0
 589.625 523.5 589.625 522 589.625 520.25 c 2
 589.625 312.4375 l 1
 481.875 410.4375 l 1
 481.875 632.375 l 1
 481.9375 632.4375 l 1
 481.9375 656.875 l 1
 589.6875 760.125 l 1
591.5625 -169.4375 m 1
 483.8125 -66.1875 l 1
 483.8125 -41.75 l 1
 483.75 -41.75 l 1
 483.75 180.1875 l 1
 591.5 278.1875 l 1
 591.5 70.375 l 2
 591.5 68.625 591.5 67.125 591.5 65.375 c 0
 591.5 59.8125 591.5625 55.0625 591.5625 49.4375 c 2
 591.5625 -169.4375 l 1
EndSplineSet
EndChar

StartChar: Igrave
Encoding: 204 204 78
Width: 1000
VWidth: 0
Flags: HW
LayerCount: 2
Back
Fore
SplineSet
350.7421875 959.204101562 m 5
 240.7578125 895.704101562 l 5
 364.2578125 681.795898438 l 5
 474.2421875 745.295898438 l 5
 350.7421875 959.204101562 l 5
589.6875 760.125 m 1
 589.6875 760.0625 l 1
 589.6875 541.1875 l 2
 589.6875 535.5625 589.625 530.8125 589.625 525.25 c 0
 589.625 523.5 589.625 522 589.625 520.25 c 2
 589.625 312.4375 l 1
 481.875 410.4375 l 1
 481.875 632.375 l 1
 481.9375 632.4375 l 1
 481.9375 656.875 l 1
 589.6875 760.125 l 1
591.5625 -169.4375 m 1
 483.8125 -66.1875 l 1
 483.8125 -41.75 l 1
 483.75 -41.75 l 1
 483.75 180.1875 l 1
 591.5 278.1875 l 1
 591.5 70.375 l 2
 591.5 68.625 591.5 67.125 591.5 65.375 c 0
 591.5 59.8125 591.5625 55.0625 591.5625 49.4375 c 2
 591.5625 -169.4375 l 1
EndSplineSet
EndChar

StartChar: Iacute
Encoding: 205 205 79
Width: 1000
VWidth: 0
Flags: HW
LayerCount: 2
Back
Fore
SplineSet
364.2578125 959.204101562 m 5
 474.2421875 895.704101562 l 5
 350.7421875 681.795898438 l 5
 240.7578125 745.295898438 l 5
 364.2578125 959.204101562 l 5
589.6875 760.125 m 1
 589.6875 760.0625 l 1
 589.6875 541.1875 l 2
 589.6875 535.5625 589.625 530.8125 589.625 525.25 c 0
 589.625 523.5 589.625 522 589.625 520.25 c 2
 589.625 312.4375 l 1
 481.875 410.4375 l 1
 481.875 632.375 l 1
 481.9375 632.4375 l 1
 481.9375 656.875 l 1
 589.6875 760.125 l 1
591.5625 -169.4375 m 1
 483.8125 -66.1875 l 1
 483.8125 -41.75 l 1
 483.75 -41.75 l 1
 483.75 180.1875 l 1
 591.5 278.1875 l 1
 591.5 70.375 l 2
 591.5 68.625 591.5 67.125 591.5 65.375 c 0
 591.5 59.8125 591.5625 55.0625 591.5625 49.4375 c 2
 591.5625 -169.4375 l 1
EndSplineSet
EndChar

StartChar: Icircumflex
Encoding: 206 206 80
Width: 1000
VWidth: 0
Flags: HW
LayerCount: 2
Back
Fore
SplineSet
534.5625 908 m 5
 431.3125 800.25 l 5
 431.375 800.25 l 5
 650.25 800.25 l 6
 655.875 800.25 660.625 800.3125 666.1875 800.3125 c 4
 667.9375 800.3125 669.4375 800.3125 671.1875 800.3125 c 6
 679 800.3125 l 5
 581 908.0625 l 5
 534.5625 908 l 5
589.6875 760.125 m 1
 589.6875 760.0625 l 1
 589.6875 541.1875 l 2
 589.6875 535.5625 589.625 530.8125 589.625 525.25 c 0
 589.625 523.5 589.625 522 589.625 520.25 c 2
 589.625 312.4375 l 1
 481.875 410.4375 l 1
 481.875 632.375 l 1
 481.9375 632.4375 l 1
 481.9375 656.875 l 1
 589.6875 760.125 l 1
591.5625 -169.4375 m 1
 483.8125 -66.1875 l 1
 483.8125 -41.75 l 1
 483.75 -41.75 l 1
 483.75 180.1875 l 1
 591.5 278.1875 l 1
 591.5 70.375 l 2
 591.5 68.625 591.5 67.125 591.5 65.375 c 0
 591.5 59.8125 591.5625 55.0625 591.5625 49.4375 c 2
 591.5625 -169.4375 l 1
EndSplineSet
EndChar

StartChar: Idieresis
Encoding: 207 207 81
Width: 1000
VWidth: 0
Flags: HW
LayerCount: 2
Back
Fore
SplineSet
581 914 m 5
 647 914 l 5
 647 852 l 5
 581 852 l 5
 581 914 l 5
461 914 m 5
 527 914 l 5
 527 852 l 5
 461 852 l 5
 461 914 l 5
589.6875 760.125 m 1
 589.6875 760.0625 l 1
 589.6875 541.1875 l 2
 589.6875 535.5625 589.625 530.8125 589.625 525.25 c 0
 589.625 523.5 589.625 522 589.625 520.25 c 2
 589.625 312.4375 l 1
 481.875 410.4375 l 1
 481.875 632.375 l 1
 481.9375 632.4375 l 1
 481.9375 656.875 l 1
 589.6875 760.125 l 1
591.5625 -169.4375 m 1
 483.8125 -66.1875 l 1
 483.8125 -41.75 l 1
 483.75 -41.75 l 1
 483.75 180.1875 l 1
 591.5 278.1875 l 1
 591.5 70.375 l 2
 591.5 68.625 591.5 67.125 591.5 65.375 c 0
 591.5 59.8125 591.5625 55.0625 591.5625 49.4375 c 2
 591.5625 -169.4375 l 1
EndSplineSet
EndChar

StartChar: Edieresis
Encoding: 203 203 82
Width: 1000
VWidth: 0
Flags: HW
LayerCount: 2
Back
Fore
SplineSet
361 914 m 5
 427 914 l 5
 427 852 l 5
 361 852 l 5
 361 914 l 5
241 914 m 5
 307 914 l 5
 307 852 l 5
 241 852 l 5
 241 914 l 5
80.5625 312.5 m 1
 80.5625 312.5625 l 1
 80.5625 531.4375 l 2
 80.5625 537.0625 80.625 541.8125 80.625 547.375 c 0
 80.625 549.125 80.625 550.625 80.625 552.375 c 2
 80.625 760.125 l 1
 188.375 662.125 l 1
 188.375 440.1875 l 1
 188.3125 440.1875 l 1
 188.3125 415.75 l 1
 80.5625 312.5 l 1
111.3125 803.0625 m 1
 111.375 803.0625 l 1
 330.25 803.0625 l 2
 335.875 803.0625 340.625 803 346.1875 803 c 0
 347.9375 803 349.4375 803 351.1875 803 c 2
 559 803 l 1
 461 695.25 l 1
 239.0625 695.25 l 1
 239 695.3125 l 1
 214.5625 695.3125 l 1
 111.3125 803.0625 l 1
163.4375 269.6875 m 1
 128.5625 296.625 l 1
 198.3125 350.5 l 1
 471.9375 350.5 l 1
 541.6875 296.625 l 1
 471.9375 242.75 l 1
 198.3125 242.75 l 1
 163.4375 269.6875 l 1
82.4375 278.1875 m 1
 190.1875 174.9375 l 1
 190.1875 150.5 l 1
 190.25 150.5 l 1
 190.25 -71.4375 l 1
 82.5 -169.4375 l 1
 82.5 38.3125 l 2
 82.5 40.0625 82.5 41.5625 82.5 43.3125 c 0
 82.5 48.875 82.4375 53.625 82.4375 59.25 c 2
 82.4375 278.125 l 1
 82.4375 278.1875 l 1
113.1875 -212.375 m 1
 216.4375 -104.625 l 1
 462.8125 -104.625 l 1
 560.8125 -212.375 l 1
 353 -212.375 l 2
 351.25 -212.375 349.75 -212.375 348 -212.375 c 0
 342.4375 -212.375 337.6875 -212.5 332.0625 -212.5 c 2
 113.1875 -212.5 l 1
 113.1875 -212.375 l 1
EndSplineSet
EndChar

StartChar: egrave
Encoding: 232 232 83
Width: 1000
VWidth: 0
Flags: HW
LayerCount: 2
Back
Fore
SplineSet
350.7421875 959.204101562 m 5
 240.7578125 895.704101562 l 5
 364.2578125 681.795898438 l 5
 474.2421875 745.295898438 l 5
 350.7421875 959.204101562 l 5
80.5625 312.5 m 1
 80.5625 312.5625 l 1
 80.5625 531.4375 l 2
 80.5625 537.0625 80.625 541.8125 80.625 547.375 c 0
 80.625 549.125 80.625 550.625 80.625 552.375 c 2
 80.625 760.125 l 1
 188.375 662.125 l 1
 188.375 440.1875 l 1
 188.3125 440.1875 l 1
 188.3125 415.75 l 1
 80.5625 312.5 l 1
111.3125 803.0625 m 1
 111.375 803.0625 l 1
 330.25 803.0625 l 2
 335.875 803.0625 340.625 803 346.1875 803 c 0
 347.9375 803 349.4375 803 351.1875 803 c 2
 559 803 l 1
 461 695.25 l 1
 239.0625 695.25 l 1
 239 695.3125 l 1
 214.5625 695.3125 l 1
 111.3125 803.0625 l 1
163.4375 269.6875 m 1
 128.5625 296.625 l 1
 198.3125 350.5 l 1
 471.9375 350.5 l 1
 541.6875 296.625 l 1
 471.9375 242.75 l 1
 198.3125 242.75 l 1
 163.4375 269.6875 l 1
82.4375 278.1875 m 1
 190.1875 174.9375 l 1
 190.1875 150.5 l 1
 190.25 150.5 l 1
 190.25 -71.4375 l 1
 82.5 -169.4375 l 1
 82.5 38.3125 l 2
 82.5 40.0625 82.5 41.5625 82.5 43.3125 c 0
 82.5 48.875 82.4375 53.625 82.4375 59.25 c 2
 82.4375 278.125 l 1
 82.4375 278.1875 l 1
113.1875 -212.375 m 1
 216.4375 -104.625 l 1
 462.8125 -104.625 l 1
 560.8125 -212.375 l 1
 353 -212.375 l 2
 351.25 -212.375 349.75 -212.375 348 -212.375 c 0
 342.4375 -212.375 337.6875 -212.5 332.0625 -212.5 c 2
 113.1875 -212.5 l 1
 113.1875 -212.375 l 1
EndSplineSet
EndChar

StartChar: eacute
Encoding: 233 233 84
Width: 1000
VWidth: 0
Flags: HW
LayerCount: 2
Back
Fore
SplineSet
364.2578125 959.204101562 m 5
 474.2421875 895.704101562 l 5
 350.7421875 681.795898438 l 5
 240.7578125 745.295898438 l 5
 364.2578125 959.204101562 l 5
80.5625 312.5 m 1
 80.5625 312.5625 l 1
 80.5625 531.4375 l 2
 80.5625 537.0625 80.625 541.8125 80.625 547.375 c 0
 80.625 549.125 80.625 550.625 80.625 552.375 c 2
 80.625 760.125 l 1
 188.375 662.125 l 1
 188.375 440.1875 l 1
 188.3125 440.1875 l 1
 188.3125 415.75 l 1
 80.5625 312.5 l 1
111.3125 803.0625 m 1
 111.375 803.0625 l 1
 330.25 803.0625 l 2
 335.875 803.0625 340.625 803 346.1875 803 c 0
 347.9375 803 349.4375 803 351.1875 803 c 2
 559 803 l 1
 461 695.25 l 1
 239.0625 695.25 l 1
 239 695.3125 l 1
 214.5625 695.3125 l 1
 111.3125 803.0625 l 1
163.4375 269.6875 m 1
 128.5625 296.625 l 1
 198.3125 350.5 l 1
 471.9375 350.5 l 1
 541.6875 296.625 l 1
 471.9375 242.75 l 1
 198.3125 242.75 l 1
 163.4375 269.6875 l 1
82.4375 278.1875 m 1
 190.1875 174.9375 l 1
 190.1875 150.5 l 1
 190.25 150.5 l 1
 190.25 -71.4375 l 1
 82.5 -169.4375 l 1
 82.5 38.3125 l 2
 82.5 40.0625 82.5 41.5625 82.5 43.3125 c 0
 82.5 48.875 82.4375 53.625 82.4375 59.25 c 2
 82.4375 278.125 l 1
 82.4375 278.1875 l 1
113.1875 -212.375 m 1
 216.4375 -104.625 l 1
 462.8125 -104.625 l 1
 560.8125 -212.375 l 1
 353 -212.375 l 2
 351.25 -212.375 349.75 -212.375 348 -212.375 c 0
 342.4375 -212.375 337.6875 -212.5 332.0625 -212.5 c 2
 113.1875 -212.5 l 1
 113.1875 -212.375 l 1
EndSplineSet
EndChar

StartChar: ecircumflex
Encoding: 234 234 85
Width: 1000
VWidth: 0
Flags: HW
LayerCount: 2
Back
Fore
SplineSet
314.5625 958 m 5
 211.3125 850.25 l 5
 211.375 850.25 l 5
 430.25 850.25 l 6
 435.875 850.25 440.625 850.3125 446.1875 850.3125 c 4
 447.9375 850.3125 449.4375 850.3125 451.1875 850.3125 c 6
 459 850.3125 l 5
 361 958.0625 l 5
 314.5625 958 l 5
80.5625 312.5 m 1
 80.5625 312.5625 l 1
 80.5625 531.4375 l 2
 80.5625 537.0625 80.625 541.8125 80.625 547.375 c 0
 80.625 549.125 80.625 550.625 80.625 552.375 c 2
 80.625 760.125 l 1
 188.375 662.125 l 1
 188.375 440.1875 l 1
 188.3125 440.1875 l 1
 188.3125 415.75 l 1
 80.5625 312.5 l 1
111.3125 803.0625 m 1
 111.375 803.0625 l 1
 330.25 803.0625 l 2
 335.875 803.0625 340.625 803 346.1875 803 c 0
 347.9375 803 349.4375 803 351.1875 803 c 2
 559 803 l 1
 461 695.25 l 1
 239.0625 695.25 l 1
 239 695.3125 l 1
 214.5625 695.3125 l 1
 111.3125 803.0625 l 1
163.4375 269.6875 m 1
 128.5625 296.625 l 1
 198.3125 350.5 l 1
 471.9375 350.5 l 1
 541.6875 296.625 l 1
 471.9375 242.75 l 1
 198.3125 242.75 l 1
 163.4375 269.6875 l 1
82.4375 278.1875 m 1
 190.1875 174.9375 l 1
 190.1875 150.5 l 1
 190.25 150.5 l 1
 190.25 -71.4375 l 1
 82.5 -169.4375 l 1
 82.5 38.3125 l 2
 82.5 40.0625 82.5 41.5625 82.5 43.3125 c 0
 82.5 48.875 82.4375 53.625 82.4375 59.25 c 2
 82.4375 278.125 l 1
 82.4375 278.1875 l 1
113.1875 -212.375 m 1
 216.4375 -104.625 l 1
 462.8125 -104.625 l 1
 560.8125 -212.375 l 1
 353 -212.375 l 2
 351.25 -212.375 349.75 -212.375 348 -212.375 c 0
 342.4375 -212.375 337.6875 -212.5 332.0625 -212.5 c 2
 113.1875 -212.5 l 1
 113.1875 -212.375 l 1
EndSplineSet
EndChar

StartChar: edieresis
Encoding: 235 235 86
Width: 1000
VWidth: 0
Flags: HW
LayerCount: 2
Back
Fore
SplineSet
361 914 m 5
 427 914 l 5
 427 852 l 5
 361 852 l 5
 361 914 l 5
241 914 m 5
 307 914 l 5
 307 852 l 5
 241 852 l 5
 241 914 l 5
80.5625 312.5 m 1
 80.5625 312.5625 l 1
 80.5625 531.4375 l 2
 80.5625 537.0625 80.625 541.8125 80.625 547.375 c 0
 80.625 549.125 80.625 550.625 80.625 552.375 c 2
 80.625 760.125 l 1
 188.375 662.125 l 1
 188.375 440.1875 l 1
 188.3125 440.1875 l 1
 188.3125 415.75 l 1
 80.5625 312.5 l 1
111.3125 803.0625 m 1
 111.375 803.0625 l 1
 330.25 803.0625 l 2
 335.875 803.0625 340.625 803 346.1875 803 c 0
 347.9375 803 349.4375 803 351.1875 803 c 2
 559 803 l 1
 461 695.25 l 1
 239.0625 695.25 l 1
 239 695.3125 l 1
 214.5625 695.3125 l 1
 111.3125 803.0625 l 1
163.4375 269.6875 m 1
 128.5625 296.625 l 1
 198.3125 350.5 l 1
 471.9375 350.5 l 1
 541.6875 296.625 l 1
 471.9375 242.75 l 1
 198.3125 242.75 l 1
 163.4375 269.6875 l 1
82.4375 278.1875 m 1
 190.1875 174.9375 l 1
 190.1875 150.5 l 1
 190.25 150.5 l 1
 190.25 -71.4375 l 1
 82.5 -169.4375 l 1
 82.5 38.3125 l 2
 82.5 40.0625 82.5 41.5625 82.5 43.3125 c 0
 82.5 48.875 82.4375 53.625 82.4375 59.25 c 2
 82.4375 278.125 l 1
 82.4375 278.1875 l 1
113.1875 -212.375 m 1
 216.4375 -104.625 l 1
 462.8125 -104.625 l 1
 560.8125 -212.375 l 1
 353 -212.375 l 2
 351.25 -212.375 349.75 -212.375 348 -212.375 c 0
 342.4375 -212.375 337.6875 -212.5 332.0625 -212.5 c 2
 113.1875 -212.5 l 1
 113.1875 -212.375 l 1
EndSplineSet
EndChar

StartChar: agrave
Encoding: 224 224 87
Width: 1000
VWidth: 0
Flags: HW
LayerCount: 2
Back
Fore
SplineSet
350.7421875 959.204101562 m 5
 240.7578125 895.704101562 l 5
 364.2578125 681.795898438 l 5
 474.2421875 745.295898438 l 5
 350.7421875 959.204101562 l 5
589.6875 760.125 m 1
 589.6875 760.0625 l 1
 589.6875 541.1875 l 2
 589.6875 535.5625 589.625 530.8125 589.625 525.25 c 0
 589.625 523.5 589.625 522 589.625 520.25 c 2
 589.625 312.4375 l 1
 481.875 410.4375 l 1
 481.875 632.375 l 1
 481.9375 632.4375 l 1
 481.9375 656.875 l 1
 589.6875 760.125 l 1
80.5625 312.5 m 1
 80.5625 312.5625 l 1
 80.5625 531.4375 l 2
 80.5625 537.0625 80.625 541.8125 80.625 547.375 c 0
 80.625 549.125 80.625 550.625 80.625 552.375 c 2
 80.625 760.125 l 1
 188.375 662.125 l 1
 188.375 440.1875 l 1
 188.3125 440.1875 l 1
 188.3125 415.75 l 1
 80.5625 312.5 l 1
111.3125 803.0625 m 1
 111.375 803.0625 l 1
 330.25 803.0625 l 2
 335.875 803.0625 340.625 803 346.1875 803 c 0
 347.9375 803 349.4375 803 351.1875 803 c 2
 559 803 l 1
 461 695.25 l 1
 239.0625 695.25 l 1
 239 695.3125 l 1
 214.5625 695.3125 l 1
 111.3125 803.0625 l 1
163.4375 269.6875 m 1
 128.5625 296.625 l 1
 198.3125 350.5 l 1
 471.9375 350.5 l 1
 541.6875 296.625 l 1
 471.9375 242.75 l 1
 198.3125 242.75 l 1
 163.4375 269.6875 l 1
591.5625 -169.4375 m 1
 483.8125 -66.1875 l 1
 483.8125 -41.75 l 1
 483.75 -41.75 l 1
 483.75 180.1875 l 1
 591.5 278.1875 l 1
 591.5 70.375 l 2
 591.5 68.625 591.5 67.125 591.5 65.375 c 0
 591.5 59.8125 591.5625 55.0625 591.5625 49.4375 c 2
 591.5625 -169.4375 l 1
82.4375 278.1875 m 1
 190.1875 174.9375 l 1
 190.1875 150.5 l 1
 190.25 150.5 l 1
 190.25 -71.4375 l 1
 82.5 -169.4375 l 1
 82.5 38.3125 l 2
 82.5 40.0625 82.5 41.5625 82.5 43.3125 c 0
 82.5 48.875 82.4375 53.625 82.4375 59.25 c 2
 82.4375 278.125 l 1
 82.4375 278.1875 l 1
EndSplineSet
EndChar

StartChar: aacute
Encoding: 225 225 88
Width: 1000
VWidth: 0
Flags: HW
LayerCount: 2
Back
Fore
SplineSet
364.2578125 959.204101562 m 5
 474.2421875 895.704101562 l 5
 350.7421875 681.795898438 l 5
 240.7578125 745.295898438 l 5
 364.2578125 959.204101562 l 5
589.6875 760.125 m 1
 589.6875 760.0625 l 1
 589.6875 541.1875 l 2
 589.6875 535.5625 589.625 530.8125 589.625 525.25 c 0
 589.625 523.5 589.625 522 589.625 520.25 c 2
 589.625 312.4375 l 1
 481.875 410.4375 l 1
 481.875 632.375 l 1
 481.9375 632.4375 l 1
 481.9375 656.875 l 1
 589.6875 760.125 l 1
80.5625 312.5 m 1
 80.5625 312.5625 l 1
 80.5625 531.4375 l 2
 80.5625 537.0625 80.625 541.8125 80.625 547.375 c 0
 80.625 549.125 80.625 550.625 80.625 552.375 c 2
 80.625 760.125 l 1
 188.375 662.125 l 1
 188.375 440.1875 l 1
 188.3125 440.1875 l 1
 188.3125 415.75 l 1
 80.5625 312.5 l 1
111.3125 803.0625 m 1
 111.375 803.0625 l 1
 330.25 803.0625 l 2
 335.875 803.0625 340.625 803 346.1875 803 c 0
 347.9375 803 349.4375 803 351.1875 803 c 2
 559 803 l 1
 461 695.25 l 1
 239.0625 695.25 l 1
 239 695.3125 l 1
 214.5625 695.3125 l 1
 111.3125 803.0625 l 1
163.4375 269.6875 m 1
 128.5625 296.625 l 1
 198.3125 350.5 l 1
 471.9375 350.5 l 1
 541.6875 296.625 l 1
 471.9375 242.75 l 1
 198.3125 242.75 l 1
 163.4375 269.6875 l 1
591.5625 -169.4375 m 1
 483.8125 -66.1875 l 1
 483.8125 -41.75 l 1
 483.75 -41.75 l 1
 483.75 180.1875 l 1
 591.5 278.1875 l 1
 591.5 70.375 l 2
 591.5 68.625 591.5 67.125 591.5 65.375 c 0
 591.5 59.8125 591.5625 55.0625 591.5625 49.4375 c 2
 591.5625 -169.4375 l 1
82.4375 278.1875 m 1
 190.1875 174.9375 l 1
 190.1875 150.5 l 1
 190.25 150.5 l 1
 190.25 -71.4375 l 1
 82.5 -169.4375 l 1
 82.5 38.3125 l 2
 82.5 40.0625 82.5 41.5625 82.5 43.3125 c 0
 82.5 48.875 82.4375 53.625 82.4375 59.25 c 2
 82.4375 278.125 l 1
 82.4375 278.1875 l 1
EndSplineSet
EndChar

StartChar: acircumflex
Encoding: 226 226 89
Width: 1000
VWidth: 0
Flags: HW
LayerCount: 2
Back
Fore
SplineSet
314.5625 948 m 5
 211.3125 840.25 l 5
 211.375 840.25 l 5
 430.25 840.25 l 6
 435.875 840.25 440.625 840.3125 446.1875 840.3125 c 4
 447.9375 840.3125 449.4375 840.3125 451.1875 840.3125 c 6
 459 840.3125 l 5
 361 948.0625 l 5
 314.5625 948 l 5
589.6875 760.125 m 1
 589.6875 760.0625 l 1
 589.6875 541.1875 l 2
 589.6875 535.5625 589.625 530.8125 589.625 525.25 c 0
 589.625 523.5 589.625 522 589.625 520.25 c 2
 589.625 312.4375 l 1
 481.875 410.4375 l 1
 481.875 632.375 l 1
 481.9375 632.4375 l 1
 481.9375 656.875 l 1
 589.6875 760.125 l 1
80.5625 312.5 m 1
 80.5625 312.5625 l 1
 80.5625 531.4375 l 2
 80.5625 537.0625 80.625 541.8125 80.625 547.375 c 0
 80.625 549.125 80.625 550.625 80.625 552.375 c 2
 80.625 760.125 l 1
 188.375 662.125 l 1
 188.375 440.1875 l 1
 188.3125 440.1875 l 1
 188.3125 415.75 l 1
 80.5625 312.5 l 1
111.3125 803.0625 m 1
 111.375 803.0625 l 1
 330.25 803.0625 l 2
 335.875 803.0625 340.625 803 346.1875 803 c 0
 347.9375 803 349.4375 803 351.1875 803 c 2
 559 803 l 1
 461 695.25 l 1
 239.0625 695.25 l 1
 239 695.3125 l 1
 214.5625 695.3125 l 1
 111.3125 803.0625 l 1
163.4375 269.6875 m 1
 128.5625 296.625 l 1
 198.3125 350.5 l 1
 471.9375 350.5 l 1
 541.6875 296.625 l 1
 471.9375 242.75 l 1
 198.3125 242.75 l 1
 163.4375 269.6875 l 1
591.5625 -169.4375 m 1
 483.8125 -66.1875 l 1
 483.8125 -41.75 l 1
 483.75 -41.75 l 1
 483.75 180.1875 l 1
 591.5 278.1875 l 1
 591.5 70.375 l 2
 591.5 68.625 591.5 67.125 591.5 65.375 c 0
 591.5 59.8125 591.5625 55.0625 591.5625 49.4375 c 2
 591.5625 -169.4375 l 1
82.4375 278.1875 m 1
 190.1875 174.9375 l 1
 190.1875 150.5 l 1
 190.25 150.5 l 1
 190.25 -71.4375 l 1
 82.5 -169.4375 l 1
 82.5 38.3125 l 2
 82.5 40.0625 82.5 41.5625 82.5 43.3125 c 0
 82.5 48.875 82.4375 53.625 82.4375 59.25 c 2
 82.4375 278.125 l 1
 82.4375 278.1875 l 1
EndSplineSet
EndChar

StartChar: atilde
Encoding: 227 227 90
Width: 1000
VWidth: 0
Flags: HW
LayerCount: 2
Back
Fore
SplineSet
163.4375 869.6875 m 5
 128.5625 896.625 l 5
 198.3125 950.5 l 5
 471.9375 950.5 l 5
 541.6875 896.625 l 5
 471.9375 842.75 l 5
 198.3125 842.75 l 5
 163.4375 869.6875 l 5
589.6875 760.125 m 1
 589.6875 760.0625 l 1
 589.6875 541.1875 l 2
 589.6875 535.5625 589.625 530.8125 589.625 525.25 c 0
 589.625 523.5 589.625 522 589.625 520.25 c 2
 589.625 312.4375 l 1
 481.875 410.4375 l 1
 481.875 632.375 l 1
 481.9375 632.4375 l 1
 481.9375 656.875 l 1
 589.6875 760.125 l 1
80.5625 312.5 m 1
 80.5625 312.5625 l 1
 80.5625 531.4375 l 2
 80.5625 537.0625 80.625 541.8125 80.625 547.375 c 0
 80.625 549.125 80.625 550.625 80.625 552.375 c 2
 80.625 760.125 l 1
 188.375 662.125 l 1
 188.375 440.1875 l 1
 188.3125 440.1875 l 1
 188.3125 415.75 l 1
 80.5625 312.5 l 1
111.3125 803.0625 m 1
 111.375 803.0625 l 1
 330.25 803.0625 l 2
 335.875 803.0625 340.625 803 346.1875 803 c 0
 347.9375 803 349.4375 803 351.1875 803 c 2
 559 803 l 1
 461 695.25 l 1
 239.0625 695.25 l 1
 239 695.3125 l 1
 214.5625 695.3125 l 1
 111.3125 803.0625 l 1
163.4375 269.6875 m 1
 128.5625 296.625 l 1
 198.3125 350.5 l 1
 471.9375 350.5 l 1
 541.6875 296.625 l 1
 471.9375 242.75 l 1
 198.3125 242.75 l 1
 163.4375 269.6875 l 1
591.5625 -169.4375 m 1
 483.8125 -66.1875 l 1
 483.8125 -41.75 l 1
 483.75 -41.75 l 1
 483.75 180.1875 l 1
 591.5 278.1875 l 1
 591.5 70.375 l 2
 591.5 68.625 591.5 67.125 591.5 65.375 c 0
 591.5 59.8125 591.5625 55.0625 591.5625 49.4375 c 2
 591.5625 -169.4375 l 1
82.4375 278.1875 m 1
 190.1875 174.9375 l 1
 190.1875 150.5 l 1
 190.25 150.5 l 1
 190.25 -71.4375 l 1
 82.5 -169.4375 l 1
 82.5 38.3125 l 2
 82.5 40.0625 82.5 41.5625 82.5 43.3125 c 0
 82.5 48.875 82.4375 53.625 82.4375 59.25 c 2
 82.4375 278.125 l 1
 82.4375 278.1875 l 1
EndSplineSet
EndChar

StartChar: aring
Encoding: 229 229 91
Width: 1000
VWidth: 0
Flags: HW
LayerCount: 2
Back
Fore
SplineSet
294 974 m 5
 421 974 l 5
 421 847 l 5
 294 847 l 5
 294 974 l 5
589.6875 760.125 m 1
 589.6875 760.0625 l 1
 589.6875 541.1875 l 2
 589.6875 535.5625 589.625 530.8125 589.625 525.25 c 0
 589.625 523.5 589.625 522 589.625 520.25 c 2
 589.625 312.4375 l 1
 481.875 410.4375 l 1
 481.875 632.375 l 1
 481.9375 632.4375 l 1
 481.9375 656.875 l 1
 589.6875 760.125 l 1
80.5625 312.5 m 1
 80.5625 312.5625 l 1
 80.5625 531.4375 l 2
 80.5625 537.0625 80.625 541.8125 80.625 547.375 c 0
 80.625 549.125 80.625 550.625 80.625 552.375 c 2
 80.625 760.125 l 1
 188.375 662.125 l 1
 188.375 440.1875 l 1
 188.3125 440.1875 l 1
 188.3125 415.75 l 1
 80.5625 312.5 l 1
111.3125 803.0625 m 1
 111.375 803.0625 l 1
 330.25 803.0625 l 2
 335.875 803.0625 340.625 803 346.1875 803 c 0
 347.9375 803 349.4375 803 351.1875 803 c 2
 559 803 l 1
 461 695.25 l 1
 239.0625 695.25 l 1
 239 695.3125 l 1
 214.5625 695.3125 l 1
 111.3125 803.0625 l 1
163.4375 269.6875 m 1
 128.5625 296.625 l 1
 198.3125 350.5 l 1
 471.9375 350.5 l 1
 541.6875 296.625 l 1
 471.9375 242.75 l 1
 198.3125 242.75 l 1
 163.4375 269.6875 l 1
591.5625 -169.4375 m 1
 483.8125 -66.1875 l 1
 483.8125 -41.75 l 1
 483.75 -41.75 l 1
 483.75 180.1875 l 1
 591.5 278.1875 l 1
 591.5 70.375 l 2
 591.5 68.625 591.5 67.125 591.5 65.375 c 0
 591.5 59.8125 591.5625 55.0625 591.5625 49.4375 c 2
 591.5625 -169.4375 l 1
82.4375 278.1875 m 1
 190.1875 174.9375 l 1
 190.1875 150.5 l 1
 190.25 150.5 l 1
 190.25 -71.4375 l 1
 82.5 -169.4375 l 1
 82.5 38.3125 l 2
 82.5 40.0625 82.5 41.5625 82.5 43.3125 c 0
 82.5 48.875 82.4375 53.625 82.4375 59.25 c 2
 82.4375 278.125 l 1
 82.4375 278.1875 l 1
EndSplineSet
EndChar

StartChar: adieresis
Encoding: 228 228 92
Width: 1000
VWidth: 0
Flags: HW
LayerCount: 2
Back
Fore
SplineSet
361 914 m 5
 427 914 l 5
 427 852 l 5
 361 852 l 5
 361 914 l 5
241 914 m 5
 307 914 l 5
 307 852 l 5
 241 852 l 5
 241 914 l 5
589.6875 760.125 m 1
 589.6875 760.0625 l 1
 589.6875 541.1875 l 2
 589.6875 535.5625 589.625 530.8125 589.625 525.25 c 0
 589.625 523.5 589.625 522 589.625 520.25 c 2
 589.625 312.4375 l 1
 481.875 410.4375 l 1
 481.875 632.375 l 1
 481.9375 632.4375 l 1
 481.9375 656.875 l 1
 589.6875 760.125 l 1
80.5625 312.5 m 1
 80.5625 312.5625 l 1
 80.5625 531.4375 l 2
 80.5625 537.0625 80.625 541.8125 80.625 547.375 c 0
 80.625 549.125 80.625 550.625 80.625 552.375 c 2
 80.625 760.125 l 1
 188.375 662.125 l 1
 188.375 440.1875 l 1
 188.3125 440.1875 l 1
 188.3125 415.75 l 1
 80.5625 312.5 l 1
111.3125 803.0625 m 1
 111.375 803.0625 l 1
 330.25 803.0625 l 2
 335.875 803.0625 340.625 803 346.1875 803 c 0
 347.9375 803 349.4375 803 351.1875 803 c 2
 559 803 l 1
 461 695.25 l 1
 239.0625 695.25 l 1
 239 695.3125 l 1
 214.5625 695.3125 l 1
 111.3125 803.0625 l 1
163.4375 269.6875 m 1
 128.5625 296.625 l 1
 198.3125 350.5 l 1
 471.9375 350.5 l 1
 541.6875 296.625 l 1
 471.9375 242.75 l 1
 198.3125 242.75 l 1
 163.4375 269.6875 l 1
591.5625 -169.4375 m 1
 483.8125 -66.1875 l 1
 483.8125 -41.75 l 1
 483.75 -41.75 l 1
 483.75 180.1875 l 1
 591.5 278.1875 l 1
 591.5 70.375 l 2
 591.5 68.625 591.5 67.125 591.5 65.375 c 0
 591.5 59.8125 591.5625 55.0625 591.5625 49.4375 c 2
 591.5625 -169.4375 l 1
82.4375 278.1875 m 1
 190.1875 174.9375 l 1
 190.1875 150.5 l 1
 190.25 150.5 l 1
 190.25 -71.4375 l 1
 82.5 -169.4375 l 1
 82.5 38.3125 l 2
 82.5 40.0625 82.5 41.5625 82.5 43.3125 c 0
 82.5 48.875 82.4375 53.625 82.4375 59.25 c 2
 82.4375 278.125 l 1
 82.4375 278.1875 l 1
EndSplineSet
EndChar

StartChar: Egrave
Encoding: 200 200 93
Width: 1000
VWidth: 0
Flags: HW
LayerCount: 2
Back
Fore
SplineSet
350.7421875 959.204101562 m 5
 240.7578125 895.704101562 l 5
 364.2578125 681.795898438 l 5
 474.2421875 745.295898438 l 5
 350.7421875 959.204101562 l 5
80.5625 312.5 m 1
 80.5625 312.5625 l 1
 80.5625 531.4375 l 2
 80.5625 537.0625 80.625 541.8125 80.625 547.375 c 0
 80.625 549.125 80.625 550.625 80.625 552.375 c 2
 80.625 760.125 l 1
 188.375 662.125 l 1
 188.375 440.1875 l 1
 188.3125 440.1875 l 1
 188.3125 415.75 l 1
 80.5625 312.5 l 1
111.3125 803.0625 m 1
 111.375 803.0625 l 1
 330.25 803.0625 l 2
 335.875 803.0625 340.625 803 346.1875 803 c 0
 347.9375 803 349.4375 803 351.1875 803 c 2
 559 803 l 1
 461 695.25 l 1
 239.0625 695.25 l 1
 239 695.3125 l 1
 214.5625 695.3125 l 1
 111.3125 803.0625 l 1
163.4375 269.6875 m 1
 128.5625 296.625 l 1
 198.3125 350.5 l 1
 471.9375 350.5 l 1
 541.6875 296.625 l 1
 471.9375 242.75 l 1
 198.3125 242.75 l 1
 163.4375 269.6875 l 1
82.4375 278.1875 m 1
 190.1875 174.9375 l 1
 190.1875 150.5 l 1
 190.25 150.5 l 1
 190.25 -71.4375 l 1
 82.5 -169.4375 l 1
 82.5 38.3125 l 2
 82.5 40.0625 82.5 41.5625 82.5 43.3125 c 0
 82.5 48.875 82.4375 53.625 82.4375 59.25 c 2
 82.4375 278.125 l 1
 82.4375 278.1875 l 1
113.1875 -212.375 m 1
 216.4375 -104.625 l 1
 462.8125 -104.625 l 1
 560.8125 -212.375 l 1
 353 -212.375 l 2
 351.25 -212.375 349.75 -212.375 348 -212.375 c 0
 342.4375 -212.375 337.6875 -212.5 332.0625 -212.5 c 2
 113.1875 -212.5 l 1
 113.1875 -212.375 l 1
EndSplineSet
EndChar

StartChar: Eacute
Encoding: 201 201 94
Width: 1000
VWidth: 0
Flags: HW
LayerCount: 2
Back
Fore
SplineSet
364.2578125 959.204101562 m 5
 474.2421875 895.704101562 l 5
 350.7421875 681.795898438 l 5
 240.7578125 745.295898438 l 5
 364.2578125 959.204101562 l 5
80.5625 312.5 m 1
 80.5625 312.5625 l 1
 80.5625 531.4375 l 2
 80.5625 537.0625 80.625 541.8125 80.625 547.375 c 0
 80.625 549.125 80.625 550.625 80.625 552.375 c 2
 80.625 760.125 l 1
 188.375 662.125 l 1
 188.375 440.1875 l 1
 188.3125 440.1875 l 1
 188.3125 415.75 l 1
 80.5625 312.5 l 1
111.3125 803.0625 m 1
 111.375 803.0625 l 1
 330.25 803.0625 l 2
 335.875 803.0625 340.625 803 346.1875 803 c 0
 347.9375 803 349.4375 803 351.1875 803 c 2
 559 803 l 1
 461 695.25 l 1
 239.0625 695.25 l 1
 239 695.3125 l 1
 214.5625 695.3125 l 1
 111.3125 803.0625 l 1
163.4375 269.6875 m 1
 128.5625 296.625 l 1
 198.3125 350.5 l 1
 471.9375 350.5 l 1
 541.6875 296.625 l 1
 471.9375 242.75 l 1
 198.3125 242.75 l 1
 163.4375 269.6875 l 1
82.4375 278.1875 m 1
 190.1875 174.9375 l 1
 190.1875 150.5 l 1
 190.25 150.5 l 1
 190.25 -71.4375 l 1
 82.5 -169.4375 l 1
 82.5 38.3125 l 2
 82.5 40.0625 82.5 41.5625 82.5 43.3125 c 0
 82.5 48.875 82.4375 53.625 82.4375 59.25 c 2
 82.4375 278.125 l 1
 82.4375 278.1875 l 1
113.1875 -212.375 m 1
 216.4375 -104.625 l 1
 462.8125 -104.625 l 1
 560.8125 -212.375 l 1
 353 -212.375 l 2
 351.25 -212.375 349.75 -212.375 348 -212.375 c 0
 342.4375 -212.375 337.6875 -212.5 332.0625 -212.5 c 2
 113.1875 -212.5 l 1
 113.1875 -212.375 l 1
EndSplineSet
EndChar

StartChar: Ecircumflex
Encoding: 202 202 95
Width: 1000
VWidth: 0
Flags: HW
LayerCount: 2
Back
Fore
SplineSet
314.5625 948 m 5
 211.3125 840.25 l 5
 211.375 840.25 l 5
 430.25 840.25 l 6
 435.875 840.25 440.625 840.3125 446.1875 840.3125 c 4
 447.9375 840.3125 449.4375 840.3125 451.1875 840.3125 c 6
 459 840.3125 l 5
 361 948.0625 l 5
 314.5625 948 l 5
80.5625 312.5 m 1
 80.5625 312.5625 l 1
 80.5625 531.4375 l 2
 80.5625 537.0625 80.625 541.8125 80.625 547.375 c 0
 80.625 549.125 80.625 550.625 80.625 552.375 c 2
 80.625 760.125 l 1
 188.375 662.125 l 1
 188.375 440.1875 l 1
 188.3125 440.1875 l 1
 188.3125 415.75 l 1
 80.5625 312.5 l 1
111.3125 803.0625 m 1
 111.375 803.0625 l 1
 330.25 803.0625 l 2
 335.875 803.0625 340.625 803 346.1875 803 c 0
 347.9375 803 349.4375 803 351.1875 803 c 2
 559 803 l 1
 461 695.25 l 1
 239.0625 695.25 l 1
 239 695.3125 l 1
 214.5625 695.3125 l 1
 111.3125 803.0625 l 1
163.4375 269.6875 m 1
 128.5625 296.625 l 1
 198.3125 350.5 l 1
 471.9375 350.5 l 1
 541.6875 296.625 l 1
 471.9375 242.75 l 1
 198.3125 242.75 l 1
 163.4375 269.6875 l 1
82.4375 278.1875 m 1
 190.1875 174.9375 l 1
 190.1875 150.5 l 1
 190.25 150.5 l 1
 190.25 -71.4375 l 1
 82.5 -169.4375 l 1
 82.5 38.3125 l 2
 82.5 40.0625 82.5 41.5625 82.5 43.3125 c 0
 82.5 48.875 82.4375 53.625 82.4375 59.25 c 2
 82.4375 278.125 l 1
 82.4375 278.1875 l 1
113.1875 -212.375 m 1
 216.4375 -104.625 l 1
 462.8125 -104.625 l 1
 560.8125 -212.375 l 1
 353 -212.375 l 2
 351.25 -212.375 349.75 -212.375 348 -212.375 c 0
 342.4375 -212.375 337.6875 -212.5 332.0625 -212.5 c 2
 113.1875 -212.5 l 1
 113.1875 -212.375 l 1
EndSplineSet
EndChar

StartChar: Agrave
Encoding: 192 192 96
Width: 1000
VWidth: 0
Flags: HW
LayerCount: 2
Back
Fore
SplineSet
350.7421875 959.204101562 m 5
 240.7578125 895.704101562 l 5
 364.2578125 681.795898438 l 5
 474.2421875 745.295898438 l 5
 350.7421875 959.204101562 l 5
589.6875 760.125 m 1
 589.6875 760.0625 l 1
 589.6875 541.1875 l 2
 589.6875 535.5625 589.625 530.8125 589.625 525.25 c 0
 589.625 523.5 589.625 522 589.625 520.25 c 2
 589.625 312.4375 l 1
 481.875 410.4375 l 1
 481.875 632.375 l 1
 481.9375 632.4375 l 1
 481.9375 656.875 l 1
 589.6875 760.125 l 1
80.5625 312.5 m 1
 80.5625 312.5625 l 1
 80.5625 531.4375 l 2
 80.5625 537.0625 80.625 541.8125 80.625 547.375 c 0
 80.625 549.125 80.625 550.625 80.625 552.375 c 2
 80.625 760.125 l 1
 188.375 662.125 l 1
 188.375 440.1875 l 1
 188.3125 440.1875 l 1
 188.3125 415.75 l 1
 80.5625 312.5 l 1
111.3125 803.0625 m 1
 111.375 803.0625 l 1
 330.25 803.0625 l 2
 335.875 803.0625 340.625 803 346.1875 803 c 0
 347.9375 803 349.4375 803 351.1875 803 c 2
 559 803 l 1
 461 695.25 l 1
 239.0625 695.25 l 1
 239 695.3125 l 1
 214.5625 695.3125 l 1
 111.3125 803.0625 l 1
163.4375 269.6875 m 1
 128.5625 296.625 l 1
 198.3125 350.5 l 1
 471.9375 350.5 l 1
 541.6875 296.625 l 1
 471.9375 242.75 l 1
 198.3125 242.75 l 1
 163.4375 269.6875 l 1
591.5625 -169.4375 m 1
 483.8125 -66.1875 l 1
 483.8125 -41.75 l 1
 483.75 -41.75 l 1
 483.75 180.1875 l 1
 591.5 278.1875 l 1
 591.5 70.375 l 2
 591.5 68.625 591.5 67.125 591.5 65.375 c 0
 591.5 59.8125 591.5625 55.0625 591.5625 49.4375 c 2
 591.5625 -169.4375 l 1
82.4375 278.1875 m 1
 190.1875 174.9375 l 1
 190.1875 150.5 l 1
 190.25 150.5 l 1
 190.25 -71.4375 l 1
 82.5 -169.4375 l 1
 82.5 38.3125 l 2
 82.5 40.0625 82.5 41.5625 82.5 43.3125 c 0
 82.5 48.875 82.4375 53.625 82.4375 59.25 c 2
 82.4375 278.125 l 1
 82.4375 278.1875 l 1
EndSplineSet
EndChar

StartChar: Aacute
Encoding: 193 193 97
Width: 1000
VWidth: 0
Flags: HW
LayerCount: 2
Back
Fore
SplineSet
364.2578125 959.204101562 m 5
 474.2421875 895.704101562 l 5
 350.7421875 681.795898438 l 5
 240.7578125 745.295898438 l 5
 364.2578125 959.204101562 l 5
589.6875 760.125 m 1
 589.6875 760.0625 l 1
 589.6875 541.1875 l 2
 589.6875 535.5625 589.625 530.8125 589.625 525.25 c 0
 589.625 523.5 589.625 522 589.625 520.25 c 2
 589.625 312.4375 l 1
 481.875 410.4375 l 1
 481.875 632.375 l 1
 481.9375 632.4375 l 1
 481.9375 656.875 l 1
 589.6875 760.125 l 1
80.5625 312.5 m 1
 80.5625 312.5625 l 1
 80.5625 531.4375 l 2
 80.5625 537.0625 80.625 541.8125 80.625 547.375 c 0
 80.625 549.125 80.625 550.625 80.625 552.375 c 2
 80.625 760.125 l 1
 188.375 662.125 l 1
 188.375 440.1875 l 1
 188.3125 440.1875 l 1
 188.3125 415.75 l 1
 80.5625 312.5 l 1
111.3125 803.0625 m 1
 111.375 803.0625 l 1
 330.25 803.0625 l 2
 335.875 803.0625 340.625 803 346.1875 803 c 0
 347.9375 803 349.4375 803 351.1875 803 c 2
 559 803 l 1
 461 695.25 l 1
 239.0625 695.25 l 1
 239 695.3125 l 1
 214.5625 695.3125 l 1
 111.3125 803.0625 l 1
163.4375 269.6875 m 1
 128.5625 296.625 l 1
 198.3125 350.5 l 1
 471.9375 350.5 l 1
 541.6875 296.625 l 1
 471.9375 242.75 l 1
 198.3125 242.75 l 1
 163.4375 269.6875 l 1
591.5625 -169.4375 m 1
 483.8125 -66.1875 l 1
 483.8125 -41.75 l 1
 483.75 -41.75 l 1
 483.75 180.1875 l 1
 591.5 278.1875 l 1
 591.5 70.375 l 2
 591.5 68.625 591.5 67.125 591.5 65.375 c 0
 591.5 59.8125 591.5625 55.0625 591.5625 49.4375 c 2
 591.5625 -169.4375 l 1
82.4375 278.1875 m 1
 190.1875 174.9375 l 1
 190.1875 150.5 l 1
 190.25 150.5 l 1
 190.25 -71.4375 l 1
 82.5 -169.4375 l 1
 82.5 38.3125 l 2
 82.5 40.0625 82.5 41.5625 82.5 43.3125 c 0
 82.5 48.875 82.4375 53.625 82.4375 59.25 c 2
 82.4375 278.125 l 1
 82.4375 278.1875 l 1
EndSplineSet
EndChar

StartChar: Acircumflex
Encoding: 194 194 98
Width: 1000
VWidth: 0
Flags: HW
LayerCount: 2
Back
Fore
SplineSet
314.5625 948 m 5
 211.3125 840.25 l 5
 211.375 840.25 l 5
 430.25 840.25 l 6
 435.875 840.25 440.625 840.3125 446.1875 840.3125 c 4
 447.9375 840.3125 449.4375 840.3125 451.1875 840.3125 c 6
 459 840.3125 l 5
 361 948.0625 l 5
 314.5625 948 l 5
589.6875 760.125 m 1
 589.6875 760.0625 l 1
 589.6875 541.1875 l 2
 589.6875 535.5625 589.625 530.8125 589.625 525.25 c 0
 589.625 523.5 589.625 522 589.625 520.25 c 2
 589.625 312.4375 l 1
 481.875 410.4375 l 1
 481.875 632.375 l 1
 481.9375 632.4375 l 1
 481.9375 656.875 l 1
 589.6875 760.125 l 1
80.5625 312.5 m 1
 80.5625 312.5625 l 1
 80.5625 531.4375 l 2
 80.5625 537.0625 80.625 541.8125 80.625 547.375 c 0
 80.625 549.125 80.625 550.625 80.625 552.375 c 2
 80.625 760.125 l 1
 188.375 662.125 l 1
 188.375 440.1875 l 1
 188.3125 440.1875 l 1
 188.3125 415.75 l 1
 80.5625 312.5 l 1
111.3125 803.0625 m 1
 111.375 803.0625 l 1
 330.25 803.0625 l 2
 335.875 803.0625 340.625 803 346.1875 803 c 0
 347.9375 803 349.4375 803 351.1875 803 c 2
 559 803 l 1
 461 695.25 l 1
 239.0625 695.25 l 1
 239 695.3125 l 1
 214.5625 695.3125 l 1
 111.3125 803.0625 l 1
163.4375 269.6875 m 1
 128.5625 296.625 l 1
 198.3125 350.5 l 1
 471.9375 350.5 l 1
 541.6875 296.625 l 1
 471.9375 242.75 l 1
 198.3125 242.75 l 1
 163.4375 269.6875 l 1
591.5625 -169.4375 m 1
 483.8125 -66.1875 l 1
 483.8125 -41.75 l 1
 483.75 -41.75 l 1
 483.75 180.1875 l 1
 591.5 278.1875 l 1
 591.5 70.375 l 2
 591.5 68.625 591.5 67.125 591.5 65.375 c 0
 591.5 59.8125 591.5625 55.0625 591.5625 49.4375 c 2
 591.5625 -169.4375 l 1
82.4375 278.1875 m 1
 190.1875 174.9375 l 1
 190.1875 150.5 l 1
 190.25 150.5 l 1
 190.25 -71.4375 l 1
 82.5 -169.4375 l 1
 82.5 38.3125 l 2
 82.5 40.0625 82.5 41.5625 82.5 43.3125 c 0
 82.5 48.875 82.4375 53.625 82.4375 59.25 c 2
 82.4375 278.125 l 1
 82.4375 278.1875 l 1
EndSplineSet
EndChar

StartChar: Atilde
Encoding: 195 195 99
Width: 1000
VWidth: 0
Flags: HW
LayerCount: 2
Back
Fore
SplineSet
163.4375 869.6875 m 5
 128.5625 896.625 l 5
 198.3125 950.5 l 5
 471.9375 950.5 l 5
 541.6875 896.625 l 5
 471.9375 842.75 l 5
 198.3125 842.75 l 5
 163.4375 869.6875 l 5
589.6875 760.125 m 1
 589.6875 760.0625 l 1
 589.6875 541.1875 l 2
 589.6875 535.5625 589.625 530.8125 589.625 525.25 c 0
 589.625 523.5 589.625 522 589.625 520.25 c 2
 589.625 312.4375 l 1
 481.875 410.4375 l 1
 481.875 632.375 l 1
 481.9375 632.4375 l 1
 481.9375 656.875 l 1
 589.6875 760.125 l 1
80.5625 312.5 m 1
 80.5625 312.5625 l 1
 80.5625 531.4375 l 2
 80.5625 537.0625 80.625 541.8125 80.625 547.375 c 0
 80.625 549.125 80.625 550.625 80.625 552.375 c 2
 80.625 760.125 l 1
 188.375 662.125 l 1
 188.375 440.1875 l 1
 188.3125 440.1875 l 1
 188.3125 415.75 l 1
 80.5625 312.5 l 1
111.3125 803.0625 m 1
 111.375 803.0625 l 1
 330.25 803.0625 l 2
 335.875 803.0625 340.625 803 346.1875 803 c 0
 347.9375 803 349.4375 803 351.1875 803 c 2
 559 803 l 1
 461 695.25 l 1
 239.0625 695.25 l 1
 239 695.3125 l 1
 214.5625 695.3125 l 1
 111.3125 803.0625 l 1
163.4375 269.6875 m 1
 128.5625 296.625 l 1
 198.3125 350.5 l 1
 471.9375 350.5 l 1
 541.6875 296.625 l 1
 471.9375 242.75 l 1
 198.3125 242.75 l 1
 163.4375 269.6875 l 1
591.5625 -169.4375 m 1
 483.8125 -66.1875 l 1
 483.8125 -41.75 l 1
 483.75 -41.75 l 1
 483.75 180.1875 l 1
 591.5 278.1875 l 1
 591.5 70.375 l 2
 591.5 68.625 591.5 67.125 591.5 65.375 c 0
 591.5 59.8125 591.5625 55.0625 591.5625 49.4375 c 2
 591.5625 -169.4375 l 1
82.4375 278.1875 m 1
 190.1875 174.9375 l 1
 190.1875 150.5 l 1
 190.25 150.5 l 1
 190.25 -71.4375 l 1
 82.5 -169.4375 l 1
 82.5 38.3125 l 2
 82.5 40.0625 82.5 41.5625 82.5 43.3125 c 0
 82.5 48.875 82.4375 53.625 82.4375 59.25 c 2
 82.4375 278.125 l 1
 82.4375 278.1875 l 1
EndSplineSet
EndChar

StartChar: Adieresis
Encoding: 196 196 100
Width: 1000
VWidth: 0
Flags: HW
LayerCount: 2
Back
SplineSet
589.6875 760.125 m 1
 589.6875 760.0625 l 1
 589.6875 541.1875 l 2
 589.6875 535.5625 589.625 530.8125 589.625 525.25 c 0
 589.625 523.5 589.625 522 589.625 520.25 c 2
 589.625 312.4375 l 1
 481.875 410.4375 l 1
 481.875 632.375 l 1
 481.9375 632.4375 l 1
 481.9375 656.875 l 1
 589.6875 760.125 l 1
80.5625 312.5 m 1
 80.5625 312.5625 l 1
 80.5625 531.4375 l 2
 80.5625 537.0625 80.625 541.8125 80.625 547.375 c 0
 80.625 549.125 80.625 550.625 80.625 552.375 c 2
 80.625 760.125 l 1
 188.375 662.125 l 1
 188.375 440.1875 l 1
 188.3125 440.1875 l 1
 188.3125 415.75 l 1
 80.5625 312.5 l 1
111.3125 803.0625 m 1
 111.375 803.0625 l 1
 330.25 803.0625 l 2
 335.875 803.0625 340.625 803 346.1875 803 c 0
 347.9375 803 349.4375 803 351.1875 803 c 2
 559 803 l 1
 461 695.25 l 1
 239.0625 695.25 l 1
 239 695.3125 l 1
 214.5625 695.3125 l 1
 111.3125 803.0625 l 1
163.4375 269.6875 m 1
 128.5625 296.625 l 1
 198.3125 350.5 l 1
 471.9375 350.5 l 1
 541.6875 296.625 l 1
 471.9375 242.75 l 1
 198.3125 242.75 l 1
 163.4375 269.6875 l 1
591.5625 -169.4375 m 1
 483.8125 -66.1875 l 1
 483.8125 -41.75 l 1
 483.75 -41.75 l 1
 483.75 180.1875 l 1
 591.5 278.1875 l 1
 591.5 70.375 l 2
 591.5 68.625 591.5 67.125 591.5 65.375 c 0
 591.5 59.8125 591.5625 55.0625 591.5625 49.4375 c 2
 591.5625 -169.4375 l 1
82.4375 278.1875 m 1
 190.1875 174.9375 l 1
 190.1875 150.5 l 1
 190.25 150.5 l 1
 190.25 -71.4375 l 1
 82.5 -169.4375 l 1
 82.5 38.3125 l 2
 82.5 40.0625 82.5 41.5625 82.5 43.3125 c 0
 82.5 48.875 82.4375 53.625 82.4375 59.25 c 2
 82.4375 278.125 l 1
 82.4375 278.1875 l 1
EndSplineSet
Fore
SplineSet
361 914 m 5
 427 914 l 5
 427 852 l 5
 361 852 l 5
 361 914 l 5
241 914 m 5
 307 914 l 5
 307 852 l 5
 241 852 l 5
 241 914 l 5
589.6875 760.125 m 1
 589.6875 760.0625 l 1
 589.6875 541.1875 l 2
 589.6875 535.5625 589.625 530.8125 589.625 525.25 c 0
 589.625 523.5 589.625 522 589.625 520.25 c 2
 589.625 312.4375 l 1
 481.875 410.4375 l 1
 481.875 632.375 l 1
 481.9375 632.4375 l 1
 481.9375 656.875 l 1
 589.6875 760.125 l 1
80.5625 312.5 m 1
 80.5625 312.5625 l 1
 80.5625 531.4375 l 2
 80.5625 537.0625 80.625 541.8125 80.625 547.375 c 0
 80.625 549.125 80.625 550.625 80.625 552.375 c 2
 80.625 760.125 l 1
 188.375 662.125 l 1
 188.375 440.1875 l 1
 188.3125 440.1875 l 1
 188.3125 415.75 l 1
 80.5625 312.5 l 1
111.3125 803.0625 m 1
 111.375 803.0625 l 1
 330.25 803.0625 l 2
 335.875 803.0625 340.625 803 346.1875 803 c 0
 347.9375 803 349.4375 803 351.1875 803 c 2
 559 803 l 1
 461 695.25 l 1
 239.0625 695.25 l 1
 239 695.3125 l 1
 214.5625 695.3125 l 1
 111.3125 803.0625 l 1
163.4375 269.6875 m 1
 128.5625 296.625 l 1
 198.3125 350.5 l 1
 471.9375 350.5 l 1
 541.6875 296.625 l 1
 471.9375 242.75 l 1
 198.3125 242.75 l 1
 163.4375 269.6875 l 1
591.5625 -169.4375 m 1
 483.8125 -66.1875 l 1
 483.8125 -41.75 l 1
 483.75 -41.75 l 1
 483.75 180.1875 l 1
 591.5 278.1875 l 1
 591.5 70.375 l 2
 591.5 68.625 591.5 67.125 591.5 65.375 c 0
 591.5 59.8125 591.5625 55.0625 591.5625 49.4375 c 2
 591.5625 -169.4375 l 1
82.4375 278.1875 m 1
 190.1875 174.9375 l 1
 190.1875 150.5 l 1
 190.25 150.5 l 1
 190.25 -71.4375 l 1
 82.5 -169.4375 l 1
 82.5 38.3125 l 2
 82.5 40.0625 82.5 41.5625 82.5 43.3125 c 0
 82.5 48.875 82.4375 53.625 82.4375 59.25 c 2
 82.4375 278.125 l 1
 82.4375 278.1875 l 1
EndSplineSet
EndChar

StartChar: Aring
Encoding: 197 197 101
Width: 1000
VWidth: 0
Flags: HW
LayerCount: 2
Back
Fore
SplineSet
294 974 m 5
 421 974 l 5
 421 847 l 5
 294 847 l 5
 294 974 l 5
589.6875 760.125 m 1
 589.6875 760.0625 l 1
 589.6875 541.1875 l 2
 589.6875 535.5625 589.625 530.8125 589.625 525.25 c 0
 589.625 523.5 589.625 522 589.625 520.25 c 2
 589.625 312.4375 l 1
 481.875 410.4375 l 1
 481.875 632.375 l 1
 481.9375 632.4375 l 1
 481.9375 656.875 l 1
 589.6875 760.125 l 1
80.5625 312.5 m 1
 80.5625 312.5625 l 1
 80.5625 531.4375 l 2
 80.5625 537.0625 80.625 541.8125 80.625 547.375 c 0
 80.625 549.125 80.625 550.625 80.625 552.375 c 2
 80.625 760.125 l 1
 188.375 662.125 l 1
 188.375 440.1875 l 1
 188.3125 440.1875 l 1
 188.3125 415.75 l 1
 80.5625 312.5 l 1
111.3125 803.0625 m 1
 111.375 803.0625 l 1
 330.25 803.0625 l 2
 335.875 803.0625 340.625 803 346.1875 803 c 0
 347.9375 803 349.4375 803 351.1875 803 c 2
 559 803 l 1
 461 695.25 l 1
 239.0625 695.25 l 1
 239 695.3125 l 1
 214.5625 695.3125 l 1
 111.3125 803.0625 l 1
163.4375 269.6875 m 1
 128.5625 296.625 l 1
 198.3125 350.5 l 1
 471.9375 350.5 l 1
 541.6875 296.625 l 1
 471.9375 242.75 l 1
 198.3125 242.75 l 1
 163.4375 269.6875 l 1
591.5625 -169.4375 m 1
 483.8125 -66.1875 l 1
 483.8125 -41.75 l 1
 483.75 -41.75 l 1
 483.75 180.1875 l 1
 591.5 278.1875 l 1
 591.5 70.375 l 2
 591.5 68.625 591.5 67.125 591.5 65.375 c 0
 591.5 59.8125 591.5625 55.0625 591.5625 49.4375 c 2
 591.5625 -169.4375 l 1
82.4375 278.1875 m 1
 190.1875 174.9375 l 1
 190.1875 150.5 l 1
 190.25 150.5 l 1
 190.25 -71.4375 l 1
 82.5 -169.4375 l 1
 82.5 38.3125 l 2
 82.5 40.0625 82.5 41.5625 82.5 43.3125 c 0
 82.5 48.875 82.4375 53.625 82.4375 59.25 c 2
 82.4375 278.125 l 1
 82.4375 278.1875 l 1
EndSplineSet
EndChar

StartChar: asciicircum
Encoding: 94 94 102
Width: 1000
VWidth: 0
Flags: HW
LayerCount: 2
Back
Fore
SplineSet
244.5625 778 m 5
 141.3125 670.25 l 5
 141.375 670.25 l 5
 360.25 670.25 l 6
 365.875 670.25 370.625 670.3125 376.1875 670.3125 c 4
 377.9375 670.3125 379.4375 670.3125 381.1875 670.3125 c 6
 389 670.3125 l 5
 291 778.0625 l 5
 244.5625 778 l 5
EndSplineSet
EndChar

StartChar: bar
Encoding: 124 124 103
Width: 1000
VWidth: 0
Flags: HW
LayerCount: 2
Back
Fore
SplineSet
589.6875 760.125 m 5
 589.6875 760.0625 l 5
 589.6875 541.1875 l 6
 589.6875 535.5625 589.625 530.8125 589.625 525.25 c 4
 589.625 523.5 589.625 522 589.625 520.25 c 6
 589.625 -157.5625 l 5
 481.875 -59.5625 l 5
 481.875 632.375 l 5
 481.9375 632.4375 l 5
 481.9375 656.875 l 5
 589.6875 760.125 l 5
EndSplineSet
EndChar

StartChar: comma
Encoding: 44 44 104
Width: 1000
VWidth: 0
Flags: HW
LayerCount: 2
Back
Fore
SplineSet
423 -68.056640625 m 5
 296 -68.056640625 l 4
 302 -442 300 -119 423 -68.056640625 c 5
294 94 m 5
 421 94 l 5
 421 -33 l 5
 294 -33 l 5
 294 94 l 5
EndSplineSet
EndChar

StartChar: backslash
Encoding: 92 92 105
Width: 1000
VWidth: 0
Flags: HW
LayerCount: 2
Back
Fore
SplineSet
212.071289062 535.88671875 m 1
 212 787.943359375 l 1
 555.928710938 110 l 1
 556 -144.056640625 l 1
 212.071289062 535.88671875 l 1
EndSplineSet
EndChar

StartChar: slash
Encoding: 47 47 106
Width: 1000
VWidth: 0
Flags: HW
LayerCount: 2
Back
Fore
SplineSet
555.928710938 535.88671875 m 1
 556 787.943359375 l 1
 212.071289062 110 l 1
 212 -144.056640625 l 1
 555.928710938 535.88671875 l 1
EndSplineSet
EndChar

StartChar: divide
Encoding: 247 247 107
Width: 1000
VWidth: 0
Flags: HW
LayerCount: 2
Back
Fore
SplineSet
303 454 m 1
 370 454 l 1
 370 387 l 1
 303 387 l 1
 303 454 l 1
303 204 m 1
 370 204 l 1
 370 137 l 5
 303 137 l 5
 303 204 l 1
163.4375 269.6875 m 1
 128.5625 296.625 l 1
 198.3125 350.5 l 1
 471.9375 350.5 l 1
 541.6875 296.625 l 1
 471.9375 242.75 l 1
 198.3125 242.75 l 1
 163.4375 269.6875 l 1
EndSplineSet
EndChar

StartChar: asciitilde
Encoding: 126 126 108
Width: 1000
VWidth: 0
Flags: HW
LayerCount: 2
Back
Fore
SplineSet
163.4375 269.6875 m 5
 128.5625 296.625 l 5
 198.3125 350.5 l 5
 471.9375 350.5 l 5
 541.6875 296.625 l 5
 471.9375 242.75 l 5
 198.3125 242.75 l 5
 163.4375 269.6875 l 5
EndSplineSet
EndChar

StartChar: x
Encoding: 120 120 109
Width: 1000
VWidth: 0
Flags: HW
LayerCount: 2
Back
Fore
SplineSet
555.928710938 565.88671875 m 1
 556 747.943359375 l 1
 -37.9287109375 40 l 5
 -38 -144.056640625 l 5
 555.928710938 565.88671875 l 1
-37.9287109375 565.88671875 m 5
 -38 747.943359375 l 5
 555.928710938 40 l 1
 556 -144.056640625 l 1
 -37.9287109375 565.88671875 l 5
EndSplineSet
EndChar

StartChar: y
Encoding: 121 121 110
Width: 1000
VWidth: 0
Flags: HW
LayerCount: 2
Back
Fore
SplineSet
555.928710938 595.88671875 m 1
 556 777.943359375 l 1
 112.071289062 50 l 5
 112 -134.056640625 l 5
 555.928710938 595.88671875 l 1
112.071289062 585.88671875 m 1
 112 777.943359375 l 1
 355.928710938 510 l 1
 356 325.943359375 l 1
 112.071289062 585.88671875 l 1
EndSplineSet
EndChar

StartChar: question
Encoding: 63 63 111
Width: 1000
VWidth: 0
Flags: HW
LayerCount: 2
Back
Fore
SplineSet
233.4375 -160.3125 m 5
 198.5625 -133.375 l 5
 268.3125 -79.5 l 5
 271.9375 -79.5 l 5
 341.6875 -133.375 l 5
 271.9375 -187.25 l 5
 268.3125 -187.25 l 5
 233.4375 -160.3125 l 5
589.6875 760.125 m 1
 589.6875 760.0625 l 1
 589.6875 541.1875 l 2
 589.6875 535.5625 589.625 530.8125 589.625 525.25 c 0
 589.625 523.5 589.625 522 589.625 520.25 c 2
 589.625 312.4375 l 1
 481.875 410.4375 l 1
 481.875 632.375 l 1
 481.9375 632.4375 l 1
 481.9375 656.875 l 1
 589.6875 760.125 l 1
111.3125 803.0625 m 1
 111.375 803.0625 l 1
 330.25 803.0625 l 2
 335.875 803.0625 340.625 803 346.1875 803 c 0
 347.9375 803 349.4375 803 351.1875 803 c 2
 559 803 l 1
 461 695.25 l 1
 239.0625 695.25 l 1
 239 695.3125 l 1
 214.5625 695.3125 l 1
 111.3125 803.0625 l 1
297.4375 269.6875 m 1
 262.5625 296.625 l 1
 332.3125 350.5 l 1
 471.9375 350.5 l 1
 541.6875 296.625 l 1
 471.9375 242.75 l 1
 332.3125 242.75 l 1
 297.4375 269.6875 l 1
216.4375 278.1875 m 1
 324.1875 174.9375 l 1
 324.1875 150.5 l 1
 324.25 150.5 l 1
 324.25 38.5625 l 5
 216.5 -59.4375 l 5
 216.5 38.3125 l 2
 216.5 40.0625 216.5 41.5625 216.5 43.3125 c 0
 216.5 48.875 216.4375 53.625 216.4375 59.25 c 2
 216.4375 278.125 l 1
 216.4375 278.1875 l 1
EndSplineSet
EndChar

StartChar: questiondown
Encoding: 191 191 112
Width: 1000
VWidth: 0
Flags: HW
LayerCount: 2
Back
Fore
SplineSet
467.5625 776.125 m 5
 502.4375 749.1875 l 5
 432.6875 695.3125 l 5
 429.0625 695.3125 l 5
 359.3125 749.1875 l 5
 429.0625 803.0625 l 5
 432.6875 803.0625 l 5
 467.5625 776.125 l 5
111.3125 -144.3125 m 5
 111.3125 -144.25 l 5
 111.3125 74.625 l 6
 111.3125 80.25 111.375 85 111.375 90.5625 c 4
 111.375 92.3125 111.375 93.8125 111.375 95.5625 c 6
 111.375 303.375 l 5
 219.125 205.375 l 5
 219.125 -16.5625 l 5
 219.0625 -16.625 l 5
 219.0625 -41.0625 l 5
 111.3125 -144.3125 l 5
589.6875 -187.25 m 5
 589.625 -187.25 l 5
 370.75 -187.25 l 6
 365.125 -187.25 360.375 -187.1875 354.8125 -187.1875 c 4
 353.0625 -187.1875 351.5625 -187.1875 349.8125 -187.1875 c 6
 142 -187.1875 l 5
 240 -79.4375 l 5
 461.9375 -79.4375 l 5
 462 -79.5 l 5
 486.4375 -79.5 l 5
 589.6875 -187.25 l 5
403.5625 346.125 m 5
 438.4375 319.1875 l 5
 368.6875 265.3125 l 5
 229.0625 265.3125 l 5
 159.3125 319.1875 l 5
 229.0625 373.0625 l 5
 368.6875 373.0625 l 5
 403.5625 346.125 l 5
484.5625 337.625 m 5
 376.8125 440.875 l 5
 376.8125 465.3125 l 5
 376.75 465.3125 l 5
 376.75 577.25 l 5
 484.5 675.25 l 5
 484.5 577.5 l 6
 484.5 575.75 484.5 574.25 484.5 572.5 c 4
 484.5 566.9375 484.5625 562.1875 484.5625 556.5625 c 6
 484.5625 337.6875 l 5
 484.5625 337.625 l 5
EndSplineSet
EndChar

StartChar: oslash
Encoding: 248 248 113
Width: 1000
VWidth: 0
Flags: HW
LayerCount: 2
Back
Fore
SplineSet
625.928710938 485.88671875 m 1
 626 667.943359375 l 1
 42.0712890625 110 l 5
 42 -74.056640625 l 5
 625.928710938 485.88671875 l 1
589.6875 760.125 m 1
 589.6875 760.0625 l 1
 589.6875 541.1875 l 2
 589.6875 535.5625 589.625 530.8125 589.625 525.25 c 0
 589.625 523.5 589.625 522 589.625 520.25 c 2
 589.625 312.4375 l 1
 481.875 410.4375 l 1
 481.875 632.375 l 1
 481.9375 632.4375 l 1
 481.9375 656.875 l 1
 589.6875 760.125 l 1
80.5625 312.5 m 1
 80.5625 312.5625 l 1
 80.5625 531.4375 l 2
 80.5625 537.0625 80.625 541.8125 80.625 547.375 c 0
 80.625 549.125 80.625 550.625 80.625 552.375 c 2
 80.625 760.125 l 1
 188.375 662.125 l 1
 188.375 440.1875 l 1
 188.3125 440.1875 l 1
 188.3125 415.75 l 1
 80.5625 312.5 l 1
111.3125 803.0625 m 1
 111.375 803.0625 l 1
 330.25 803.0625 l 2
 335.875 803.0625 340.625 803 346.1875 803 c 0
 347.9375 803 349.4375 803 351.1875 803 c 2
 559 803 l 1
 461 695.25 l 1
 239.0625 695.25 l 1
 239 695.3125 l 1
 214.5625 695.3125 l 1
 111.3125 803.0625 l 1
591.5625 -169.4375 m 1
 483.8125 -66.1875 l 1
 483.8125 -41.75 l 1
 483.75 -41.75 l 1
 483.75 180.1875 l 1
 591.5 278.1875 l 1
 591.5 70.375 l 2
 591.5 68.625 591.5 67.125 591.5 65.375 c 0
 591.5 59.8125 591.5625 55.0625 591.5625 49.4375 c 2
 591.5625 -169.4375 l 1
82.4375 278.1875 m 1
 190.1875 174.9375 l 1
 190.1875 150.5 l 1
 190.25 150.5 l 1
 190.25 -71.4375 l 1
 82.5 -169.4375 l 1
 82.5 38.3125 l 2
 82.5 40.0625 82.5 41.5625 82.5 43.3125 c 0
 82.5 48.875 82.4375 53.625 82.4375 59.25 c 2
 82.4375 278.125 l 1
 82.4375 278.1875 l 1
113.1875 -212.375 m 1
 216.4375 -104.625 l 1
 462.8125 -104.625 l 1
 560.8125 -212.375 l 1
 353 -212.375 l 2
 351.25 -212.375 349.75 -212.375 348 -212.375 c 0
 342.4375 -212.375 337.6875 -212.5 332.0625 -212.5 c 2
 113.1875 -212.5 l 1
 113.1875 -212.375 l 1
EndSplineSet
EndChar

StartChar: Oslash
Encoding: 216 216 114
Width: 1000
VWidth: 0
Flags: HW
LayerCount: 2
Back
Fore
SplineSet
625.928710938 485.88671875 m 1
 626 667.943359375 l 1
 42.0712890625 110 l 5
 42 -74.056640625 l 5
 625.928710938 485.88671875 l 1
589.6875 760.125 m 1
 589.6875 760.0625 l 1
 589.6875 541.1875 l 2
 589.6875 535.5625 589.625 530.8125 589.625 525.25 c 0
 589.625 523.5 589.625 522 589.625 520.25 c 2
 589.625 312.4375 l 1
 481.875 410.4375 l 1
 481.875 632.375 l 1
 481.9375 632.4375 l 1
 481.9375 656.875 l 1
 589.6875 760.125 l 1
80.5625 312.5 m 1
 80.5625 312.5625 l 1
 80.5625 531.4375 l 2
 80.5625 537.0625 80.625 541.8125 80.625 547.375 c 0
 80.625 549.125 80.625 550.625 80.625 552.375 c 2
 80.625 760.125 l 1
 188.375 662.125 l 1
 188.375 440.1875 l 1
 188.3125 440.1875 l 1
 188.3125 415.75 l 1
 80.5625 312.5 l 1
111.3125 803.0625 m 1
 111.375 803.0625 l 1
 330.25 803.0625 l 2
 335.875 803.0625 340.625 803 346.1875 803 c 0
 347.9375 803 349.4375 803 351.1875 803 c 2
 559 803 l 1
 461 695.25 l 1
 239.0625 695.25 l 1
 239 695.3125 l 1
 214.5625 695.3125 l 1
 111.3125 803.0625 l 1
591.5625 -169.4375 m 1
 483.8125 -66.1875 l 1
 483.8125 -41.75 l 1
 483.75 -41.75 l 1
 483.75 180.1875 l 1
 591.5 278.1875 l 1
 591.5 70.375 l 2
 591.5 68.625 591.5 67.125 591.5 65.375 c 0
 591.5 59.8125 591.5625 55.0625 591.5625 49.4375 c 2
 591.5625 -169.4375 l 1
82.4375 278.1875 m 1
 190.1875 174.9375 l 1
 190.1875 150.5 l 1
 190.25 150.5 l 1
 190.25 -71.4375 l 1
 82.5 -169.4375 l 1
 82.5 38.3125 l 2
 82.5 40.0625 82.5 41.5625 82.5 43.3125 c 0
 82.5 48.875 82.4375 53.625 82.4375 59.25 c 2
 82.4375 278.125 l 1
 82.4375 278.1875 l 1
113.1875 -212.375 m 1
 216.4375 -104.625 l 1
 462.8125 -104.625 l 1
 560.8125 -212.375 l 1
 353 -212.375 l 2
 351.25 -212.375 349.75 -212.375 348 -212.375 c 0
 342.4375 -212.375 337.6875 -212.5 332.0625 -212.5 c 2
 113.1875 -212.5 l 1
 113.1875 -212.375 l 1
EndSplineSet
EndChar

StartChar: multiply
Encoding: 215 215 115
Width: 1000
VWidth: 0
Flags: HW
LayerCount: 2
Back
Fore
SplineSet
555.928710938 485.88671875 m 5
 556 667.943359375 l 5
 112.071289062 110 l 5
 112 -74.056640625 l 5
 555.928710938 485.88671875 l 5
112.071289062 485.88671875 m 1
 112 667.943359375 l 1
 555.928710938 110 l 1
 556 -74.056640625 l 1
 112.071289062 485.88671875 l 1
EndSplineSet
EndChar

StartChar: yacute
Encoding: 253 253 116
Width: 1000
VWidth: 0
Flags: HW
LayerCount: 2
Back
Fore
SplineSet
364.2578125 959.204101562 m 5
 474.2421875 895.704101562 l 5
 350.7421875 681.795898438 l 5
 240.7578125 745.295898438 l 5
 364.2578125 959.204101562 l 5
555.928710938 595.88671875 m 1
 556 777.943359375 l 1
 112.071289062 50 l 1
 112 -134.056640625 l 1
 555.928710938 595.88671875 l 1
112.071289062 585.88671875 m 1
 112 777.943359375 l 1
 355.928710938 510 l 1
 356 325.943359375 l 1
 112.071289062 585.88671875 l 1
EndSplineSet
EndChar

StartChar: ydieresis
Encoding: 255 255 117
Width: 1000
VWidth: 0
Flags: HW
LayerCount: 2
Back
Fore
SplineSet
361 914 m 5
 427 914 l 5
 427 852 l 5
 361 852 l 5
 361 914 l 5
241 914 m 5
 307 914 l 5
 307 852 l 5
 241 852 l 5
 241 914 l 5
555.928710938 595.88671875 m 1
 556 777.943359375 l 1
 112.071289062 50 l 1
 112 -134.056640625 l 1
 555.928710938 595.88671875 l 1
112.071289062 585.88671875 m 1
 112 777.943359375 l 1
 355.928710938 510 l 1
 356 325.943359375 l 1
 112.071289062 585.88671875 l 1
EndSplineSet
EndChar

StartChar: Yacute
Encoding: 221 221 118
Width: 1000
VWidth: 0
Flags: HW
LayerCount: 2
Back
Fore
SplineSet
364.2578125 959.204101562 m 5
 474.2421875 895.704101562 l 5
 350.7421875 681.795898438 l 5
 240.7578125 745.295898438 l 5
 364.2578125 959.204101562 l 5
555.928710938 595.88671875 m 1
 556 777.943359375 l 1
 112.071289062 50 l 1
 112 -134.056640625 l 1
 555.928710938 595.88671875 l 1
112.071289062 585.88671875 m 1
 112 777.943359375 l 1
 355.928710938 510 l 1
 356 325.943359375 l 1
 112.071289062 585.88671875 l 1
EndSplineSet
EndChar

StartChar: exclamdown
Encoding: 161 161 119
Width: 1000
VWidth: 0
Flags: HW
LayerCount: 2
Back
Fore
SplineSet
589.6875 760.125 m 1
 589.6875 760.0625 l 1
 589.6875 541.1875 l 2
 589.6875 535.5625 589.625 530.8125 589.625 525.25 c 0
 589.625 523.5 589.625 522 589.625 520.25 c 2
 589.625 312.4375 l 1
 481.875 410.4375 l 1
 481.875 632.375 l 1
 481.9375 632.4375 l 1
 481.9375 656.875 l 1
 589.6875 760.125 l 1
591.5625 -169.4375 m 1
 483.8125 -66.1875 l 1
 483.8125 -41.75 l 1
 483.75 -41.75 l 1
 483.75 180.1875 l 1
 591.5 278.1875 l 1
 591.5 70.375 l 2
 591.5 68.625 591.5 67.125 591.5 65.375 c 0
 591.5 59.8125 591.5625 55.0625 591.5625 49.4375 c 2
 591.5625 -169.4375 l 1
EndSplineSet
EndChar

StartChar: X
Encoding: 88 88 120
Width: 1000
VWidth: 0
Flags: HW
LayerCount: 2
Back
Fore
SplineSet
555.928710938 565.88671875 m 1
 556 747.943359375 l 1
 -37.9287109375 40 l 5
 -38 -144.056640625 l 5
 555.928710938 565.88671875 l 1
-37.9287109375 565.88671875 m 5
 -38 747.943359375 l 5
 555.928710938 40 l 1
 556 -144.056640625 l 1
 -37.9287109375 565.88671875 l 5
EndSplineSet
EndChar

StartChar: Y
Encoding: 89 89 121
Width: 1000
VWidth: 0
Flags: HW
LayerCount: 2
Back
Fore
SplineSet
555.928710938 595.88671875 m 1
 556 777.943359375 l 1
 112.071289062 50 l 5
 112 -134.056640625 l 5
 555.928710938 595.88671875 l 1
112.071289062 585.88671875 m 1
 112 777.943359375 l 1
 355.928710938 510 l 1
 356 325.943359375 l 1
 112.071289062 585.88671875 l 1
EndSplineSet
EndChar

StartChar: Z
Encoding: 90 90 122
Width: 1000
VWidth: 0
Flags: HW
LayerCount: 2
Back
Fore
SplineSet
555.928710938 485.88671875 m 1
 556 667.943359375 l 1
 112.071289062 110 l 1
 112 -74.056640625 l 1
 555.928710938 485.88671875 l 1
111.3125 763.0625 m 1
 111.375 763.0625 l 1
 330.25 763.0625 l 2
 335.875 763.0625 340.625 763 346.1875 763 c 0
 347.9375 763 349.4375 763 351.1875 763 c 2
 559 763 l 1
 461 655.25 l 1
 239.0625 655.25 l 1
 239 655.3125 l 1
 214.5625 655.3125 l 1
 111.3125 763.0625 l 1
113.1875 -152.375 m 5
 216.4375 -44.625 l 5
 462.8125 -44.625 l 5
 560.8125 -152.375 l 5
 353 -152.375 l 6
 351.25 -152.375 349.75 -152.375 348 -152.375 c 4
 342.4375 -152.375 337.6875 -152.5 332.0625 -152.5 c 6
 113.1875 -152.5 l 5
 113.1875 -152.375 l 5
EndSplineSet
EndChar

StartChar: Q
Encoding: 81 81 123
Width: 1000
VWidth: 0
Flags: HW
LayerCount: 2
Back
Fore
SplineSet
411.682617188 -62.0712890625 m 5
 262.483398438 -58.8896484375 l 5
 262.52734375 -58.8447265625 l 5
 417.295898438 95.9228515625 l 6
 421.2734375 99.900390625 424.67578125 103.21484375 428.609375 107.1484375 c 4
 429.846679688 108.385742188 430.907226562 109.446289062 432.14453125 110.68359375 c 6
 437.668945312 116.208007812 l 5
 444.563476562 -29.279296875 l 5
 411.682617188 -62.0712890625 l 5
589.6875 760.125 m 1
 589.6875 760.0625 l 1
 589.6875 541.1875 l 2
 589.6875 535.5625 589.625 530.8125 589.625 525.25 c 0
 589.625 523.5 589.625 522 589.625 520.25 c 2
 589.625 312.4375 l 1
 481.875 410.4375 l 1
 481.875 632.375 l 1
 481.9375 632.4375 l 1
 481.9375 656.875 l 1
 589.6875 760.125 l 1
80.5625 312.5 m 1
 80.5625 312.5625 l 1
 80.5625 531.4375 l 2
 80.5625 537.0625 80.625 541.8125 80.625 547.375 c 0
 80.625 549.125 80.625 550.625 80.625 552.375 c 2
 80.625 760.125 l 1
 188.375 662.125 l 1
 188.375 440.1875 l 1
 188.3125 440.1875 l 1
 188.3125 415.75 l 1
 80.5625 312.5 l 1
111.3125 803.0625 m 1
 111.375 803.0625 l 1
 330.25 803.0625 l 2
 335.875 803.0625 340.625 803 346.1875 803 c 0
 347.9375 803 349.4375 803 351.1875 803 c 2
 559 803 l 1
 461 695.25 l 1
 239.0625 695.25 l 1
 239 695.3125 l 1
 214.5625 695.3125 l 1
 111.3125 803.0625 l 1
591.5625 -169.4375 m 1
 483.8125 -66.1875 l 1
 483.8125 -41.75 l 1
 483.75 -41.75 l 1
 483.75 180.1875 l 1
 591.5 278.1875 l 1
 591.5 70.375 l 2
 591.5 68.625 591.5 67.125 591.5 65.375 c 0
 591.5 59.8125 591.5625 55.0625 591.5625 49.4375 c 2
 591.5625 -169.4375 l 1
82.4375 278.1875 m 1
 190.1875 174.9375 l 1
 190.1875 150.5 l 1
 190.25 150.5 l 1
 190.25 -71.4375 l 1
 82.5 -169.4375 l 1
 82.5 38.3125 l 2
 82.5 40.0625 82.5 41.5625 82.5 43.3125 c 0
 82.5 48.875 82.4375 53.625 82.4375 59.25 c 2
 82.4375 278.125 l 1
 82.4375 278.1875 l 1
113.1875 -212.375 m 1
 216.4375 -104.625 l 1
 462.8125 -104.625 l 1
 560.8125 -212.375 l 1
 353 -212.375 l 2
 351.25 -212.375 349.75 -212.375 348 -212.375 c 0
 342.4375 -212.375 337.6875 -212.5 332.0625 -212.5 c 2
 113.1875 -212.5 l 1
 113.1875 -212.375 l 1
EndSplineSet
EndChar

StartChar: q
Encoding: 113 113 124
Width: 1000
VWidth: 0
Flags: HW
LayerCount: 2
Back
Fore
SplineSet
411.682617188 -62.0712890625 m 5
 262.483398438 -58.8896484375 l 5
 262.52734375 -58.8447265625 l 5
 417.295898438 95.9228515625 l 6
 421.2734375 99.900390625 424.67578125 103.21484375 428.609375 107.1484375 c 4
 429.846679688 108.385742188 430.907226562 109.446289062 432.14453125 110.68359375 c 6
 437.668945312 116.208007812 l 5
 444.563476562 -29.279296875 l 5
 411.682617188 -62.0712890625 l 5
589.6875 760.125 m 1
 589.6875 760.0625 l 1
 589.6875 541.1875 l 2
 589.6875 535.5625 589.625 530.8125 589.625 525.25 c 0
 589.625 523.5 589.625 522 589.625 520.25 c 2
 589.625 312.4375 l 1
 481.875 410.4375 l 1
 481.875 632.375 l 1
 481.9375 632.4375 l 1
 481.9375 656.875 l 1
 589.6875 760.125 l 1
80.5625 312.5 m 1
 80.5625 312.5625 l 1
 80.5625 531.4375 l 2
 80.5625 537.0625 80.625 541.8125 80.625 547.375 c 0
 80.625 549.125 80.625 550.625 80.625 552.375 c 2
 80.625 760.125 l 1
 188.375 662.125 l 1
 188.375 440.1875 l 1
 188.3125 440.1875 l 1
 188.3125 415.75 l 1
 80.5625 312.5 l 1
111.3125 803.0625 m 1
 111.375 803.0625 l 1
 330.25 803.0625 l 2
 335.875 803.0625 340.625 803 346.1875 803 c 0
 347.9375 803 349.4375 803 351.1875 803 c 2
 559 803 l 1
 461 695.25 l 1
 239.0625 695.25 l 1
 239 695.3125 l 1
 214.5625 695.3125 l 1
 111.3125 803.0625 l 1
591.5625 -169.4375 m 1
 483.8125 -66.1875 l 1
 483.8125 -41.75 l 1
 483.75 -41.75 l 1
 483.75 180.1875 l 1
 591.5 278.1875 l 1
 591.5 70.375 l 2
 591.5 68.625 591.5 67.125 591.5 65.375 c 0
 591.5 59.8125 591.5625 55.0625 591.5625 49.4375 c 2
 591.5625 -169.4375 l 1
82.4375 278.1875 m 1
 190.1875 174.9375 l 1
 190.1875 150.5 l 1
 190.25 150.5 l 1
 190.25 -71.4375 l 1
 82.5 -169.4375 l 1
 82.5 38.3125 l 2
 82.5 40.0625 82.5 41.5625 82.5 43.3125 c 0
 82.5 48.875 82.4375 53.625 82.4375 59.25 c 2
 82.4375 278.125 l 1
 82.4375 278.1875 l 1
113.1875 -212.375 m 1
 216.4375 -104.625 l 1
 462.8125 -104.625 l 1
 560.8125 -212.375 l 1
 353 -212.375 l 2
 351.25 -212.375 349.75 -212.375 348 -212.375 c 0
 342.4375 -212.375 337.6875 -212.5 332.0625 -212.5 c 2
 113.1875 -212.5 l 1
 113.1875 -212.375 l 1
EndSplineSet
EndChar

StartChar: germandbls
Encoding: 223 223 125
Width: 1000
VWidth: 0
Flags: HW
LayerCount: 2
Back
Fore
SplineSet
589.6875 760.125 m 1
 589.6875 760.0625 l 1
 589.6875 541.1875 l 2
 589.6875 535.5625 589.625 530.8125 589.625 525.25 c 0
 589.625 523.5 589.625 522 589.625 520.25 c 2
 589.625 312.4375 l 1
 481.875 410.4375 l 1
 481.875 632.375 l 1
 481.9375 632.4375 l 1
 481.9375 656.875 l 1
 589.6875 760.125 l 1
80.5625 312.5 m 1
 80.5625 312.5625 l 1
 80.5625 531.4375 l 2
 80.5625 537.0625 80.625 541.8125 80.625 547.375 c 0
 80.625 549.125 80.625 550.625 80.625 552.375 c 2
 80.625 760.125 l 1
 188.375 662.125 l 1
 188.375 440.1875 l 1
 188.3125 440.1875 l 1
 188.3125 415.75 l 1
 80.5625 312.5 l 1
111.3125 803.0625 m 1
 111.375 803.0625 l 1
 330.25 803.0625 l 2
 335.875 803.0625 340.625 803 346.1875 803 c 0
 347.9375 803 349.4375 803 351.1875 803 c 2
 559 803 l 1
 461 695.25 l 1
 239.0625 695.25 l 1
 239 695.3125 l 1
 214.5625 695.3125 l 1
 111.3125 803.0625 l 1
163.4375 269.6875 m 5
 128.5625 296.625 l 5
 198.3125 350.5 l 5
 471.9375 350.5 l 5
 541.6875 296.625 l 5
 471.9375 242.75 l 5
 198.3125 242.75 l 5
 163.4375 269.6875 l 5
591.5625 -169.4375 m 5
 483.8125 -66.1875 l 5
 483.8125 -41.75 l 5
 483.75 -41.75 l 5
 483.75 180.1875 l 5
 591.5 278.1875 l 5
 591.5 70.375 l 6
 591.5 68.625 591.5 67.125 591.5 65.375 c 4
 591.5 59.8125 591.5625 55.0625 591.5625 49.4375 c 6
 591.5625 -169.4375 l 5
82.4375 278.1875 m 1
 190.1875 174.9375 l 1
 190.1875 150.5 l 1
 190.25 150.5 l 1
 190.25 -71.4375 l 1
 82.5 -169.4375 l 1
 82.5 38.3125 l 2
 82.5 40.0625 82.5 41.5625 82.5 43.3125 c 0
 82.5 48.875 82.4375 53.625 82.4375 59.25 c 2
 82.4375 278.125 l 1
 82.4375 278.1875 l 1
113.1875 -212.375 m 5
 216.4375 -104.625 l 5
 462.8125 -104.625 l 5
 560.8125 -212.375 l 5
 353 -212.375 l 6
 351.25 -212.375 349.75 -212.375 348 -212.375 c 4
 342.4375 -212.375 337.6875 -212.5 332.0625 -212.5 c 6
 113.1875 -212.5 l 5
 113.1875 -212.375 l 5
EndSplineSet
EndChar

StartChar: guillemotright
Encoding: 187 187 126
Width: 1000
VWidth: 0
Flags: HW
LayerCount: 2
Back
Fore
SplineSet
709 384.75 m 5
 601.25 488 l 5
 601.25 487.9375 l 5
 601.25 269.0625 l 6
 601.25 263.4375 601.3125 258.6875 601.3125 253.125 c 4
 601.3125 251.375 601.3125 249.875 601.3125 248.125 c 6
 601.3125 240.3125 l 5
 709.0625 338.3125 l 5
 709 384.75 l 5
549 384.75 m 5
 441.25 488 l 5
 441.25 487.9375 l 5
 441.25 269.0625 l 6
 441.25 263.4375 441.3125 258.6875 441.3125 253.125 c 4
 441.3125 251.375 441.3125 249.875 441.3125 248.125 c 6
 441.3125 240.3125 l 5
 549.0625 338.3125 l 5
 549 384.75 l 5
EndSplineSet
EndChar

StartChar: onequarter
Encoding: 188 188 127
Width: 1000
VWidth: 0
Flags: HW
LayerCount: 2
Back
Fore
SplineSet
622.150390625 194.778320312 m 5
 622.150390625 194.759765625 l 5
 622.150390625 129.096679688 l 6
 622.150390625 127.409179688 622.130859375 125.984375 622.130859375 124.315429688 c 4
 622.130859375 123.791015625 622.130859375 123.340820312 622.130859375 122.815429688 c 6
 622.130859375 60.4716796875 l 5
 589.806640625 89.8720703125 l 5
 589.806640625 156.453125 l 5
 589.825195312 156.471679688 l 5
 589.825195312 163.802734375 l 5
 622.150390625 194.778320312 l 5
469.412109375 60.490234375 m 5
 469.412109375 60.509765625 l 5
 469.412109375 126.171875 l 6
 469.412109375 127.859375 469.431640625 129.284179688 469.431640625 130.953125 c 4
 469.431640625 131.478515625 469.431640625 131.927734375 469.431640625 132.453125 c 6
 469.431640625 194.778320312 l 5
 501.755859375 165.377929688 l 5
 501.755859375 98.796875 l 5
 501.737304688 98.796875 l 5
 501.737304688 91.4658203125 l 5
 469.412109375 60.490234375 l 5
494.275390625 47.646484375 m 5
 483.8125 55.728515625 l 5
 504.737304688 71.890625 l 5
 586.825195312 71.890625 l 5
 607.75 55.728515625 l 5
 586.825195312 39.5654296875 l 5
 504.737304688 39.5654296875 l 5
 494.275390625 47.646484375 l 5
622.712890625 -84.0908203125 m 5
 590.387695312 -53.115234375 l 5
 590.387695312 -45.7841796875 l 5
 590.369140625 -45.7841796875 l 5
 590.369140625 20.796875 l 5
 622.693359375 50.197265625 l 5
 622.693359375 -12.146484375 l 6
 622.693359375 -12.671875 622.693359375 -13.1220703125 622.693359375 -13.646484375 c 4
 622.693359375 -15.3154296875 622.712890625 -16.740234375 622.712890625 -18.427734375 c 6
 622.712890625 -84.0908203125 l 5
222.609375 724.778320312 m 1
 222.609375 724.759765625 l 1
 222.609375 659.096679688 l 2
 222.609375 657.409179688 222.590820312 655.984375 222.590820312 654.315429688 c 0
 222.590820312 653.791015625 222.590820312 653.340820312 222.590820312 652.815429688 c 2
 222.590820312 590.471679688 l 1
 190.265625 619.872070312 l 1
 190.265625 686.453125 l 1
 190.284179688 686.471679688 l 1
 190.284179688 693.802734375 l 1
 222.609375 724.778320312 l 1
223.171875 445.909179688 m 1
 190.846679688 476.884765625 l 1
 190.846679688 484.215820312 l 1
 190.828125 484.215820312 l 1
 190.828125 550.796875 l 1
 223.153320312 580.197265625 l 1
 223.153320312 517.853515625 l 2
 223.153320312 517.328125 223.153320312 516.877929688 223.153320312 516.353515625 c 0
 223.153320312 514.684570312 223.171875 513.259765625 223.171875 511.572265625 c 2
 223.171875 445.909179688 l 1
555.928710938 535.88671875 m 1
 556 787.943359375 l 1
 212.071289062 110 l 1
 212 -144.056640625 l 1
 555.928710938 535.88671875 l 1
EndSplineSet
EndChar

StartChar: guillemotleft
Encoding: 171 171 128
Width: 1000
VWidth: 0
Flags: HW
LayerCount: 2
Back
Fore
SplineSet
441.3125 343.5625 m 5
 549.0625 240.3125 l 5
 549.0625 240.375 l 5
 549.0625 459.25 l 6
 549.0625 464.875 549 469.625 549 475.1875 c 4
 549 476.9375 549 478.4375 549 480.1875 c 6
 549 488 l 5
 441.25 390 l 5
 441.3125 343.5625 l 5
601.3125 343.5625 m 5
 709.0625 240.3125 l 5
 709.0625 240.375 l 5
 709.0625 459.25 l 6
 709.0625 464.875 709 469.625 709 475.1875 c 4
 709 476.9375 709 478.4375 709 480.1875 c 6
 709 488 l 5
 601.25 390 l 5
 601.3125 343.5625 l 5
EndSplineSet
EndChar

StartChar: uni00AD
Encoding: 173 173 129
Width: 1000
VWidth: 0
Flags: HW
LayerCount: 2
Back
Fore
SplineSet
213.4375 269.6875 m 5
 178.5625 296.625 l 5
 248.3125 350.5 l 5
 421.9375 350.5 l 1
 491.6875 296.625 l 1
 421.9375 242.75 l 1
 248.3125 242.75 l 5
 213.4375 269.6875 l 5
EndSplineSet
EndChar

StartChar: semicolon
Encoding: 59 59 130
Width: 1000
VWidth: 0
Flags: HW
LayerCount: 2
Back
Fore
SplineSet
294 594 m 1
 421 594 l 1
 421 467 l 1
 294 467 l 1
 294 594 l 1
294 329 m 1
 421 329 l 1
 421 211.943359375 l 1
 296 211.943359375 l 2
 296.053710938 208.572265625 296.107421875 205.2578125 296.16015625 202 c 2
 294 202 l 1
 294 329 l 1
296.16015625 202 m 5
 301.670898438 -137.520507812 301.180664062 130.16796875 404.915039062 202 c 5
 296.16015625 202 l 5
404.915039062 202 m 2
 410.01953125 205.53515625 415.376953125 208.595703125 421 211.0859375 c 1
 421 202 l 1
 404.915039062 202 l 2
421 211.943359375 m 1
 421 211.0859375 l 2
 421.663085938 211.379882812 422.330078125 211.666015625 423 211.943359375 c 2
 421 211.943359375 l 1
EndSplineSet
EndChar

StartChar: colon
Encoding: 58 58 131
Width: 1000
VWidth: 0
Flags: HW
LayerCount: 2
Back
Fore
SplineSet
334 584 m 5
 461 584 l 5
 461 457 l 5
 334 457 l 5
 334 584 l 5
334 289 m 5
 461 289 l 5
 461 162 l 5
 334 162 l 5
 334 289 l 5
EndSplineSet
EndChar

StartChar: V
Encoding: 86 86 132
Width: 1000
VWidth: 0
Flags: HW
LayerCount: 2
Back
Fore
SplineSet
-227.928710938 535.88671875 m 5
 -228 787.943359375 l 1
 115.928710938 110 l 1
 116 -144.056640625 l 5
 -227.928710938 535.88671875 l 5
555.928710938 535.88671875 m 1
 556 787.943359375 l 1
 212.071289062 110 l 1
 212 -144.056640625 l 1
 555.928710938 535.88671875 l 1
EndSplineSet
EndChar

StartChar: v
Encoding: 118 118 133
Width: 1000
VWidth: 0
Flags: HW
LayerCount: 2
Back
Fore
SplineSet
-227.928710938 535.88671875 m 5
 -228 787.943359375 l 1
 115.928710938 110 l 1
 116 -144.056640625 l 5
 -227.928710938 535.88671875 l 5
555.928710938 535.88671875 m 1
 556 787.943359375 l 1
 212.071289062 110 l 1
 212 -144.056640625 l 1
 555.928710938 535.88671875 l 1
EndSplineSet
EndChar

StartChar: M
Encoding: 77 77 134
Width: 1000
VWidth: 0
Flags: HW
LayerCount: 2
Back
Fore
SplineSet
399.890625 533.872070312 m 5
 392.572265625 490.416015625 l 5
 480.360351562 498.212890625 l 5
 681.264648438 683.9765625 l 5
 695.90234375 770.88671875 l 5
 608.114257812 763.08984375 l 5
 407.209960938 577.326171875 l 5
 399.890625 533.872070312 l 5
689.6875 640.125 m 5
 689.6875 640.0625 l 5
 689.6875 541.1875 l 2
 689.6875 535.5625 689.625 530.8125 689.625 525.25 c 0
 689.625 523.5 689.625 522 689.625 520.25 c 2
 689.625 312.4375 l 1
 581.875 410.4375 l 1
 581.875 512.375 l 5
 581.9375 512.4375 l 5
 581.9375 536.875 l 5
 689.6875 640.125 l 5
80.5625 312.5 m 1
 80.5625 312.5625 l 1
 80.5625 531.4375 l 2
 80.5625 537.0625 80.625 541.8125 80.625 547.375 c 0
 80.625 549.125 80.625 550.625 80.625 552.375 c 2
 80.625 640.125 l 5
 188.375 542.125 l 5
 188.375 440.1875 l 1
 188.3125 440.1875 l 1
 188.3125 415.75 l 1
 80.5625 312.5 l 1
363.583984375 533.872070312 m 5
 370.90234375 490.416015625 l 5
 283.114257812 498.212890625 l 5
 82.2099609375 683.9765625 l 5
 67.572265625 770.88671875 l 5
 155.360351562 763.08984375 l 5
 356.264648438 577.326171875 l 5
 363.583984375 533.872070312 l 5
691.5625 -169.4375 m 1
 583.8125 -66.1875 l 1
 583.8125 -41.75 l 1
 583.75 -41.75 l 1
 583.75 180.1875 l 1
 691.5 278.1875 l 1
 691.5 70.375 l 2
 691.5 68.625 691.5 67.125 691.5 65.375 c 0
 691.5 59.8125 691.5625 55.0625 691.5625 49.4375 c 2
 691.5625 -169.4375 l 1
82.4375 278.1875 m 1
 190.1875 174.9375 l 1
 190.1875 150.5 l 1
 190.25 150.5 l 1
 190.25 -71.4375 l 1
 82.5 -169.4375 l 1
 82.5 38.3125 l 2
 82.5 40.0625 82.5 41.5625 82.5 43.3125 c 0
 82.5 48.875 82.4375 53.625 82.4375 59.25 c 2
 82.4375 278.125 l 1
 82.4375 278.1875 l 1
EndSplineSet
EndChar

StartChar: m
Encoding: 109 109 135
Width: 1000
VWidth: 0
Flags: HW
LayerCount: 2
Back
Fore
SplineSet
399.890625 533.872070312 m 5
 392.572265625 490.416015625 l 5
 480.360351562 498.212890625 l 5
 681.264648438 683.9765625 l 5
 695.90234375 770.88671875 l 5
 608.114257812 763.08984375 l 5
 407.209960938 577.326171875 l 5
 399.890625 533.872070312 l 5
689.6875 640.125 m 5
 689.6875 640.0625 l 5
 689.6875 541.1875 l 2
 689.6875 535.5625 689.625 530.8125 689.625 525.25 c 0
 689.625 523.5 689.625 522 689.625 520.25 c 2
 689.625 312.4375 l 1
 581.875 410.4375 l 1
 581.875 512.375 l 5
 581.9375 512.4375 l 5
 581.9375 536.875 l 5
 689.6875 640.125 l 5
80.5625 312.5 m 1
 80.5625 312.5625 l 1
 80.5625 531.4375 l 2
 80.5625 537.0625 80.625 541.8125 80.625 547.375 c 0
 80.625 549.125 80.625 550.625 80.625 552.375 c 2
 80.625 640.125 l 5
 188.375 542.125 l 5
 188.375 440.1875 l 1
 188.3125 440.1875 l 1
 188.3125 415.75 l 1
 80.5625 312.5 l 1
363.583984375 533.872070312 m 5
 370.90234375 490.416015625 l 5
 283.114257812 498.212890625 l 5
 82.2099609375 683.9765625 l 5
 67.572265625 770.88671875 l 5
 155.360351562 763.08984375 l 5
 356.264648438 577.326171875 l 5
 363.583984375 533.872070312 l 5
691.5625 -169.4375 m 1
 583.8125 -66.1875 l 1
 583.8125 -41.75 l 1
 583.75 -41.75 l 1
 583.75 180.1875 l 1
 691.5 278.1875 l 1
 691.5 70.375 l 2
 691.5 68.625 691.5 67.125 691.5 65.375 c 0
 691.5 59.8125 691.5625 55.0625 691.5625 49.4375 c 2
 691.5625 -169.4375 l 1
82.4375 278.1875 m 1
 190.1875 174.9375 l 1
 190.1875 150.5 l 1
 190.25 150.5 l 1
 190.25 -71.4375 l 1
 82.5 -169.4375 l 1
 82.5 38.3125 l 2
 82.5 40.0625 82.5 41.5625 82.5 43.3125 c 0
 82.5 48.875 82.4375 53.625 82.4375 59.25 c 2
 82.4375 278.125 l 1
 82.4375 278.1875 l 1
EndSplineSet
EndChar

StartChar: W
Encoding: 87 87 136
Width: 1000
VWidth: 0
Flags: HW
LayerCount: 2
Back
Fore
SplineSet
363.583984375 67.5771484375 m 5
 370.90234375 111.033203125 l 5
 283.114257812 103.236328125 l 5
 82.2099609375 -82.52734375 l 5
 67.572265625 -169.4375 l 5
 155.360351562 -161.640625 l 5
 356.264648438 24.123046875 l 5
 363.583984375 67.5771484375 l 5
73.787109375 -38.67578125 m 5
 73.787109375 -38.61328125 l 5
 73.787109375 60.26171875 l 2
 73.787109375 65.88671875 73.849609375 70.63671875 73.849609375 76.19921875 c 0
 73.849609375 77.94921875 73.849609375 79.44921875 73.849609375 81.19921875 c 2
 73.849609375 289.01171875 l 1
 181.599609375 191.01171875 l 1
 181.599609375 89.07421875 l 5
 181.537109375 89.01171875 l 5
 181.537109375 64.57421875 l 5
 73.787109375 -38.67578125 l 5
682.912109375 288.94921875 m 1
 682.912109375 288.88671875 l 1
 682.912109375 70.01171875 l 2
 682.912109375 64.38671875 682.849609375 59.63671875 682.849609375 54.07421875 c 0
 682.849609375 52.32421875 682.849609375 50.82421875 682.849609375 49.07421875 c 2
 682.849609375 -38.67578125 l 5
 575.099609375 59.32421875 l 5
 575.099609375 161.26171875 l 1
 575.162109375 161.26171875 l 1
 575.162109375 185.69921875 l 1
 682.912109375 288.94921875 l 1
399.890625 67.5771484375 m 5
 392.572265625 111.033203125 l 5
 480.360351562 103.236328125 l 5
 681.264648438 -82.52734375 l 5
 695.90234375 -169.4375 l 5
 608.114257812 -161.640625 l 5
 407.209960938 24.123046875 l 5
 399.890625 67.5771484375 l 5
71.912109375 770.88671875 m 1
 179.662109375 667.63671875 l 1
 179.662109375 643.19921875 l 1
 179.724609375 643.19921875 l 1
 179.724609375 421.26171875 l 1
 71.974609375 323.26171875 l 1
 71.974609375 531.07421875 l 2
 71.974609375 532.82421875 71.974609375 534.32421875 71.974609375 536.07421875 c 0
 71.974609375 541.63671875 71.912109375 546.38671875 71.912109375 552.01171875 c 2
 71.912109375 770.88671875 l 1
681.037109375 323.26171875 m 1
 573.287109375 426.51171875 l 1
 573.287109375 450.94921875 l 1
 573.224609375 450.94921875 l 1
 573.224609375 672.88671875 l 1
 680.974609375 770.88671875 l 1
 680.974609375 563.13671875 l 2
 680.974609375 561.38671875 680.974609375 559.88671875 680.974609375 558.13671875 c 0
 680.974609375 552.57421875 681.037109375 547.82421875 681.037109375 542.19921875 c 2
 681.037109375 323.32421875 l 1
 681.037109375 323.26171875 l 1
EndSplineSet
EndChar

StartChar: Ccedilla
Encoding: 199 199 137
Width: 1000
VWidth: 0
Flags: HW
LayerCount: 2
Back
Fore
SplineSet
364.2578125 69.2041015625 m 5
 474.2421875 5.7041015625 l 5
 350.7421875 -208.204101562 l 5
 240.7578125 -144.704101562 l 5
 364.2578125 69.2041015625 l 5
80.5625 312.5 m 1
 80.5625 312.5625 l 1
 80.5625 531.4375 l 2
 80.5625 537.0625 80.625 541.8125 80.625 547.375 c 0
 80.625 549.125 80.625 550.625 80.625 552.375 c 2
 80.625 760.125 l 1
 188.375 662.125 l 1
 188.375 440.1875 l 1
 188.3125 440.1875 l 1
 188.3125 415.75 l 1
 80.5625 312.5 l 1
111.3125 803.0625 m 1
 111.375 803.0625 l 1
 330.25 803.0625 l 2
 335.875 803.0625 340.625 803 346.1875 803 c 0
 347.9375 803 349.4375 803 351.1875 803 c 2
 559 803 l 1
 461 695.25 l 1
 239.0625 695.25 l 1
 239 695.3125 l 1
 214.5625 695.3125 l 1
 111.3125 803.0625 l 1
82.4375 278.1875 m 1
 190.1875 174.9375 l 1
 190.1875 150.5 l 1
 190.25 150.5 l 1
 190.25 -71.4375 l 1
 82.5 -169.4375 l 1
 82.5 38.3125 l 2
 82.5 40.0625 82.5 41.5625 82.5 43.3125 c 0
 82.5 48.875 82.4375 53.625 82.4375 59.25 c 2
 82.4375 278.125 l 1
 82.4375 278.1875 l 1
113.1875 -212.375 m 1
 216.4375 -104.625 l 1
 462.8125 -104.625 l 1
 560.8125 -212.375 l 1
 353 -212.375 l 2
 351.25 -212.375 349.75 -212.375 348 -212.375 c 0
 342.4375 -212.375 337.6875 -212.5 332.0625 -212.5 c 2
 113.1875 -212.5 l 1
 113.1875 -212.375 l 1
EndSplineSet
EndChar

StartChar: AE
Encoding: 198 198 138
Width: 1000
VWidth: 0
Flags: HW
LayerCount: 2
Back
Fore
SplineSet
-156.5625 129.6875 m 5
 -191.4375 156.625 l 5
 -121.6875 210.5 l 5
 -28.0625 210.5 l 5
 41.6875 156.625 l 5
 -28.0625 102.75 l 5
 -121.6875 102.75 l 5
 -156.5625 129.6875 l 5
35.9287109375 555.88671875 m 1
 36 807.943359375 l 1
 -307.928710938 40 l 1
 -308 -214.056640625 l 1
 35.9287109375 555.88671875 l 1
80.5625 312.5 m 1
 80.5625 312.5625 l 1
 80.5625 531.4375 l 2
 80.5625 537.0625 80.625 541.8125 80.625 547.375 c 0
 80.625 549.125 80.625 550.625 80.625 552.375 c 2
 80.625 760.125 l 1
 188.375 662.125 l 1
 188.375 440.1875 l 1
 188.3125 440.1875 l 1
 188.3125 415.75 l 1
 80.5625 312.5 l 1
111.3125 803.0625 m 1
 111.375 803.0625 l 1
 330.25 803.0625 l 2
 335.875 803.0625 340.625 803 346.1875 803 c 0
 347.9375 803 349.4375 803 351.1875 803 c 2
 559 803 l 1
 461 695.25 l 1
 239.0625 695.25 l 1
 239 695.3125 l 1
 214.5625 695.3125 l 1
 111.3125 803.0625 l 1
163.4375 269.6875 m 1
 128.5625 296.625 l 1
 198.3125 350.5 l 1
 471.9375 350.5 l 1
 541.6875 296.625 l 1
 471.9375 242.75 l 1
 198.3125 242.75 l 1
 163.4375 269.6875 l 1
82.4375 278.1875 m 1
 190.1875 174.9375 l 1
 190.1875 150.5 l 1
 190.25 150.5 l 1
 190.25 -71.4375 l 1
 82.5 -169.4375 l 1
 82.5 38.3125 l 2
 82.5 40.0625 82.5 41.5625 82.5 43.3125 c 0
 82.5 48.875 82.4375 53.625 82.4375 59.25 c 2
 82.4375 278.125 l 1
 82.4375 278.1875 l 1
113.1875 -212.375 m 1
 216.4375 -104.625 l 1
 462.8125 -104.625 l 1
 560.8125 -212.375 l 1
 353 -212.375 l 2
 351.25 -212.375 349.75 -212.375 348 -212.375 c 0
 342.4375 -212.375 337.6875 -212.5 332.0625 -212.5 c 2
 113.1875 -212.5 l 1
 113.1875 -212.375 l 1
EndSplineSet
EndChar

StartChar: w
Encoding: 119 119 139
Width: 1000
VWidth: 0
Flags: HW
LayerCount: 2
Back
Fore
SplineSet
363.583984375 67.5771484375 m 5
 370.90234375 111.033203125 l 5
 283.114257812 103.236328125 l 5
 82.2099609375 -82.52734375 l 5
 67.572265625 -169.4375 l 5
 155.360351562 -161.640625 l 5
 356.264648438 24.123046875 l 5
 363.583984375 67.5771484375 l 5
73.787109375 -38.67578125 m 5
 73.787109375 -38.61328125 l 5
 73.787109375 60.26171875 l 2
 73.787109375 65.88671875 73.849609375 70.63671875 73.849609375 76.19921875 c 0
 73.849609375 77.94921875 73.849609375 79.44921875 73.849609375 81.19921875 c 2
 73.849609375 289.01171875 l 1
 181.599609375 191.01171875 l 1
 181.599609375 89.07421875 l 5
 181.537109375 89.01171875 l 5
 181.537109375 64.57421875 l 5
 73.787109375 -38.67578125 l 5
682.912109375 288.94921875 m 1
 682.912109375 288.88671875 l 1
 682.912109375 70.01171875 l 2
 682.912109375 64.38671875 682.849609375 59.63671875 682.849609375 54.07421875 c 0
 682.849609375 52.32421875 682.849609375 50.82421875 682.849609375 49.07421875 c 2
 682.849609375 -38.67578125 l 5
 575.099609375 59.32421875 l 5
 575.099609375 161.26171875 l 1
 575.162109375 161.26171875 l 1
 575.162109375 185.69921875 l 1
 682.912109375 288.94921875 l 1
399.890625 67.5771484375 m 5
 392.572265625 111.033203125 l 5
 480.360351562 103.236328125 l 5
 681.264648438 -82.52734375 l 5
 695.90234375 -169.4375 l 5
 608.114257812 -161.640625 l 5
 407.209960938 24.123046875 l 5
 399.890625 67.5771484375 l 5
71.912109375 770.88671875 m 1
 179.662109375 667.63671875 l 1
 179.662109375 643.19921875 l 1
 179.724609375 643.19921875 l 1
 179.724609375 421.26171875 l 1
 71.974609375 323.26171875 l 1
 71.974609375 531.07421875 l 2
 71.974609375 532.82421875 71.974609375 534.32421875 71.974609375 536.07421875 c 0
 71.974609375 541.63671875 71.912109375 546.38671875 71.912109375 552.01171875 c 2
 71.912109375 770.88671875 l 1
681.037109375 323.26171875 m 1
 573.287109375 426.51171875 l 1
 573.287109375 450.94921875 l 1
 573.224609375 450.94921875 l 1
 573.224609375 672.88671875 l 1
 680.974609375 770.88671875 l 1
 680.974609375 563.13671875 l 2
 680.974609375 561.38671875 680.974609375 559.88671875 680.974609375 558.13671875 c 0
 680.974609375 552.57421875 681.037109375 547.82421875 681.037109375 542.19921875 c 2
 681.037109375 323.32421875 l 1
 681.037109375 323.26171875 l 1
EndSplineSet
EndChar

StartChar: n
Encoding: 110 110 140
Width: 1000
VWidth: 0
Flags: HW
LayerCount: 2
Back
Fore
SplineSet
242.071289062 516.88671875 m 5
 242 718.943359375 l 5
 525.928710938 241 l 5
 526 36.943359375 l 5
 242.071289062 516.88671875 l 5
689.6875 -118.67578125 m 5
 689.6875 -118.61328125 l 5
 689.6875 100.26171875 l 6
 689.6875 105.88671875 689.625 110.63671875 689.625 116.19921875 c 4
 689.625 117.94921875 689.625 119.44921875 689.625 121.19921875 c 6
 689.625 329.01171875 l 5
 581.875 231.01171875 l 5
 581.875 9.07421875 l 5
 581.9375 9.01171875 l 5
 581.9375 -15.42578125 l 5
 689.6875 -118.67578125 l 5
80.5625 328.94921875 m 5
 80.5625 328.88671875 l 5
 80.5625 110.01171875 l 6
 80.5625 104.38671875 80.625 99.63671875 80.625 94.07421875 c 4
 80.625 92.32421875 80.625 90.82421875 80.625 89.07421875 c 6
 80.625 -118.67578125 l 5
 188.375 -20.67578125 l 5
 188.375 201.26171875 l 5
 188.3125 201.26171875 l 5
 188.3125 225.69921875 l 5
 80.5625 328.94921875 l 5
691.5625 810.88671875 m 5
 583.8125 707.63671875 l 5
 583.8125 683.19921875 l 5
 583.75 683.19921875 l 5
 583.75 461.26171875 l 5
 691.5 363.26171875 l 5
 691.5 571.07421875 l 6
 691.5 572.82421875 691.5 574.32421875 691.5 576.07421875 c 4
 691.5 581.63671875 691.5625 586.38671875 691.5625 592.01171875 c 6
 691.5625 810.88671875 l 5
82.4375 363.26171875 m 5
 190.1875 466.51171875 l 5
 190.1875 490.94921875 l 5
 190.25 490.94921875 l 5
 190.25 712.88671875 l 5
 82.5 810.88671875 l 5
 82.5 603.13671875 l 6
 82.5 601.38671875 82.5 599.88671875 82.5 598.13671875 c 4
 82.5 592.57421875 82.4375 587.82421875 82.4375 582.19921875 c 6
 82.4375 363.32421875 l 5
 82.4375 363.26171875 l 5
EndSplineSet
EndChar

StartChar: N
Encoding: 78 78 141
Width: 1000
VWidth: 0
Flags: HW
LayerCount: 2
Back
Fore
SplineSet
242.071289062 516.88671875 m 5
 242 718.943359375 l 5
 525.928710938 241 l 5
 526 36.943359375 l 5
 242.071289062 516.88671875 l 5
689.6875 -118.67578125 m 5
 689.6875 -118.61328125 l 5
 689.6875 100.26171875 l 6
 689.6875 105.88671875 689.625 110.63671875 689.625 116.19921875 c 4
 689.625 117.94921875 689.625 119.44921875 689.625 121.19921875 c 6
 689.625 329.01171875 l 5
 581.875 231.01171875 l 5
 581.875 9.07421875 l 5
 581.9375 9.01171875 l 5
 581.9375 -15.42578125 l 5
 689.6875 -118.67578125 l 5
80.5625 328.94921875 m 5
 80.5625 328.88671875 l 5
 80.5625 110.01171875 l 6
 80.5625 104.38671875 80.625 99.63671875 80.625 94.07421875 c 4
 80.625 92.32421875 80.625 90.82421875 80.625 89.07421875 c 6
 80.625 -118.67578125 l 5
 188.375 -20.67578125 l 5
 188.375 201.26171875 l 5
 188.3125 201.26171875 l 5
 188.3125 225.69921875 l 5
 80.5625 328.94921875 l 5
691.5625 810.88671875 m 5
 583.8125 707.63671875 l 5
 583.8125 683.19921875 l 5
 583.75 683.19921875 l 5
 583.75 461.26171875 l 5
 691.5 363.26171875 l 5
 691.5 571.07421875 l 6
 691.5 572.82421875 691.5 574.32421875 691.5 576.07421875 c 4
 691.5 581.63671875 691.5625 586.38671875 691.5625 592.01171875 c 6
 691.5625 810.88671875 l 5
82.4375 363.26171875 m 5
 190.1875 466.51171875 l 5
 190.1875 490.94921875 l 5
 190.25 490.94921875 l 5
 190.25 712.88671875 l 5
 82.5 810.88671875 l 5
 82.5 603.13671875 l 6
 82.5 601.38671875 82.5 599.88671875 82.5 598.13671875 c 4
 82.5 592.57421875 82.4375 587.82421875 82.4375 582.19921875 c 6
 82.4375 363.32421875 l 5
 82.4375 363.26171875 l 5
EndSplineSet
EndChar

StartChar: underscore
Encoding: 95 95 142
Width: 1000
VWidth: 0
Flags: HW
LayerCount: 2
Back
Fore
SplineSet
163.4375 -170.3125 m 1
 128.5625 -143.375 l 1
 198.3125 -89.5 l 1
 811.9375 -89.5 l 5
 881.6875 -143.375 l 5
 811.9375 -197.25 l 5
 198.3125 -197.25 l 1
 163.4375 -170.3125 l 1
EndSplineSet
EndChar

